M48
INCH
T01C0.0354
T02C0.0433
%
T01
X+003188Y+005230
X+003188Y+004230
X+003125Y+001990
X+003125Y+000990
X+011126Y+001410
X+011126Y+002410
X+011126Y+004120
X+011126Y+005120
T02
X+001000Y+002000
X+001000Y+003000
X+001000Y+004000
X+005688Y+004160
X+005688Y+003160
X+005688Y+002160
X+008688Y+002200
X+008688Y+003200
X+008688Y+004200
X+013564Y+003540
X+013564Y+002540
X+015002Y+003000
X+015002Y+002000
X+015002Y+004000
T00
M30
