G04 DipTrace 2.4.0.2*
%INTopAssy.gbr*%
%MOIN*%
%ADD10C,0.0098*%
%ADD12C,0.003*%
%ADD16R,0.063X0.063*%
%ADD17C,0.063*%
%ADD18R,0.0669X0.0669*%
%ADD19C,0.0669*%
%ADD20R,0.0748X0.0748*%
%ADD21C,0.0748*%
%ADD33C,0.0077*%
%FSLAX44Y44*%
G04*
G70*
G90*
G75*
G01*
%LNTopAssy*%
%LPD*%
X2188Y6147D2*
D10*
X4188D1*
Y3730D1*
X2188D1*
Y6147D1*
D16*
X3188Y5230D3*
D17*
Y4230D3*
X2125Y2490D2*
D10*
X4125D1*
Y73D1*
X2125D1*
Y2490D1*
D16*
X3125Y990D3*
D17*
Y1990D3*
X10126Y5620D2*
D10*
X12126D1*
Y3203D1*
X10126D1*
Y5620D1*
D16*
X11126Y4120D3*
D17*
Y5120D3*
X10126Y2910D2*
D10*
X12126D1*
Y493D1*
X10126D1*
Y2910D1*
D16*
X11126Y1410D3*
D17*
Y2410D3*
X402Y1106D2*
D10*
Y4894D1*
X0D2*
X1500D1*
Y1106D1*
X0D1*
Y4894D1*
D18*
X1000Y2000D3*
D19*
Y3000D3*
Y4000D3*
X15600Y4894D2*
D10*
Y1106D1*
X14502Y4894D2*
X16002D1*
Y1106D1*
X14502D1*
Y4894D1*
D18*
X15002Y4000D3*
D19*
Y3000D3*
Y2000D3*
X12965Y1646D2*
D10*
Y4434D1*
X12564D2*
X14064D1*
Y1646D1*
X12564D1*
Y4434D1*
D18*
X13564Y2540D3*
D19*
Y3540D3*
X4979Y5129D2*
D10*
X6751D1*
Y1191D1*
X4979D1*
Y5129D1*
D20*
X5688Y4160D3*
D21*
Y3160D3*
Y2160D3*
X7625Y5169D2*
D10*
X9397D1*
Y1231D1*
X7625D1*
Y5169D1*
D20*
X8688Y2200D3*
D21*
Y3200D3*
Y4200D3*
X3230Y6760D2*
D33*
X3206Y6807D1*
X3158Y6855D1*
X3111Y6879D1*
X3015D1*
X2967Y6855D1*
X2919Y6807D1*
X2895Y6760D1*
X2871Y6688D1*
Y6568D1*
X2895Y6497D1*
X2919Y6449D1*
X2967Y6401D1*
X3015Y6377D1*
X3111D1*
X3158Y6401D1*
X3206Y6449D1*
X3230Y6497D1*
X3384Y6783D2*
X3432Y6807D1*
X3504Y6879D1*
Y6377D1*
X3060Y-216D2*
X3036Y-168D1*
X2988Y-120D1*
X2941Y-97D1*
X2845D1*
X2797Y-120D1*
X2749Y-168D1*
X2725Y-216D1*
X2701Y-288D1*
Y-408D1*
X2725Y-479D1*
X2749Y-527D1*
X2797Y-575D1*
X2845Y-599D1*
X2941D1*
X2988Y-575D1*
X3036Y-527D1*
X3060Y-479D1*
X3239Y-217D2*
Y-193D1*
X3262Y-145D1*
X3286Y-121D1*
X3334Y-97D1*
X3430D1*
X3477Y-121D1*
X3501Y-145D1*
X3526Y-193D1*
Y-240D1*
X3501Y-288D1*
X3454Y-360D1*
X3214Y-599D1*
X3549D1*
X11061Y6233D2*
X11037Y6280D1*
X10989Y6328D1*
X10941Y6352D1*
X10846D1*
X10798Y6328D1*
X10750Y6280D1*
X10726Y6233D1*
X10702Y6161D1*
Y6041D1*
X10726Y5970D1*
X10750Y5922D1*
X10798Y5874D1*
X10846Y5850D1*
X10941D1*
X10989Y5874D1*
X11037Y5922D1*
X11061Y5970D1*
X11263Y6352D2*
X11526D1*
X11383Y6160D1*
X11455D1*
X11502Y6137D1*
X11526Y6113D1*
X11550Y6041D1*
Y5993D1*
X11526Y5922D1*
X11478Y5874D1*
X11406Y5850D1*
X11335D1*
X11263Y5874D1*
X11240Y5898D1*
X11215Y5945D1*
X11049Y204D2*
X11025Y252D1*
X10977Y300D1*
X10930Y323D1*
X10834D1*
X10786Y300D1*
X10738Y252D1*
X10714Y204D1*
X10690Y132D1*
Y12D1*
X10714Y-59D1*
X10738Y-107D1*
X10786Y-155D1*
X10834Y-179D1*
X10930D1*
X10977Y-155D1*
X11025Y-107D1*
X11049Y-59D1*
X11443Y-179D2*
Y323D1*
X11203Y-12D1*
X11562D1*
X733Y937D2*
Y554D1*
X709Y482D1*
X685Y459D1*
X637Y434D1*
X589D1*
X541Y459D1*
X518Y482D1*
X493Y554D1*
Y602D1*
X887Y841D2*
X935Y865D1*
X1007Y936D1*
Y434D1*
X15127Y937D2*
Y554D1*
X15103Y482D1*
X15078Y459D1*
X15031Y434D1*
X14983D1*
X14935Y459D1*
X14912Y482D1*
X14887Y554D1*
Y602D1*
X15305Y817D2*
Y841D1*
X15329Y889D1*
X15353Y912D1*
X15401Y936D1*
X15497D1*
X15544Y912D1*
X15568Y889D1*
X15592Y841D1*
Y793D1*
X15568Y745D1*
X15520Y674D1*
X15281Y434D1*
X15616D1*
X13177Y1477D2*
Y1094D1*
X13153Y1022D1*
X13129Y999D1*
X13081Y974D1*
X13033D1*
X12986Y999D1*
X12962Y1022D1*
X12938Y1094D1*
Y1142D1*
X13571Y974D2*
Y1476D1*
X13331Y1142D1*
X13690D1*
X5453Y1022D2*
Y663D1*
X5477Y591D1*
X5525Y544D1*
X5597Y520D1*
X5644D1*
X5716Y544D1*
X5764Y591D1*
X5788Y663D1*
Y1022D1*
X5967Y902D2*
Y926D1*
X5991Y974D1*
X6014Y998D1*
X6062Y1021D1*
X6158D1*
X6206Y998D1*
X6229Y974D1*
X6254Y926D1*
Y878D1*
X6229Y830D1*
X6182Y759D1*
X5942Y520D1*
X6277D1*
X8099Y1062D2*
Y703D1*
X8123Y631D1*
X8171Y584D1*
X8243Y560D1*
X8290D1*
X8362Y584D1*
X8410Y631D1*
X8434Y703D1*
Y1062D1*
X8637Y1061D2*
X8899D1*
X8756Y870D1*
X8828D1*
X8875Y846D1*
X8899Y823D1*
X8923Y751D1*
Y703D1*
X8899Y631D1*
X8852Y583D1*
X8780Y560D1*
X8708D1*
X8637Y583D1*
X8613Y608D1*
X8588Y655D1*
X68Y2016D2*
D12*
X269D1*
Y2102D1*
X259Y2131D1*
X250Y2140D1*
X231Y2150D1*
X202D1*
X183Y2140D1*
X173Y2131D1*
X164Y2102D1*
X154Y2131D1*
X144Y2140D1*
X125Y2150D1*
X106D1*
X87Y2140D1*
X77Y2131D1*
X68Y2102D1*
Y2016D1*
X164D2*
Y2102D1*
X68Y2269D2*
X77Y2250D1*
X97Y2231D1*
X116Y2221D1*
X144Y2211D1*
X192D1*
X221Y2221D1*
X240Y2231D1*
X259Y2250D1*
X269Y2269D1*
Y2307D1*
X259Y2326D1*
X240Y2345D1*
X221Y2355D1*
X192Y2364D1*
X144D1*
X116Y2355D1*
X97Y2345D1*
X77Y2326D1*
X68Y2307D1*
Y2269D1*
X269Y2579D2*
X68Y2503D1*
X269Y2426D1*
X202Y2455D2*
Y2551D1*
X164Y2641D2*
Y2727D1*
X154Y2756D1*
X144Y2765D1*
X125Y2775D1*
X106D1*
X87Y2765D1*
X77Y2756D1*
X68Y2727D1*
Y2641D1*
X269D1*
X164Y2708D2*
X269Y2775D1*
X68Y2837D2*
X269D1*
Y2904D1*
X259Y2932D1*
X240Y2952D1*
X221Y2961D1*
X192Y2971D1*
X144D1*
X116Y2961D1*
X97Y2952D1*
X77Y2932D1*
X68Y2904D1*
Y2837D1*
Y3351D2*
Y3227D1*
X269D1*
Y3351D1*
X164Y3227D2*
Y3303D1*
X68Y3413D2*
X269D1*
Y3480D1*
X259Y3509D1*
X240Y3528D1*
X221Y3537D1*
X192Y3547D1*
X144D1*
X116Y3537D1*
X97Y3528D1*
X77Y3509D1*
X68Y3480D1*
Y3413D1*
X116Y3752D2*
X97Y3743D1*
X77Y3723D1*
X68Y3704D1*
Y3666D1*
X77Y3647D1*
X97Y3628D1*
X116Y3618D1*
X144Y3609D1*
X192D1*
X221Y3618D1*
X240Y3628D1*
X259Y3647D1*
X269Y3666D1*
Y3704D1*
X259Y3723D1*
X240Y3743D1*
X221Y3752D1*
X192D1*
Y3704D1*
X68Y3938D2*
Y3814D1*
X269D1*
Y3938D1*
X164Y3814D2*
Y3890D1*
X15934Y3984D2*
X15733D1*
Y3898D1*
X15743Y3869D1*
X15752Y3860D1*
X15771Y3850D1*
X15800D1*
X15819Y3860D1*
X15829Y3869D1*
X15838Y3898D1*
X15848Y3869D1*
X15857Y3860D1*
X15876Y3850D1*
X15895D1*
X15915Y3860D1*
X15924Y3869D1*
X15934Y3898D1*
Y3984D1*
X15838D2*
Y3898D1*
X15934Y3731D2*
X15924Y3750D1*
X15905Y3769D1*
X15886Y3779D1*
X15857Y3789D1*
X15809D1*
X15781Y3779D1*
X15762Y3769D1*
X15743Y3750D1*
X15733Y3731D1*
Y3693D1*
X15743Y3674D1*
X15762Y3655D1*
X15781Y3645D1*
X15809Y3636D1*
X15857D1*
X15886Y3645D1*
X15905Y3655D1*
X15924Y3674D1*
X15934Y3693D1*
Y3731D1*
X15733Y3421D2*
X15934Y3497D1*
X15733Y3574D1*
X15800Y3545D2*
Y3449D1*
X15838Y3359D2*
Y3273D1*
X15848Y3244D1*
X15857Y3235D1*
X15876Y3225D1*
X15895D1*
X15915Y3235D1*
X15924Y3244D1*
X15934Y3273D1*
Y3359D1*
X15733D1*
X15838Y3292D2*
X15733Y3225D1*
X15934Y3163D2*
X15733D1*
Y3096D1*
X15743Y3068D1*
X15762Y3048D1*
X15781Y3039D1*
X15809Y3029D1*
X15857D1*
X15886Y3039D1*
X15905Y3048D1*
X15924Y3068D1*
X15934Y3096D1*
Y3163D1*
Y2649D2*
Y2773D1*
X15733D1*
Y2649D1*
X15838Y2773D2*
Y2697D1*
X15934Y2587D2*
X15733D1*
Y2520D1*
X15743Y2491D1*
X15762Y2472D1*
X15781Y2463D1*
X15809Y2453D1*
X15857D1*
X15886Y2463D1*
X15905Y2472D1*
X15924Y2491D1*
X15934Y2520D1*
Y2587D1*
X15886Y2248D2*
X15905Y2257D1*
X15924Y2277D1*
X15934Y2296D1*
Y2334D1*
X15924Y2353D1*
X15905Y2372D1*
X15886Y2382D1*
X15857Y2391D1*
X15809D1*
X15781Y2382D1*
X15762Y2372D1*
X15743Y2353D1*
X15733Y2334D1*
Y2296D1*
X15743Y2277D1*
X15762Y2257D1*
X15781Y2248D1*
X15809D1*
Y2296D1*
X15934Y2062D2*
Y2186D1*
X15733D1*
Y2062D1*
X15838Y2186D2*
Y2110D1*
X12632Y2055D2*
X12833D1*
Y2142D1*
X12823Y2170D1*
X12813Y2180D1*
X12794Y2189D1*
X12766D1*
X12746Y2180D1*
X12737Y2170D1*
X12727Y2142D1*
X12718Y2170D1*
X12708Y2180D1*
X12689Y2189D1*
X12670D1*
X12651Y2180D1*
X12641Y2170D1*
X12632Y2142D1*
Y2055D1*
X12727D2*
Y2142D1*
X12632Y2309D2*
X12641Y2289D1*
X12660Y2270D1*
X12680Y2261D1*
X12708Y2251D1*
X12756D1*
X12785Y2261D1*
X12804Y2270D1*
X12823Y2289D1*
X12833Y2309D1*
Y2347D1*
X12823Y2366D1*
X12804Y2385D1*
X12785Y2395D1*
X12756Y2404D1*
X12708D1*
X12680Y2395D1*
X12660Y2385D1*
X12641Y2366D1*
X12632Y2347D1*
Y2309D1*
X12833Y2619D2*
X12632Y2542D1*
X12833Y2466D1*
X12766Y2495D2*
Y2590D1*
X12727Y2681D2*
Y2767D1*
X12718Y2795D1*
X12708Y2805D1*
X12689Y2815D1*
X12670D1*
X12651Y2805D1*
X12641Y2795D1*
X12632Y2767D1*
Y2681D1*
X12833D1*
X12727Y2748D2*
X12833Y2815D1*
X12632Y2876D2*
X12833D1*
Y2943D1*
X12823Y2972D1*
X12804Y2991D1*
X12785Y3001D1*
X12756Y3010D1*
X12708D1*
X12680Y3001D1*
X12660Y2991D1*
X12641Y2972D1*
X12632Y2943D1*
Y2876D1*
Y3391D2*
Y3267D1*
X12833D1*
Y3391D1*
X12727Y3267D2*
Y3343D1*
X12632Y3453D2*
X12833D1*
Y3520D1*
X12823Y3548D1*
X12804Y3568D1*
X12785Y3577D1*
X12756Y3587D1*
X12708D1*
X12680Y3577D1*
X12660Y3568D1*
X12641Y3548D1*
X12632Y3520D1*
Y3453D1*
X12680Y3792D2*
X12660Y3782D1*
X12641Y3763D1*
X12632Y3744D1*
Y3706D1*
X12641Y3687D1*
X12660Y3668D1*
X12680Y3658D1*
X12708Y3648D1*
X12756D1*
X12785Y3658D1*
X12804Y3668D1*
X12823Y3687D1*
X12833Y3706D1*
Y3744D1*
X12823Y3763D1*
X12804Y3782D1*
X12785Y3792D1*
X12756D1*
Y3744D1*
X12632Y3978D2*
Y3854D1*
X12833D1*
Y3978D1*
X12727Y3854D2*
Y3930D1*
M02*
