G04 DipTrace 2.4.0.2*
%INTopDimension.gbr*%
%MOIN*%
%ADD13C,0.0014*%
%ADD34C,0.0062*%
%FSLAX44Y44*%
G04*
G70*
G90*
G75*
G01*
%LNTopDimension*%
%LPD*%
X1000Y4000D2*
D13*
Y8617D1*
X15002Y4000D2*
Y8617D1*
X8001Y8420D2*
X1394D1*
G36*
X1000D2*
X1394Y8499D1*
Y8341D1*
X1000Y8420D1*
G37*
X8001D2*
D13*
X14608D1*
G36*
X15002D2*
X14608Y8341D1*
Y8499D1*
X15002Y8420D1*
G37*
X0Y0D2*
D13*
Y-2047D1*
X1000Y2000D2*
Y-2047D1*
X0Y-1850D2*
X1000D1*
X-591D2*
X-394D1*
G36*
X0D2*
X-394Y-1929D1*
Y-1771D1*
X0Y-1850D1*
G37*
X1591D2*
D13*
X1394D1*
G36*
X1000D2*
X1394Y-1771D1*
Y-1929D1*
X1000Y-1850D1*
G37*
X0Y0D2*
D13*
X-3697D1*
X1000Y2000D2*
X-3697D1*
X-3500Y1000D2*
Y394D1*
G36*
Y0D2*
X-3579Y394D1*
X-3422D1*
X-3500Y0D1*
G37*
Y1000D2*
D13*
Y1606D1*
G36*
Y2000D2*
X-3422Y1606D1*
X-3579D1*
X-3500Y2000D1*
G37*
X16000Y0D2*
D13*
X15680D1*
X15002Y2000D2*
X16074D1*
X15877Y1000D2*
Y394D1*
G36*
Y0D2*
X15798Y394D1*
X15955D1*
X15877Y0D1*
G37*
Y1000D2*
D13*
Y1606D1*
G36*
Y2000D2*
X15955Y1606D1*
X15798D1*
X15877Y2000D1*
G37*
X1000Y4000D2*
D13*
X-3697D1*
X0Y6000D2*
X-3697D1*
X-3500Y5000D2*
Y4394D1*
G36*
Y4000D2*
X-3579Y4394D1*
X-3422D1*
X-3500Y4000D1*
G37*
Y5000D2*
D13*
Y5606D1*
G36*
Y6000D2*
X-3422Y5606D1*
X-3579D1*
X-3500Y6000D1*
G37*
X16000D2*
D13*
X16949D1*
X15002Y4000D2*
X16949D1*
X16752Y5000D2*
Y5606D1*
G36*
Y6000D2*
X16830Y5606D1*
X16673D1*
X16752Y6000D1*
G37*
Y5000D2*
D13*
Y4394D1*
G36*
Y4000D2*
X16673Y4394D1*
X16830D1*
X16752Y4000D1*
G37*
X15002D2*
D13*
Y8637D1*
X16000Y6000D2*
Y8637D1*
X15002Y8440D2*
X16000D1*
X14411D2*
X14608D1*
G36*
X15002D2*
X14608Y8361D1*
Y8519D1*
X15002Y8440D1*
G37*
X16591D2*
D13*
X16394D1*
G36*
X16000D2*
X16394Y8519D1*
Y8361D1*
X16000Y8440D1*
G37*
X6751Y5129D2*
D13*
Y6857D1*
X7625Y5169D2*
Y6857D1*
X6751Y6660D2*
X7625D1*
X6161D2*
X6357D1*
G36*
X6751D2*
X6357Y6581D1*
Y6739D1*
X6751Y6660D1*
G37*
X8216D2*
D13*
X8019D1*
G36*
X7625D2*
X8019Y6739D1*
Y6581D1*
X7625Y6660D1*
G37*
X9623D2*
D13*
X7625D1*
X7698Y8867D2*
D34*
X7736Y8887D1*
X7793Y8944D1*
Y8542D1*
X7936Y8581D2*
X7917Y8561D1*
X7936Y8542D1*
X7955Y8561D1*
X7936Y8581D1*
X8270Y8542D2*
Y8944D1*
X8079Y8676D1*
X8366D1*
X321Y-1326D2*
X264Y-1345D1*
X225Y-1403D1*
X206Y-1498D1*
Y-1556D1*
X225Y-1651D1*
X264Y-1709D1*
X321Y-1728D1*
X359D1*
X417Y-1709D1*
X455Y-1651D1*
X474Y-1556D1*
Y-1498D1*
X455Y-1403D1*
X417Y-1345D1*
X359Y-1326D1*
X321D1*
X455Y-1403D2*
X225Y-1651D1*
X617Y-1689D2*
X598Y-1709D1*
X617Y-1728D1*
X636Y-1709D1*
X617Y-1689D1*
X760Y-1403D2*
X798Y-1383D1*
X856Y-1326D1*
Y-1728D1*
X-4024Y735D2*
X-4005Y678D1*
X-3947Y639D1*
X-3852Y620D1*
X-3794D1*
X-3699Y639D1*
X-3641Y678D1*
X-3622Y735D1*
Y773D1*
X-3641Y831D1*
X-3699Y869D1*
X-3794Y888D1*
X-3852D1*
X-3947Y869D1*
X-4005Y831D1*
X-4024Y773D1*
Y735D1*
X-3947Y869D2*
X-3699Y639D1*
X-3661Y1031D2*
X-3641Y1012D1*
X-3622Y1031D1*
X-3641Y1050D1*
X-3661Y1031D1*
X-3928Y1193D2*
X-3947D1*
X-3986Y1212D1*
X-4005Y1231D1*
X-4024Y1270D1*
Y1346D1*
X-4005Y1384D1*
X-3986Y1403D1*
X-3947Y1423D1*
X-3909D1*
X-3871Y1403D1*
X-3814Y1365D1*
X-3622Y1174D1*
Y1442D1*
X15353Y735D2*
X15372Y678D1*
X15430Y639D1*
X15525Y620D1*
X15583D1*
X15678Y639D1*
X15736Y678D1*
X15755Y735D1*
Y773D1*
X15736Y831D1*
X15678Y869D1*
X15583Y888D1*
X15525D1*
X15430Y869D1*
X15372Y831D1*
X15353Y773D1*
Y735D1*
X15430Y869D2*
X15678Y639D1*
X15716Y1031D2*
X15736Y1012D1*
X15755Y1031D1*
X15736Y1050D1*
X15716Y1031D1*
X15449Y1193D2*
X15430D1*
X15391Y1212D1*
X15372Y1231D1*
X15353Y1270D1*
Y1346D1*
X15372Y1384D1*
X15391Y1403D1*
X15430Y1423D1*
X15468D1*
X15506Y1403D1*
X15563Y1365D1*
X15755Y1174D1*
Y1442D1*
X-4024Y4735D2*
X-4005Y4678D1*
X-3947Y4639D1*
X-3852Y4620D1*
X-3794D1*
X-3699Y4639D1*
X-3641Y4678D1*
X-3622Y4735D1*
Y4773D1*
X-3641Y4831D1*
X-3699Y4869D1*
X-3794Y4888D1*
X-3852D1*
X-3947Y4869D1*
X-4005Y4831D1*
X-4024Y4773D1*
Y4735D1*
X-3947Y4869D2*
X-3699Y4639D1*
X-3661Y5031D2*
X-3641Y5012D1*
X-3622Y5031D1*
X-3641Y5050D1*
X-3661Y5031D1*
X-3928Y5193D2*
X-3947D1*
X-3986Y5212D1*
X-4005Y5231D1*
X-4024Y5270D1*
Y5346D1*
X-4005Y5384D1*
X-3986Y5403D1*
X-3947Y5423D1*
X-3909D1*
X-3871Y5403D1*
X-3814Y5365D1*
X-3622Y5174D1*
Y5442D1*
X17275Y5265D2*
X17256Y5322D1*
X17199Y5361D1*
X17103Y5380D1*
X17046D1*
X16950Y5361D1*
X16893Y5322D1*
X16874Y5265D1*
Y5227D1*
X16893Y5169D1*
X16950Y5131D1*
X17046Y5112D1*
X17103D1*
X17199Y5131D1*
X17256Y5169D1*
X17275Y5227D1*
Y5265D1*
X17199Y5131D2*
X16950Y5361D1*
X16912Y4969D2*
X16893Y4988D1*
X16874Y4969D1*
X16893Y4950D1*
X16912Y4969D1*
X17180Y4807D2*
X17199D1*
X17237Y4788D1*
X17256Y4769D1*
X17275Y4730D1*
Y4654D1*
X17256Y4616D1*
X17237Y4597D1*
X17199Y4577D1*
X17161D1*
X17122Y4597D1*
X17065Y4635D1*
X16874Y4826D1*
Y4558D1*
X15322Y8964D2*
X15264Y8945D1*
X15226Y8887D1*
X15207Y8792D1*
Y8734D1*
X15226Y8639D1*
X15264Y8581D1*
X15322Y8562D1*
X15360D1*
X15417Y8581D1*
X15455Y8639D1*
X15475Y8734D1*
Y8792D1*
X15455Y8887D1*
X15417Y8945D1*
X15360Y8964D1*
X15322D1*
X15455Y8887D2*
X15226Y8639D1*
X15617Y8601D2*
X15598Y8581D1*
X15617Y8562D1*
X15637Y8581D1*
X15617Y8601D1*
X15760Y8887D2*
X15799Y8907D1*
X15856Y8964D1*
Y8562D1*
X8227Y7184D2*
X8169Y7165D1*
X8131Y7107D1*
X8112Y7012D1*
Y6954D1*
X8131Y6859D1*
X8169Y6801D1*
X8227Y6782D1*
X8265D1*
X8322Y6801D1*
X8360Y6859D1*
X8380Y6954D1*
Y7012D1*
X8360Y7107D1*
X8322Y7165D1*
X8265Y7184D1*
X8227D1*
X8360Y7107D2*
X8131Y6859D1*
X8522Y6821D2*
X8503Y6801D1*
X8522Y6782D1*
X8542Y6801D1*
X8522Y6821D1*
X8780Y7184D2*
X8723Y7165D1*
X8684Y7107D1*
X8665Y7012D1*
Y6954D1*
X8684Y6859D1*
X8723Y6801D1*
X8780Y6782D1*
X8818D1*
X8876Y6801D1*
X8914Y6859D1*
X8933Y6954D1*
Y7012D1*
X8914Y7107D1*
X8876Y7165D1*
X8818Y7184D1*
X8780D1*
X8914Y7107D2*
X8684Y6859D1*
X9152Y7184D2*
X9095Y7165D1*
X9076Y7127D1*
Y7088D1*
X9095Y7050D1*
X9133Y7031D1*
X9210Y7012D1*
X9267Y6993D1*
X9305Y6954D1*
X9324Y6916D1*
Y6859D1*
X9305Y6821D1*
X9286Y6801D1*
X9229Y6782D1*
X9152D1*
X9095Y6801D1*
X9076Y6821D1*
X9057Y6859D1*
Y6916D1*
X9076Y6954D1*
X9114Y6993D1*
X9171Y7012D1*
X9248Y7031D1*
X9286Y7050D1*
X9305Y7088D1*
Y7127D1*
X9286Y7165D1*
X9229Y7184D1*
X9152D1*
X9524Y6782D2*
X9716Y7184D1*
X9448D1*
M02*
