G04 DipTrace 2.4.0.2*
%INTopSilk.gbr*%
%MOIN*%
%ADD10C,0.0098*%
%ADD33C,0.0077*%
%FSLAX44Y44*%
G04*
G70*
G90*
G75*
G01*
%LNTopSilk*%
%LPD*%
X3070Y6029D2*
D10*
X3306D1*
X3188Y6147D2*
Y5911D1*
X2188Y4730D2*
G02X2188Y4730I1000J0D01*
G01*
X3244Y191D2*
X3007D1*
X3125Y73D2*
Y309D1*
X2125Y1490D2*
G02X2125Y1490I1000J0D01*
G01*
X11244Y3321D2*
X11008D1*
X11126Y3203D2*
Y3439D1*
X10126Y4620D2*
G02X10126Y4620I1000J0D01*
G01*
X11244Y611D2*
X11008D1*
X11126Y493D2*
Y729D1*
X10126Y1910D2*
G02X10126Y1910I1000J0D01*
G01*
X500Y1500D2*
X1500D1*
Y4500D1*
X500D1*
Y1500D1*
X15502Y4500D2*
X14502D1*
Y1500D1*
X15502D1*
Y4500D1*
X13064Y2040D2*
X14064D1*
Y4040D1*
X13064D1*
Y2040D1*
X6751Y5129D2*
X4979D1*
Y1191D1*
X6751D1*
Y5129D1*
X6397D2*
Y1191D1*
X7625Y1231D2*
X9397D1*
Y5169D1*
X7625D1*
Y1231D1*
X7980D2*
Y5169D1*
X3230Y6760D2*
D33*
X3206Y6807D1*
X3158Y6855D1*
X3111Y6879D1*
X3015D1*
X2967Y6855D1*
X2919Y6807D1*
X2895Y6760D1*
X2871Y6688D1*
Y6568D1*
X2895Y6497D1*
X2919Y6449D1*
X2967Y6401D1*
X3015Y6377D1*
X3111D1*
X3158Y6401D1*
X3206Y6449D1*
X3230Y6497D1*
X3384Y6783D2*
X3432Y6807D1*
X3504Y6879D1*
Y6377D1*
X3060Y-216D2*
X3036Y-168D1*
X2988Y-120D1*
X2941Y-97D1*
X2845D1*
X2797Y-120D1*
X2749Y-168D1*
X2725Y-216D1*
X2701Y-288D1*
Y-408D1*
X2725Y-479D1*
X2749Y-527D1*
X2797Y-575D1*
X2845Y-599D1*
X2941D1*
X2988Y-575D1*
X3036Y-527D1*
X3060Y-479D1*
X3239Y-217D2*
Y-193D1*
X3262Y-145D1*
X3286Y-121D1*
X3334Y-97D1*
X3430D1*
X3477Y-121D1*
X3501Y-145D1*
X3526Y-193D1*
Y-240D1*
X3501Y-288D1*
X3454Y-360D1*
X3214Y-599D1*
X3549D1*
X11061Y6233D2*
X11037Y6280D1*
X10989Y6328D1*
X10941Y6352D1*
X10846D1*
X10798Y6328D1*
X10750Y6280D1*
X10726Y6233D1*
X10702Y6161D1*
Y6041D1*
X10726Y5970D1*
X10750Y5922D1*
X10798Y5874D1*
X10846Y5850D1*
X10941D1*
X10989Y5874D1*
X11037Y5922D1*
X11061Y5970D1*
X11263Y6352D2*
X11526D1*
X11383Y6160D1*
X11455D1*
X11502Y6137D1*
X11526Y6113D1*
X11550Y6041D1*
Y5993D1*
X11526Y5922D1*
X11478Y5874D1*
X11406Y5850D1*
X11335D1*
X11263Y5874D1*
X11240Y5898D1*
X11215Y5945D1*
X11049Y204D2*
X11025Y252D1*
X10977Y300D1*
X10930Y323D1*
X10834D1*
X10786Y300D1*
X10738Y252D1*
X10714Y204D1*
X10690Y132D1*
Y12D1*
X10714Y-59D1*
X10738Y-107D1*
X10786Y-155D1*
X10834Y-179D1*
X10930D1*
X10977Y-155D1*
X11025Y-107D1*
X11049Y-59D1*
X11443Y-179D2*
Y323D1*
X11203Y-12D1*
X11562D1*
X733Y937D2*
Y554D1*
X709Y482D1*
X685Y459D1*
X637Y434D1*
X589D1*
X541Y459D1*
X518Y482D1*
X493Y554D1*
Y602D1*
X887Y841D2*
X935Y865D1*
X1007Y936D1*
Y434D1*
X15127Y937D2*
Y554D1*
X15103Y482D1*
X15078Y459D1*
X15031Y434D1*
X14983D1*
X14935Y459D1*
X14912Y482D1*
X14887Y554D1*
Y602D1*
X15305Y817D2*
Y841D1*
X15329Y889D1*
X15353Y912D1*
X15401Y936D1*
X15497D1*
X15544Y912D1*
X15568Y889D1*
X15592Y841D1*
Y793D1*
X15568Y745D1*
X15520Y674D1*
X15281Y434D1*
X15616D1*
X13177Y1477D2*
Y1094D1*
X13153Y1022D1*
X13129Y999D1*
X13081Y974D1*
X13033D1*
X12986Y999D1*
X12962Y1022D1*
X12938Y1094D1*
Y1142D1*
X13571Y974D2*
Y1476D1*
X13331Y1142D1*
X13690D1*
X5453Y1022D2*
Y663D1*
X5477Y591D1*
X5525Y544D1*
X5597Y520D1*
X5644D1*
X5716Y544D1*
X5764Y591D1*
X5788Y663D1*
Y1022D1*
X5967Y902D2*
Y926D1*
X5991Y974D1*
X6014Y998D1*
X6062Y1021D1*
X6158D1*
X6206Y998D1*
X6229Y974D1*
X6254Y926D1*
Y878D1*
X6229Y830D1*
X6182Y759D1*
X5942Y520D1*
X6277D1*
X8099Y1062D2*
Y703D1*
X8123Y631D1*
X8171Y584D1*
X8243Y560D1*
X8290D1*
X8362Y584D1*
X8410Y631D1*
X8434Y703D1*
Y1062D1*
X8637Y1061D2*
X8899D1*
X8756Y870D1*
X8828D1*
X8875Y846D1*
X8899Y823D1*
X8923Y751D1*
Y703D1*
X8899Y631D1*
X8852Y583D1*
X8780Y560D1*
X8708D1*
X8637Y583D1*
X8613Y608D1*
X8588Y655D1*
M02*
