M48
INCH
T01C0.03
T02C0.045
T03C0.116
%
T01
X+022054Y+015700
X+024301Y+014848
X+017904Y+016400
X+032193Y+023550
X+040588Y+028020
X+043292Y+029796
X+039189Y+015322
X+027101Y+041562
T02
X+013816Y+008130
X+013816Y+009130
X+013816Y+010130
X+013816Y+011130
X+016004Y+011700
X+018504Y+011650
X+020754Y+009190
X+023005Y+009020
X+023005Y+008020
X+023005Y+010020
X+023005Y+011020
X+022442Y+013850
X+023005Y+017620
X+024005Y+017620
X+025005Y+017620
X+026005Y+017620
X+027005Y+017620
X+028005Y+017620
X+029005Y+017620
X+030005Y+017620
X+028255Y+015530
X+026442Y+013850
X+026005Y+011020
X+026005Y+010020
X+026005Y+009020
X+026005Y+008020
X+028255Y+008380
X+028255Y+006380
X+026505Y+005170
X+022505Y+005170
X+020754Y+005190
X+018504Y+007650
X+016004Y+008460
X+016004Y+006460
X+014378Y+005230
X+010378Y+005230
X+008565Y+005220
X+006315Y+007590
X+008565Y+009220
X+010816Y+009130
X+010816Y+008130
X+010816Y+010130
X+010816Y+011130
X+010253Y+014100
X+014253Y+014100
X+016004Y+015700
X+013754Y+019690
X+013046Y+020397
X+012339Y+021104
X+011632Y+021811
X+005878Y+021380
X+005878Y+020380
X+006065Y+023990
X+006065Y+024990
X+006065Y+025990
X+006065Y+026990
X+005815Y+015190
X+005815Y+014190
X+006315Y+011590
X+023005Y+023620
X+024005Y+023620
X+025005Y+023620
X+026005Y+023620
X+027005Y+023620
X+028005Y+023620
X+029005Y+023620
X+030005Y+023620
X+027317Y+025070
X+030068Y+026730
X+032693Y+027300
X+033693Y+027300
X+034693Y+027300
X+035693Y+027300
X+036693Y+027300
X+037693Y+027300
X+038693Y+027300
X+039693Y+027300
X+038256Y+025756
X+040756Y+024880
X+040756Y+023880
X+040756Y+022880
X+043132Y+021920
X+043132Y+020060
X+040756Y+019000
X+040756Y+018000
X+040756Y+017000
X+043132Y+016060
X+043132Y+014760
X+040756Y+013790
X+040756Y+012790
X+040756Y+011790
X+043132Y+010760
X+043194Y+009390
X+045882Y+009250
X+045882Y+010250
X+045882Y+012950
X+045882Y+013950
X+045819Y+020280
X+045819Y+021280
X+045944Y+024350
X+045944Y+025350
X+045944Y+026350
X+045944Y+027350
X+046339Y+029323
X+045632Y+030030
X+043233Y+032276
X+042526Y+032983
X+041819Y+033690
X+039693Y+033300
X+038693Y+033300
X+037693Y+033300
X+036693Y+033300
X+035693Y+033300
X+034693Y+033300
X+033693Y+033300
X+032693Y+033300
X+033631Y+034580
X+036459Y+037408
X+037881Y+035720
X+038881Y+035720
X+030744Y+038734
X+030037Y+038027
X+029329Y+037320
X+028622Y+036613
X+027915Y+035906
X+027208Y+035198
X+026501Y+034491
X+025794Y+033784
X+025087Y+033077
X+024380Y+032370
X+027317Y+029070
X+030068Y+030730
X+033193Y+024390
X+033193Y+020390
X+038194Y+019946
X+038256Y+021780
X+038194Y+015970
X+038193Y+014726
X+035631Y+015020
X+035193Y+012850
X+035193Y+011850
X+035193Y+010850
X+035193Y+009850
X+034693Y+007260
X+032693Y+007260
X+031693Y+005120
X+035693Y+005120
X+038194Y+005370
X+040756Y+006170
X+040756Y+007170
X+040756Y+008170
X+038194Y+009346
X+038193Y+010750
X+032193Y+010850
X+032193Y+011850
X+032193Y+012850
X+031631Y+015020
X+028255Y+011530
X+032193Y+009850
X+043194Y+005390
X+045882Y+005710
X+045882Y+006710
X+043132Y+025920
X+026501Y+042977
X+025794Y+042270
X+025087Y+041562
X+024380Y+040855
X+023673Y+040148
X+022965Y+039441
X+022258Y+038734
X+021551Y+038027
X+020844Y+037320
X+020137Y+036613
T03
X+026090Y+046370
X+006440Y+017690
X+045740Y+017690
T00
M30
