M48
INCH
T01C0.03
T02C0.04
%
T01
X+037579Y+018630
X+036129Y+022890
X+041529Y+022890
X+030790Y+020030
X+030318Y+021090
X+027840Y+021990
X+028690Y+016540
X+019789Y+018630
X+011751Y+020630
X+011751Y+013780
X+023754Y+026090
X+021702Y+028090
X+037942Y+011590
X+042317Y+008910
T02
X+022565Y+009200
X+025628Y+008020
X+025628Y+007020
X+025628Y+006020
X+028503Y+005200
X+031441Y+005170
X+034316Y+006030
X+034316Y+007030
X+034316Y+008030
X+036754Y+009220
X+036129Y+012670
X+035129Y+012670
X+034129Y+012670
X+030816Y+012590
X+031441Y+009170
X+028503Y+009200
X+026816Y+012590
X+019939Y+015480
X+018939Y+015480
X+017939Y+015480
X+016939Y+015480
X+015939Y+015480
X+014939Y+015480
X+013939Y+015480
X+012939Y+015480
X+015002Y+012710
X+016002Y+012710
X+017002Y+012710
X+018002Y+012710
X+017752Y+010670
X+015752Y+009730
X+015752Y+008730
X+015752Y+007730
X+017752Y+006670
X+017314Y+005400
X+016314Y+005400
X+013189Y+006050
X+012126Y+008220
X+011126Y+008220
X+010126Y+008220
X+009189Y+006050
X+010751Y+010620
X+011751Y+010620
X+020065Y+006480
X+020065Y+005480
X+022565Y+005200
X+036754Y+005220
X+040504Y+005260
X+041504Y+005260
X+042317Y+006360
X+040254Y+006950
X+040254Y+007950
X+040254Y+008950
X+042317Y+010360
X+042817Y+012950
X+041817Y+012950
X+040817Y+012950
X+039817Y+012950
X+039942Y+015090
X+038942Y+015090
X+037942Y+015090
X+040942Y+015090
X+041942Y+015090
X+042942Y+015090
X+043942Y+015090
X+044942Y+015090
X+049193Y+014970
X+049193Y+013970
X+049130Y+016810
X+049130Y+020810
X+049380Y+023870
X+048380Y+023870
X+047380Y+023870
X+044629Y+023850
X+043629Y+023850
X+042629Y+023850
X+042942Y+021090
X+043942Y+021090
X+044942Y+021090
X+041942Y+021090
X+040942Y+021090
X+039942Y+021090
X+038942Y+021090
X+037942Y+021090
X+037879Y+024440
X+037879Y+025440
X+037879Y+026440
X+037879Y+027440
X+037879Y+028440
X+037879Y+029440
X+037879Y+030440
X+037879Y+031440
X+037879Y+032440
X+037879Y+033440
X+041192Y+032740
X+041317Y+030760
X+041317Y+028760
X+043755Y+031270
X+044817Y+029440
X+044817Y+027440
X+043755Y+035270
X+041192Y+036740
X+032940Y+036490
X+032940Y+035490
X+032940Y+034490
X+032940Y+033490
X+032940Y+032490
X+032940Y+031490
X+032940Y+030490
X+032940Y+029490
X+026940Y+029490
X+026940Y+030490
X+026940Y+031490
X+026940Y+032490
X+026940Y+033490
X+026940Y+034490
X+026940Y+035490
X+026940Y+036490
X+026940Y+037490
X+026940Y+038490
X+027815Y+044100
X+025815Y+044100
X+025815Y+046100
X+027815Y+048100
X+030816Y+046200
X+030816Y+045200
X+030816Y+044200
X+032940Y+038490
X+032940Y+037490
X+020252Y+034090
X+020252Y+033090
X+020252Y+032090
X+020252Y+031090
X+020252Y+030090
X+020252Y+029090
X+020252Y+028090
X+020252Y+027090
X+020252Y+026090
X+020252Y+025090
X+017314Y+025160
X+016627Y+027220
X+015627Y+027220
X+014627Y+027220
X+013314Y+025160
X+012939Y+021480
X+013939Y+021480
X+014939Y+021480
X+015939Y+021480
X+016939Y+021480
X+017939Y+021480
X+018939Y+021480
X+019939Y+021480
X+016502Y+029570
X+015502Y+029570
X+015502Y+032660
X+015502Y+036660
X+017564Y+036620
X+017564Y+037620
X+008251Y+027700
X+008251Y+026700
X+008251Y+025700
X+008251Y+024700
X+046067Y+008060
X+046067Y+006060
X+048380Y+006040
X+048380Y+010040
T00
M30
