G04 DipTrace 2.4.0.2*
%INTop.gbr*%
%MOIN*%
%ADD13C,0.03*%
%ADD14C,0.04*%
%ADD15C,0.01*%
%ADD16C,0.08*%
%ADD17R,0.08X0.08*%
%ADD18C,0.08*%
%FSLAX44Y44*%
G04*
G70*
G90*
G75*
G01*
%LNTop*%
%LPD*%
X28503Y9200D2*
D13*
X29373Y10070D1*
X40867D1*
X41467Y9470D1*
Y5297D1*
X41504Y5260D1*
X19789Y18630D2*
X37579D1*
X11751Y20630D2*
Y13780D1*
X31441Y9170D2*
D14*
X30291Y8020D1*
X25628D1*
X42629Y23850D2*
D13*
Y24720D1*
X46530D1*
X47380Y23870D1*
X41529Y22890D2*
X36129D1*
X18939Y21480D2*
Y20630D1*
X19539Y20030D1*
X30790D1*
X42942Y21090D2*
X43942D1*
X30790Y20030D2*
X42942D1*
Y21090D1*
X40254Y8950D2*
X39300D1*
X38230Y7880D1*
X36166D1*
X35166Y8880D1*
X33391D1*
X31191Y6680D1*
X29983D1*
X28503Y5200D1*
X26493D1*
X26463Y5170D1*
X24590D1*
X22240Y7520D1*
X17202D1*
X16602Y8120D1*
Y10870D1*
X16002Y11470D1*
X8851D1*
X8251Y12070D1*
Y24700D1*
X17752Y10670D2*
X18842D1*
X20762Y12590D1*
X26816D1*
X23754Y26090D2*
Y25640D1*
X24154Y25240D1*
X25104D1*
X25704Y25840D1*
Y30490D1*
X26940D1*
X20252Y26090D2*
X14244D1*
X13314Y25160D1*
X25815Y46100D2*
X28716D1*
X28816Y46200D1*
X30816D1*
X44629Y23850D2*
X45839Y22640D1*
X47300D1*
X49130Y20810D1*
X26816Y12590D2*
X27816Y11590D1*
X37942D1*
X13314Y25160D2*
X10512D1*
X9972Y25700D1*
X8251D1*
X22565Y5200D2*
D14*
X21195D1*
X20915Y5480D1*
X20065D1*
X8251Y26700D2*
X9332D1*
X9852Y27220D1*
X14627D1*
X31441Y5170D2*
X32301Y6030D1*
X34316D1*
X20065Y5480D2*
X19084Y4500D1*
X14902D1*
X14252Y5150D1*
Y9120D1*
X10526D1*
X10126Y8720D1*
Y8220D1*
X14252Y9120D2*
Y10580D1*
X15352D1*
X15752Y10180D1*
Y9730D1*
X18939Y15480D2*
D13*
Y14400D1*
X19539Y13800D1*
X43942D1*
Y15090D1*
X32940Y31490D2*
X33790D1*
X34390Y30890D1*
Y27040D1*
X34990Y26440D1*
X37879D1*
X46067Y6060D2*
X46087Y6040D1*
X48380D1*
X46067Y6060D2*
D3*
X37879Y26440D2*
X49630D1*
X50230Y25840D1*
Y10223D1*
X46067Y6060D1*
X32940Y30490D2*
X33390D1*
X33790Y30090D1*
Y26040D1*
X34390Y25440D1*
X37879D1*
X27815Y44100D2*
X25815D1*
X20252Y33090D2*
X20702D1*
X21102Y33490D1*
Y36890D1*
X21702Y37490D1*
X26940D1*
X37879Y28440D2*
X36190D1*
X35590Y29040D1*
Y32890D1*
X34990Y33490D1*
X32940D1*
X32090D1*
X31490Y32890D1*
Y23440D1*
X30890Y22840D1*
X13939D1*
Y21480D1*
X16627Y27220D2*
D14*
X18002D1*
Y29440D1*
X18652Y30090D1*
X20252D1*
X22302D1*
X22952Y30740D1*
Y33840D1*
X23602Y34490D1*
X26940D1*
Y36490D2*
D13*
X22302D1*
X21702Y35890D1*
Y32690D1*
X21102Y32090D1*
X20252D1*
X17952D1*
X17352Y31490D1*
Y28550D1*
X7803D1*
X7203Y27950D1*
Y7500D1*
X7803Y6900D1*
X12126D1*
Y8220D1*
X26940Y38490D2*
X20852D1*
X20252Y37890D1*
Y34090D1*
X30318Y21090D2*
X37942D1*
X37879Y27440D2*
X35590D1*
X34990Y28040D1*
Y31890D1*
X34390Y32490D1*
X32940D1*
X20252Y27090D2*
X24252D1*
X24852Y27690D1*
Y30890D1*
X25452Y31490D1*
X26940D1*
X28065D1*
X28665Y32090D1*
Y44600D1*
X29265Y45200D1*
X30816D1*
X42317Y8910D2*
X45792Y12385D1*
Y15940D1*
X45192Y16540D1*
X28690D1*
X26940Y35490D2*
X22902D1*
X22302Y34890D1*
Y31690D1*
X21702Y31090D1*
X20252D1*
X21702Y28090D2*
X23652D1*
X24252Y28690D1*
Y31890D1*
X24852Y32490D1*
X26940D1*
X17564Y36620D2*
X15542D1*
X15502Y36660D1*
X26940Y33490D2*
D14*
X24252D1*
X23602Y32840D1*
Y29740D1*
X22952Y29090D1*
X20252D1*
X49130Y16810D2*
X46442Y19498D1*
Y21340D1*
X45792Y21990D1*
X27840D1*
X44942Y15090D2*
D13*
Y15540D1*
X44542Y15940D1*
X35986D1*
X35526Y15480D1*
X19939D1*
D16*
X37579Y18630D3*
X19789D3*
X11751Y13780D3*
Y20630D3*
X36129Y22890D3*
X41529D3*
X30790Y20030D3*
X37942Y11590D3*
X23754Y26090D3*
X30318Y21090D3*
X28690Y16540D3*
X42317Y8910D3*
X21702Y28090D3*
X27840Y21990D3*
X28747Y50521D2*
D15*
X28885D1*
X28649Y50423D2*
X28984D1*
X28549Y50324D2*
X29084D1*
X28451Y50225D2*
X29184D1*
X28352Y50127D2*
X29284D1*
X28254Y50028D2*
X29382D1*
X28155Y49929D2*
X29482D1*
X28055Y49830D2*
X29582D1*
X27957Y49732D2*
X29682D1*
X27858Y49633D2*
X29781D1*
X27760Y49534D2*
X29881D1*
X27660Y49436D2*
X29981D1*
X27562Y49337D2*
X30081D1*
X27463Y49238D2*
X30179D1*
X27365Y49140D2*
X30279D1*
X27265Y49041D2*
X30379D1*
X27166Y48942D2*
X30477D1*
X27068Y48844D2*
X27681D1*
X27949D2*
X30577D1*
X26969Y48745D2*
X27415D1*
X28216D2*
X30677D1*
X26871Y48646D2*
X27285D1*
X28344D2*
X30777D1*
X26771Y48548D2*
X27199D1*
X28432D2*
X30876D1*
X26672Y48449D2*
X27137D1*
X28493D2*
X30976D1*
X26574Y48350D2*
X27095D1*
X28537D2*
X31076D1*
X26476Y48251D2*
X27067D1*
X28563D2*
X31176D1*
X26376Y48153D2*
X27052D1*
X28577D2*
X31274D1*
X26277Y48054D2*
X27052D1*
X28577D2*
X31374D1*
X26179Y47955D2*
X27065D1*
X28565D2*
X31474D1*
X26080Y47857D2*
X27092D1*
X28538D2*
X31574D1*
X25982Y47758D2*
X27134D1*
X28497D2*
X31673D1*
X25882Y47659D2*
X27193D1*
X28437D2*
X31773D1*
X25783Y47561D2*
X27279D1*
X28352D2*
X31873D1*
X25685Y47462D2*
X27404D1*
X28227D2*
X31973D1*
X25587Y47363D2*
X27645D1*
X27985D2*
X32071D1*
X25487Y47265D2*
X32171D1*
X25388Y47166D2*
X32271D1*
X25290Y47067D2*
X32371D1*
X25191Y46969D2*
X32470D1*
X25093Y46870D2*
X30460D1*
X31171D2*
X32570D1*
X24993Y46771D2*
X25052D1*
X26579D2*
X30313D1*
X31318D2*
X32670D1*
X24894Y46672D2*
X25051D1*
X26579D2*
X28631D1*
X31413D2*
X32770D1*
X24796Y46574D2*
X25051D1*
X31480D2*
X32868D1*
X24697Y46475D2*
X25051D1*
X31527D2*
X32968D1*
X24597Y46376D2*
X25051D1*
X31558D2*
X33068D1*
X24499Y46278D2*
X25051D1*
X31576D2*
X33168D1*
X24401Y46179D2*
X25051D1*
X31579D2*
X33267D1*
X24302Y46080D2*
X25051D1*
X31569D2*
X33367D1*
X24204Y45982D2*
X25051D1*
X31547D2*
X33467D1*
X24104Y45883D2*
X25051D1*
X31510D2*
X33567D1*
X24005Y45784D2*
X25051D1*
X31455D2*
X33665D1*
X23907Y45686D2*
X25051D1*
X29013D2*
X29121D1*
X31402D2*
X33765D1*
X23808Y45587D2*
X25051D1*
X26579D2*
X28932D1*
X31472D2*
X33865D1*
X23708Y45488D2*
X25051D1*
X26579D2*
X28831D1*
X31522D2*
X33965D1*
X23610Y45390D2*
X25051D1*
X26579D2*
X28732D1*
X31555D2*
X34063D1*
X23512Y45291D2*
X28634D1*
X31574D2*
X34163D1*
X23413Y45192D2*
X28535D1*
X31580D2*
X34263D1*
X23313Y45093D2*
X28437D1*
X31572D2*
X34363D1*
X23215Y44995D2*
X28337D1*
X31551D2*
X34462D1*
X23116Y44896D2*
X28248D1*
X31580D2*
X34562D1*
X23018Y44797D2*
X25520D1*
X26112D2*
X27520D1*
X28112D2*
X28192D1*
X31580D2*
X34662D1*
X22919Y44699D2*
X25348D1*
X26283D2*
X27348D1*
X31580D2*
X34762D1*
X22819Y44600D2*
X25242D1*
X29388D2*
X30052D1*
X31580D2*
X34860D1*
X22721Y44501D2*
X25167D1*
X29290D2*
X30052D1*
X31580D2*
X34960D1*
X22622Y44403D2*
X25115D1*
X29191D2*
X30052D1*
X31580D2*
X35060D1*
X22524Y44304D2*
X25079D1*
X29179D2*
X30052D1*
X31580D2*
X35160D1*
X22424Y44205D2*
X25059D1*
X29179D2*
X30052D1*
X31580D2*
X35259D1*
X22326Y44107D2*
X25051D1*
X29179D2*
X30052D1*
X31580D2*
X35359D1*
X22227Y44008D2*
X25057D1*
X29179D2*
X30052D1*
X31580D2*
X35459D1*
X22129Y43909D2*
X25076D1*
X29179D2*
X30052D1*
X31580D2*
X35559D1*
X22030Y43811D2*
X25109D1*
X29179D2*
X30052D1*
X31580D2*
X35657D1*
X21930Y43712D2*
X25159D1*
X29179D2*
X30052D1*
X31580D2*
X35757D1*
X21832Y43613D2*
X25229D1*
X29179D2*
X30052D1*
X31580D2*
X35857D1*
X21733Y43514D2*
X25331D1*
X26301D2*
X27331D1*
X29179D2*
X30052D1*
X31580D2*
X35957D1*
X21635Y43416D2*
X25488D1*
X26141D2*
X27488D1*
X29179D2*
X36056D1*
X21535Y43317D2*
X28151D1*
X29179D2*
X36156D1*
X21437Y43218D2*
X28151D1*
X29179D2*
X36256D1*
X21338Y43120D2*
X28151D1*
X29179D2*
X36356D1*
X21240Y43021D2*
X28151D1*
X29179D2*
X36454D1*
X21141Y42922D2*
X28151D1*
X29179D2*
X36554D1*
X21041Y42824D2*
X28151D1*
X29179D2*
X36654D1*
X20943Y42725D2*
X28151D1*
X29179D2*
X36754D1*
X20844Y42626D2*
X28151D1*
X29179D2*
X36852D1*
X20746Y42528D2*
X28151D1*
X29179D2*
X36952D1*
X20646Y42429D2*
X28151D1*
X29179D2*
X37052D1*
X20547Y42330D2*
X28151D1*
X29179D2*
X37152D1*
X20449Y42232D2*
X28151D1*
X29179D2*
X37251D1*
X20351Y42133D2*
X28151D1*
X29179D2*
X37351D1*
X20252Y42034D2*
X28151D1*
X29179D2*
X37451D1*
X20152Y41935D2*
X28151D1*
X29179D2*
X37551D1*
X20054Y41837D2*
X28151D1*
X29179D2*
X37649D1*
X19955Y41738D2*
X28151D1*
X29179D2*
X37749D1*
X19857Y41639D2*
X28151D1*
X29179D2*
X37849D1*
X19757Y41541D2*
X28151D1*
X29179D2*
X37949D1*
X19658Y41442D2*
X28151D1*
X29179D2*
X38048D1*
X19560Y41343D2*
X28151D1*
X29179D2*
X38148D1*
X19462Y41245D2*
X28151D1*
X29179D2*
X38248D1*
X19362Y41146D2*
X28151D1*
X29179D2*
X38348D1*
X19263Y41047D2*
X28151D1*
X29179D2*
X38446D1*
X19165Y40949D2*
X28151D1*
X29179D2*
X38546D1*
X19066Y40850D2*
X28151D1*
X29179D2*
X38646D1*
X18968Y40751D2*
X28151D1*
X29179D2*
X38746D1*
X18868Y40653D2*
X28151D1*
X29179D2*
X38845D1*
X18769Y40554D2*
X28151D1*
X29179D2*
X38945D1*
X18671Y40455D2*
X28151D1*
X29179D2*
X39045D1*
X18572Y40356D2*
X28151D1*
X29179D2*
X39145D1*
X18474Y40258D2*
X28151D1*
X29179D2*
X39243D1*
X18374Y40159D2*
X28151D1*
X29179D2*
X39343D1*
X18276Y40060D2*
X28151D1*
X29179D2*
X39443D1*
X18177Y39962D2*
X28151D1*
X29179D2*
X39542D1*
X18079Y39863D2*
X28151D1*
X29179D2*
X39642D1*
X17979Y39764D2*
X28151D1*
X29179D2*
X39742D1*
X17880Y39666D2*
X28151D1*
X29179D2*
X39842D1*
X17782Y39567D2*
X28151D1*
X29179D2*
X39940D1*
X17683Y39468D2*
X28151D1*
X29179D2*
X40040D1*
X17583Y39370D2*
X28151D1*
X29179D2*
X40140D1*
X17485Y39271D2*
X28151D1*
X29179D2*
X40240D1*
X17387Y39172D2*
X26609D1*
X27271D2*
X28151D1*
X29179D2*
X32609D1*
X33271D2*
X40338D1*
X17288Y39074D2*
X26452D1*
X27427D2*
X28151D1*
X29179D2*
X32452D1*
X33427D2*
X40438D1*
X17190Y38975D2*
X20706D1*
X27527D2*
X28151D1*
X29179D2*
X32352D1*
X33527D2*
X40538D1*
X17090Y38876D2*
X20518D1*
X27597D2*
X28151D1*
X29179D2*
X32282D1*
X33597D2*
X40638D1*
X16991Y38777D2*
X20417D1*
X27647D2*
X28151D1*
X29179D2*
X32234D1*
X33647D2*
X40737D1*
X16893Y38679D2*
X20318D1*
X27680D2*
X28151D1*
X29179D2*
X32201D1*
X33680D2*
X40837D1*
X16794Y38580D2*
X20220D1*
X27699D2*
X28151D1*
X29179D2*
X32182D1*
X33699D2*
X40937D1*
X16694Y38481D2*
X20121D1*
X27704D2*
X28151D1*
X29179D2*
X32176D1*
X33704D2*
X41037D1*
X16596Y38383D2*
X20023D1*
X27696D2*
X28151D1*
X29179D2*
X32184D1*
X33696D2*
X41135D1*
X16497Y38284D2*
X17198D1*
X17932D2*
X19924D1*
X27676D2*
X28151D1*
X29179D2*
X32206D1*
X33676D2*
X41235D1*
X16399Y38185D2*
X17056D1*
X18072D2*
X19834D1*
X27640D2*
X28151D1*
X29179D2*
X32240D1*
X33640D2*
X41335D1*
X16301Y38087D2*
X16962D1*
X18166D2*
X19777D1*
X27587D2*
X28151D1*
X29179D2*
X32293D1*
X33587D2*
X41435D1*
X16201Y37988D2*
X16896D1*
X18232D2*
X19748D1*
X27516D2*
X28151D1*
X29179D2*
X32363D1*
X33516D2*
X41534D1*
X16102Y37889D2*
X16851D1*
X18279D2*
X19738D1*
X27590D2*
X28151D1*
X29179D2*
X32290D1*
X33590D2*
X41634D1*
X16004Y37791D2*
X16820D1*
X18308D2*
X19738D1*
X27641D2*
X28151D1*
X29179D2*
X32238D1*
X33641D2*
X41734D1*
X15905Y37692D2*
X16804D1*
X18324D2*
X19738D1*
X27676D2*
X28151D1*
X29179D2*
X32204D1*
X33676D2*
X41834D1*
X15805Y37593D2*
X16801D1*
X18327D2*
X19738D1*
X27697D2*
X28151D1*
X29179D2*
X32184D1*
X33697D2*
X41932D1*
X15707Y37495D2*
X16810D1*
X18318D2*
X19738D1*
X27704D2*
X28151D1*
X29179D2*
X32176D1*
X33704D2*
X42032D1*
X15676Y37396D2*
X16835D1*
X18294D2*
X19738D1*
X27697D2*
X28151D1*
X29179D2*
X32182D1*
X33697D2*
X40810D1*
X41574D2*
X42132D1*
X15915Y37297D2*
X16801D1*
X18329D2*
X19738D1*
X27679D2*
X28151D1*
X29179D2*
X32201D1*
X33679D2*
X40674D1*
X41710D2*
X42232D1*
X16040Y37198D2*
X16801D1*
X18329D2*
X19738D1*
X27646D2*
X28151D1*
X29179D2*
X32235D1*
X33646D2*
X40584D1*
X41801D2*
X42331D1*
X18329Y37100D2*
X19738D1*
X27594D2*
X28151D1*
X29179D2*
X32285D1*
X33594D2*
X40520D1*
X41865D2*
X42431D1*
X18329Y37001D2*
X19738D1*
X27524D2*
X28151D1*
X29179D2*
X32356D1*
X33524D2*
X40474D1*
X41908D2*
X42531D1*
X18329Y36902D2*
X19738D1*
X27582D2*
X28151D1*
X29179D2*
X32299D1*
X33582D2*
X40446D1*
X41938D2*
X42631D1*
X18329Y36804D2*
X19738D1*
X27635D2*
X28151D1*
X29179D2*
X32245D1*
X33635D2*
X40431D1*
X41954D2*
X42729D1*
X18329Y36705D2*
X19738D1*
X27672D2*
X28151D1*
X29179D2*
X32207D1*
X33672D2*
X40429D1*
X41955D2*
X42829D1*
X18329Y36606D2*
X19738D1*
X27694D2*
X28151D1*
X29179D2*
X32185D1*
X33694D2*
X40440D1*
X41944D2*
X42929D1*
X14719Y36508D2*
X14754D1*
X18329D2*
X19738D1*
X27704D2*
X28151D1*
X29179D2*
X32176D1*
X33704D2*
X40465D1*
X41919D2*
X43029D1*
X14621Y36409D2*
X14781D1*
X18329D2*
X19738D1*
X27699D2*
X28151D1*
X29179D2*
X32181D1*
X33699D2*
X40504D1*
X41879D2*
X43127D1*
X14521Y36310D2*
X14824D1*
X18329D2*
X19738D1*
X27682D2*
X28151D1*
X29179D2*
X32198D1*
X33682D2*
X40562D1*
X41821D2*
X43227D1*
X14422Y36212D2*
X14885D1*
X18329D2*
X19738D1*
X27651D2*
X28151D1*
X29179D2*
X32229D1*
X33651D2*
X40645D1*
X41740D2*
X43327D1*
X14324Y36113D2*
X14973D1*
X16030D2*
X16801D1*
X18329D2*
X19738D1*
X27602D2*
X28151D1*
X29179D2*
X32277D1*
X33602D2*
X40763D1*
X41621D2*
X43427D1*
X14226Y36014D2*
X15102D1*
X15901D2*
X16801D1*
X18329D2*
X19738D1*
X27535D2*
X28151D1*
X29179D2*
X32345D1*
X33535D2*
X40977D1*
X41405D2*
X43526D1*
X14127Y35916D2*
X15373D1*
X15630D2*
X16801D1*
X18329D2*
X19738D1*
X27572D2*
X28151D1*
X29179D2*
X32307D1*
X33572D2*
X43356D1*
X14027Y35817D2*
X19738D1*
X27629D2*
X28151D1*
X29179D2*
X32251D1*
X33629D2*
X43226D1*
X13929Y35718D2*
X19738D1*
X27668D2*
X28151D1*
X29179D2*
X32212D1*
X33668D2*
X43138D1*
X13830Y35619D2*
X19738D1*
X27693D2*
X28151D1*
X29179D2*
X32187D1*
X33693D2*
X43076D1*
X13732Y35521D2*
X19738D1*
X27704D2*
X28151D1*
X29179D2*
X32177D1*
X33704D2*
X43034D1*
X13632Y35422D2*
X19738D1*
X27701D2*
X28151D1*
X29179D2*
X32179D1*
X33701D2*
X43006D1*
X13533Y35323D2*
X19738D1*
X27685D2*
X28151D1*
X29179D2*
X32195D1*
X33685D2*
X42993D1*
X13435Y35225D2*
X19738D1*
X27655D2*
X28151D1*
X29179D2*
X32224D1*
X33655D2*
X42992D1*
X13337Y35126D2*
X19738D1*
X27610D2*
X28151D1*
X29179D2*
X32270D1*
X33610D2*
X43004D1*
X13238Y35027D2*
X19738D1*
X27546D2*
X28151D1*
X29179D2*
X32335D1*
X33546D2*
X43031D1*
X44479D2*
X44522D1*
X13138Y34929D2*
X19738D1*
X27501D2*
X28151D1*
X29179D2*
X32317D1*
X33563D2*
X43073D1*
X44437D2*
X44623D1*
X13040Y34830D2*
X19488D1*
X27566D2*
X28151D1*
X29179D2*
X32257D1*
X33622D2*
X43132D1*
X44377D2*
X44721D1*
X12941Y34731D2*
X19488D1*
X27612D2*
X28151D1*
X29179D2*
X32217D1*
X33665D2*
X43217D1*
X44291D2*
X44821D1*
X12843Y34633D2*
X19488D1*
X27640D2*
X28151D1*
X29179D2*
X32190D1*
X33690D2*
X43342D1*
X44168D2*
X44921D1*
X12743Y34534D2*
X19488D1*
X27652D2*
X28151D1*
X29179D2*
X32177D1*
X33702D2*
X43582D1*
X43927D2*
X45021D1*
X12644Y34435D2*
X19488D1*
X27652D2*
X28151D1*
X29179D2*
X32177D1*
X33702D2*
X45120D1*
X12546Y34337D2*
X19488D1*
X27637D2*
X28151D1*
X29179D2*
X32192D1*
X33688D2*
X45220D1*
X12447Y34238D2*
X19488D1*
X27607D2*
X28151D1*
X29179D2*
X32220D1*
X33660D2*
X45320D1*
X12349Y34139D2*
X19488D1*
X27560D2*
X28151D1*
X29179D2*
X32263D1*
X33618D2*
X37587D1*
X38171D2*
X45420D1*
X12249Y34040D2*
X19488D1*
X27491D2*
X28151D1*
X29179D2*
X32324D1*
X33555D2*
X37413D1*
X38344D2*
X45518D1*
X12151Y33942D2*
X19488D1*
X27490D2*
X28151D1*
X29179D2*
X31857D1*
X35222D2*
X37306D1*
X38452D2*
X45618D1*
X12052Y33843D2*
X19488D1*
X27558D2*
X28151D1*
X29179D2*
X31721D1*
X35360D2*
X37232D1*
X38526D2*
X45718D1*
X11954Y33744D2*
X19488D1*
X27607D2*
X28151D1*
X29179D2*
X31621D1*
X35458D2*
X37179D1*
X38579D2*
X45818D1*
X11854Y33646D2*
X19488D1*
X27637D2*
X28151D1*
X29179D2*
X31523D1*
X35557D2*
X37143D1*
X38615D2*
X45917D1*
X11755Y33547D2*
X19488D1*
X27652D2*
X28151D1*
X29179D2*
X31424D1*
X35655D2*
X37123D1*
X38635D2*
X46017D1*
X11657Y33448D2*
X19488D1*
X27652D2*
X28151D1*
X29179D2*
X31326D1*
X35754D2*
X37115D1*
X38643D2*
X40924D1*
X41460D2*
X46117D1*
X11558Y33350D2*
X15187D1*
X15816D2*
X19488D1*
X27640D2*
X28151D1*
X29179D2*
X31227D1*
X35854D2*
X37121D1*
X38638D2*
X40738D1*
X41646D2*
X46217D1*
X11460Y33251D2*
X15024D1*
X15980D2*
X19506D1*
X27612D2*
X28151D1*
X29179D2*
X31129D1*
X35952D2*
X37140D1*
X38619D2*
X40627D1*
X41757D2*
X46315D1*
X11360Y33152D2*
X14921D1*
X16082D2*
X19492D1*
X27568D2*
X28151D1*
X29179D2*
X31049D1*
X36030D2*
X37173D1*
X38587D2*
X40551D1*
X41833D2*
X46415D1*
X11262Y33054D2*
X14849D1*
X16155D2*
X19488D1*
X27502D2*
X28151D1*
X29179D2*
X31004D1*
X36077D2*
X37221D1*
X38537D2*
X40496D1*
X41888D2*
X46515D1*
X11163Y32955D2*
X14798D1*
X16205D2*
X19501D1*
X27543D2*
X28151D1*
X29179D2*
X30981D1*
X32277D2*
X32337D1*
X36099D2*
X37292D1*
X38466D2*
X40459D1*
X41924D2*
X46615D1*
X11065Y32856D2*
X14763D1*
X16240D2*
X19526D1*
X27608D2*
X28151D1*
X29179D2*
X30976D1*
X32179D2*
X32271D1*
X36104D2*
X37240D1*
X38518D2*
X40437D1*
X41947D2*
X46713D1*
X10965Y32758D2*
X14745D1*
X16258D2*
X19565D1*
X27655D2*
X28151D1*
X29179D2*
X30976D1*
X32080D2*
X32226D1*
X36104D2*
X37185D1*
X38572D2*
X40427D1*
X41955D2*
X46813D1*
X10866Y32659D2*
X14738D1*
X16266D2*
X19624D1*
X27685D2*
X28151D1*
X29179D2*
X30976D1*
X32004D2*
X32195D1*
X36104D2*
X37148D1*
X38610D2*
X40432D1*
X41951D2*
X46913D1*
X10768Y32560D2*
X14745D1*
X16258D2*
X17760D1*
X27701D2*
X28151D1*
X29179D2*
X30976D1*
X32004D2*
X32179D1*
X36104D2*
X37124D1*
X38633D2*
X40449D1*
X41933D2*
X47013D1*
X10669Y32461D2*
X14765D1*
X16240D2*
X17601D1*
X27704D2*
X28151D1*
X29179D2*
X30976D1*
X32004D2*
X32177D1*
X36104D2*
X37115D1*
X38643D2*
X40481D1*
X41902D2*
X47112D1*
X10569Y32363D2*
X14799D1*
X16204D2*
X17502D1*
X27693D2*
X28151D1*
X29179D2*
X30976D1*
X32004D2*
X32187D1*
X36104D2*
X37120D1*
X38640D2*
X40529D1*
X41855D2*
X47212D1*
X10471Y32264D2*
X14849D1*
X16154D2*
X17404D1*
X27669D2*
X28117D1*
X29179D2*
X30976D1*
X32004D2*
X32210D1*
X36104D2*
X37135D1*
X38622D2*
X40598D1*
X41787D2*
X47312D1*
X10372Y32165D2*
X14923D1*
X16080D2*
X17304D1*
X27630D2*
X28018D1*
X29179D2*
X30976D1*
X32004D2*
X32249D1*
X36104D2*
X37167D1*
X38591D2*
X40693D1*
X41690D2*
X47412D1*
X10274Y32067D2*
X15026D1*
X15977D2*
X17206D1*
X27574D2*
X27920D1*
X29179D2*
X30976D1*
X32004D2*
X32306D1*
X36104D2*
X37213D1*
X38544D2*
X40843D1*
X41541D2*
X47510D1*
X10176Y31968D2*
X15193D1*
X15812D2*
X17107D1*
X29165D2*
X30976D1*
X32004D2*
X32348D1*
X36104D2*
X37281D1*
X38477D2*
X43460D1*
X44049D2*
X47610D1*
X10076Y31869D2*
X17009D1*
X29129D2*
X30976D1*
X32004D2*
X32279D1*
X36104D2*
X37249D1*
X38508D2*
X43287D1*
X44222D2*
X47710D1*
X9977Y31771D2*
X16923D1*
X29065D2*
X30976D1*
X32004D2*
X32231D1*
X36104D2*
X37192D1*
X38566D2*
X43181D1*
X44329D2*
X47810D1*
X9879Y31672D2*
X16871D1*
X28969D2*
X30976D1*
X32004D2*
X32198D1*
X36104D2*
X37152D1*
X38607D2*
X43107D1*
X44402D2*
X47909D1*
X9780Y31573D2*
X16845D1*
X18157D2*
X19663D1*
X28871D2*
X30976D1*
X32004D2*
X32181D1*
X36104D2*
X37127D1*
X38630D2*
X43054D1*
X44455D2*
X48009D1*
X9680Y31475D2*
X16838D1*
X18058D2*
X19593D1*
X28772D2*
X30976D1*
X32004D2*
X32176D1*
X36104D2*
X37117D1*
X38643D2*
X41067D1*
X41568D2*
X43020D1*
X44490D2*
X48109D1*
X9582Y31376D2*
X16838D1*
X17960D2*
X19545D1*
X28674D2*
X30976D1*
X32004D2*
X32185D1*
X36104D2*
X37118D1*
X38640D2*
X40873D1*
X41762D2*
X42998D1*
X44512D2*
X48209D1*
X9483Y31277D2*
X16838D1*
X17866D2*
X19512D1*
X28576D2*
X30976D1*
X32004D2*
X32207D1*
X36104D2*
X37132D1*
X38626D2*
X40759D1*
X41876D2*
X42992D1*
X44518D2*
X48307D1*
X9385Y31179D2*
X16838D1*
X17866D2*
X19493D1*
X28476D2*
X30976D1*
X32004D2*
X32243D1*
X36104D2*
X37162D1*
X38596D2*
X40681D1*
X41954D2*
X42996D1*
X44513D2*
X48407D1*
X9287Y31080D2*
X16838D1*
X17866D2*
X19488D1*
X28368D2*
X30976D1*
X32004D2*
X32298D1*
X36104D2*
X37207D1*
X38551D2*
X40624D1*
X42010D2*
X43015D1*
X44494D2*
X48507D1*
X9187Y30981D2*
X16838D1*
X17866D2*
X19496D1*
X27522D2*
X30976D1*
X32004D2*
X32359D1*
X36104D2*
X37271D1*
X38487D2*
X40587D1*
X42047D2*
X43048D1*
X44462D2*
X48606D1*
X9088Y30882D2*
X16838D1*
X17866D2*
X19518D1*
X27594D2*
X30976D1*
X32004D2*
X32287D1*
X36104D2*
X37259D1*
X38499D2*
X40563D1*
X42071D2*
X43098D1*
X44412D2*
X48706D1*
X8990Y30784D2*
X16838D1*
X17866D2*
X19554D1*
X27644D2*
X30976D1*
X32004D2*
X32235D1*
X36104D2*
X37198D1*
X38560D2*
X40554D1*
X42080D2*
X43168D1*
X44341D2*
X48806D1*
X8891Y30685D2*
X16838D1*
X17866D2*
X19606D1*
X27679D2*
X30976D1*
X32004D2*
X32202D1*
X36104D2*
X37156D1*
X38602D2*
X40557D1*
X42077D2*
X43270D1*
X44240D2*
X48906D1*
X8791Y30586D2*
X16838D1*
X17866D2*
X18556D1*
X27697D2*
X30976D1*
X32004D2*
X32182D1*
X36104D2*
X37129D1*
X38629D2*
X40573D1*
X42060D2*
X43427D1*
X44082D2*
X49004D1*
X8693Y30488D2*
X16838D1*
X17866D2*
X18332D1*
X27704D2*
X30976D1*
X32004D2*
X32176D1*
X36104D2*
X37117D1*
X38641D2*
X40604D1*
X42030D2*
X49104D1*
X8594Y30389D2*
X16838D1*
X17866D2*
X18227D1*
X27697D2*
X30976D1*
X32004D2*
X32184D1*
X36104D2*
X37117D1*
X38641D2*
X40651D1*
X41983D2*
X49204D1*
X8496Y30290D2*
X15270D1*
X17866D2*
X18129D1*
X27677D2*
X30976D1*
X32004D2*
X32202D1*
X36104D2*
X37131D1*
X38627D2*
X40717D1*
X41916D2*
X49304D1*
X8397Y30192D2*
X15065D1*
X17866D2*
X18031D1*
X27643D2*
X30976D1*
X32004D2*
X32238D1*
X36104D2*
X37157D1*
X38601D2*
X40812D1*
X41822D2*
X44749D1*
X44885D2*
X49402D1*
X8297Y30093D2*
X14949D1*
X17866D2*
X17932D1*
X27591D2*
X30976D1*
X32004D2*
X32288D1*
X36104D2*
X37199D1*
X38558D2*
X40956D1*
X41679D2*
X44431D1*
X45204D2*
X49502D1*
X8199Y29994D2*
X14868D1*
X27518D2*
X30976D1*
X32004D2*
X32362D1*
X36104D2*
X37260D1*
X38497D2*
X44296D1*
X45338D2*
X49602D1*
X8101Y29896D2*
X14812D1*
X27585D2*
X30976D1*
X32004D2*
X32295D1*
X36104D2*
X37268D1*
X38490D2*
X44207D1*
X45427D2*
X49702D1*
X8002Y29797D2*
X14773D1*
X27638D2*
X30976D1*
X32004D2*
X32242D1*
X36104D2*
X37206D1*
X38554D2*
X44143D1*
X45491D2*
X49801D1*
X7902Y29698D2*
X14749D1*
X27674D2*
X30976D1*
X32004D2*
X32206D1*
X36104D2*
X37160D1*
X38597D2*
X44099D1*
X45535D2*
X49901D1*
X7804Y29600D2*
X14738D1*
X27696D2*
X30976D1*
X32004D2*
X32184D1*
X36104D2*
X37132D1*
X38626D2*
X44070D1*
X45565D2*
X50001D1*
X7705Y29501D2*
X14742D1*
X18785D2*
X19671D1*
X27704D2*
X30976D1*
X32004D2*
X32176D1*
X36104D2*
X37118D1*
X38640D2*
X40552D1*
X42080D2*
X44056D1*
X45579D2*
X50101D1*
X7607Y29402D2*
X14757D1*
X18687D2*
X19612D1*
X27699D2*
X30976D1*
X32004D2*
X32181D1*
X36104D2*
X37117D1*
X38641D2*
X40552D1*
X42080D2*
X44054D1*
X45580D2*
X50199D1*
X7508Y29303D2*
X14787D1*
X18588D2*
X19571D1*
X27680D2*
X30976D1*
X32004D2*
X32199D1*
X36104D2*
X37127D1*
X38630D2*
X40552D1*
X42080D2*
X44067D1*
X45569D2*
X50299D1*
X7408Y29205D2*
X14832D1*
X18516D2*
X19548D1*
X27647D2*
X30976D1*
X32004D2*
X32232D1*
X36147D2*
X37152D1*
X38605D2*
X40552D1*
X42080D2*
X44092D1*
X45543D2*
X50399D1*
X7310Y29106D2*
X14898D1*
X18516D2*
X19538D1*
X26218D2*
X26281D1*
X27599D2*
X30976D1*
X32004D2*
X32281D1*
X36246D2*
X37193D1*
X38565D2*
X40552D1*
X42080D2*
X44131D1*
X45504D2*
X50446D1*
X7212Y29007D2*
X7582D1*
X18516D2*
X19543D1*
X26218D2*
X26351D1*
X27529D2*
X30976D1*
X32004D2*
X32351D1*
X36346D2*
X37251D1*
X38507D2*
X40552D1*
X42080D2*
X44190D1*
X45444D2*
X50446D1*
X7124Y28909D2*
X7440D1*
X18516D2*
X19562D1*
X26218D2*
X26449D1*
X27430D2*
X30976D1*
X32004D2*
X32449D1*
X38479D2*
X40552D1*
X42080D2*
X44273D1*
X45362D2*
X50446D1*
X7124Y28810D2*
X7342D1*
X18516D2*
X19596D1*
X26218D2*
X26604D1*
X27276D2*
X30976D1*
X32004D2*
X32604D1*
X38546D2*
X40552D1*
X42080D2*
X44393D1*
X45241D2*
X50446D1*
X7124Y28711D2*
X7242D1*
X18516D2*
X19649D1*
X26218D2*
X30976D1*
X32004D2*
X33276D1*
X38593D2*
X40552D1*
X42080D2*
X44613D1*
X45021D2*
X50446D1*
X18516Y28613D2*
X19699D1*
X26218D2*
X30976D1*
X32004D2*
X33276D1*
X38622D2*
X40552D1*
X42080D2*
X50446D1*
X18516Y28514D2*
X19618D1*
X26218D2*
X30976D1*
X32004D2*
X33276D1*
X38640D2*
X40552D1*
X42080D2*
X50446D1*
X18516Y28415D2*
X19562D1*
X26218D2*
X30976D1*
X32004D2*
X33276D1*
X38643D2*
X40552D1*
X42080D2*
X50448D1*
X18516Y28317D2*
X19523D1*
X26218D2*
X30976D1*
X32004D2*
X33276D1*
X38633D2*
X40552D1*
X42080D2*
X50448D1*
X18516Y28218D2*
X19499D1*
X26218D2*
X30976D1*
X32004D2*
X33276D1*
X38610D2*
X40552D1*
X42080D2*
X50448D1*
X18516Y28119D2*
X19488D1*
X26218D2*
X30976D1*
X32004D2*
X33276D1*
X38571D2*
X40552D1*
X42080D2*
X44054D1*
X45582D2*
X50448D1*
X8943Y28021D2*
X17488D1*
X18516D2*
X19492D1*
X26218D2*
X30976D1*
X32004D2*
X33276D1*
X38515D2*
X40552D1*
X42080D2*
X44054D1*
X45582D2*
X50448D1*
X8982Y27922D2*
X14563D1*
X14690D2*
X15342D1*
X17341D2*
X17488D1*
X18516D2*
X19507D1*
X26218D2*
X30976D1*
X32004D2*
X33276D1*
X38469D2*
X44054D1*
X45582D2*
X50448D1*
X9004Y27823D2*
X14254D1*
X14999D2*
X15165D1*
X17341D2*
X17488D1*
X18516D2*
X19537D1*
X26218D2*
X30976D1*
X32004D2*
X33276D1*
X38538D2*
X44054D1*
X45582D2*
X50449D1*
X9015Y27724D2*
X14126D1*
X17341D2*
X17488D1*
X18516D2*
X19582D1*
X26218D2*
X30976D1*
X32004D2*
X33276D1*
X38587D2*
X44054D1*
X45582D2*
X50449D1*
X9012Y27626D2*
X9543D1*
X18516D2*
X19648D1*
X26218D2*
X30976D1*
X32004D2*
X33276D1*
X38619D2*
X44054D1*
X45582D2*
X50449D1*
X8994Y27527D2*
X9437D1*
X18516D2*
X19627D1*
X26218D2*
X30976D1*
X32004D2*
X33276D1*
X38638D2*
X44054D1*
X45582D2*
X50449D1*
X8965Y27428D2*
X9338D1*
X18516D2*
X19568D1*
X26218D2*
X30976D1*
X32004D2*
X33276D1*
X38643D2*
X44054D1*
X45582D2*
X50449D1*
X8918Y27330D2*
X9240D1*
X18516D2*
X19527D1*
X26218D2*
X30976D1*
X32004D2*
X33276D1*
X38635D2*
X44054D1*
X45582D2*
X50449D1*
X8851Y27231D2*
X9140D1*
X18516D2*
X19501D1*
X25116D2*
X25190D1*
X26218D2*
X30976D1*
X32004D2*
X33276D1*
X38613D2*
X44054D1*
X45582D2*
X50451D1*
X18508Y27132D2*
X19490D1*
X25018D2*
X25190D1*
X26218D2*
X30976D1*
X32004D2*
X33276D1*
X38577D2*
X44054D1*
X45582D2*
X50451D1*
X18480Y27034D2*
X19490D1*
X24918D2*
X25190D1*
X26218D2*
X30976D1*
X32004D2*
X33276D1*
X38524D2*
X44054D1*
X45582D2*
X50451D1*
X18427Y26935D2*
X19504D1*
X24819D2*
X25190D1*
X26218D2*
X30976D1*
X32004D2*
X33276D1*
X49735D2*
X50451D1*
X18338Y26836D2*
X19532D1*
X24721D2*
X25190D1*
X26218D2*
X30976D1*
X32004D2*
X33276D1*
X49951D2*
X50451D1*
X18157Y26738D2*
X19576D1*
X24622D2*
X25190D1*
X26218D2*
X30976D1*
X32004D2*
X33276D1*
X50055D2*
X50451D1*
X9994Y26639D2*
X14220D1*
X17341D2*
X19638D1*
X24487D2*
X25190D1*
X26218D2*
X30976D1*
X32004D2*
X33276D1*
X50154D2*
X50451D1*
X9894Y26540D2*
X14009D1*
X20866D2*
X23140D1*
X24369D2*
X25190D1*
X26218D2*
X30976D1*
X32004D2*
X33276D1*
X50252D2*
X50452D1*
X9796Y26442D2*
X13873D1*
X20929D2*
X23077D1*
X24430D2*
X25190D1*
X26218D2*
X30976D1*
X32004D2*
X33276D1*
X50351D2*
X50452D1*
X9697Y26343D2*
X13774D1*
X20972D2*
X23034D1*
X24474D2*
X25190D1*
X26218D2*
X30976D1*
X32004D2*
X33276D1*
X9557Y26244D2*
X13676D1*
X21001D2*
X23006D1*
X24502D2*
X25190D1*
X26218D2*
X30976D1*
X32004D2*
X33276D1*
X10218Y26145D2*
X13577D1*
X21015D2*
X22992D1*
X24516D2*
X25190D1*
X26218D2*
X30976D1*
X32004D2*
X33276D1*
X10347Y26047D2*
X13479D1*
X21015D2*
X22992D1*
X24516D2*
X25188D1*
X26218D2*
X30976D1*
X32004D2*
X33276D1*
X10447Y25948D2*
X13381D1*
X21002D2*
X23004D1*
X24504D2*
X25090D1*
X26218D2*
X30976D1*
X32004D2*
X33285D1*
X10546Y25849D2*
X12999D1*
X20977D2*
X23029D1*
X24479D2*
X24992D1*
X26218D2*
X30976D1*
X32004D2*
X33313D1*
X38522D2*
X49498D1*
X10644Y25751D2*
X12835D1*
X20935D2*
X23071D1*
X24437D2*
X24892D1*
X26210D2*
X30976D1*
X32004D2*
X33368D1*
X38576D2*
X49596D1*
X20876Y25652D2*
X23131D1*
X26182D2*
X30976D1*
X32004D2*
X33456D1*
X38613D2*
X49695D1*
X14430Y25553D2*
X16721D1*
X17908D2*
X19648D1*
X20857D2*
X23215D1*
X26129D2*
X30976D1*
X32004D2*
X33554D1*
X38635D2*
X49717D1*
X14332Y25455D2*
X16665D1*
X17963D2*
X19582D1*
X20922D2*
X23276D1*
X26041D2*
X30976D1*
X32004D2*
X33652D1*
X38643D2*
X49717D1*
X14233Y25356D2*
X16629D1*
X18001D2*
X19537D1*
X20968D2*
X23327D1*
X25943D2*
X30976D1*
X32004D2*
X33751D1*
X38638D2*
X49717D1*
X14133Y25257D2*
X16607D1*
X18021D2*
X19507D1*
X20997D2*
X23415D1*
X25844D2*
X30976D1*
X32004D2*
X33851D1*
X38621D2*
X49717D1*
X9015Y25159D2*
X9792D1*
X14079D2*
X16601D1*
X18029D2*
X19492D1*
X21013D2*
X23513D1*
X25746D2*
X30976D1*
X32004D2*
X33949D1*
X38643D2*
X42371D1*
X46788D2*
X49717D1*
X9015Y25060D2*
X9890D1*
X14071D2*
X16607D1*
X18021D2*
X19488D1*
X21015D2*
X23612D1*
X25646D2*
X30976D1*
X32004D2*
X34049D1*
X38643D2*
X42248D1*
X46913D2*
X49717D1*
X9015Y24961D2*
X9988D1*
X14052D2*
X16629D1*
X17999D2*
X19499D1*
X21005D2*
X23710D1*
X25547D2*
X30976D1*
X32004D2*
X34223D1*
X38643D2*
X42177D1*
X47012D2*
X49717D1*
X9015Y24863D2*
X10087D1*
X14018D2*
X16667D1*
X17962D2*
X19523D1*
X20980D2*
X23810D1*
X25447D2*
X30976D1*
X32004D2*
X37115D1*
X38643D2*
X42137D1*
X47110D2*
X49717D1*
X9015Y24764D2*
X10192D1*
X13966D2*
X16723D1*
X17907D2*
X19562D1*
X20941D2*
X23979D1*
X25279D2*
X30976D1*
X32004D2*
X37115D1*
X38643D2*
X42118D1*
X47208D2*
X49717D1*
X9015Y24665D2*
X10407D1*
X13893D2*
X16804D1*
X17826D2*
X19620D1*
X20885D2*
X30976D1*
X32004D2*
X37115D1*
X38643D2*
X42115D1*
X47307D2*
X49717D1*
X9015Y24566D2*
X12840D1*
X13790D2*
X16926D1*
X17702D2*
X19699D1*
X20805D2*
X30976D1*
X32004D2*
X37115D1*
X38643D2*
X41865D1*
X48679D2*
X49082D1*
X49679D2*
X49716D1*
X9015Y24468D2*
X13006D1*
X13622D2*
X17177D1*
X17452D2*
X19817D1*
X20688D2*
X30976D1*
X32004D2*
X37115D1*
X38643D2*
X41865D1*
X48849D2*
X48910D1*
X9015Y24369D2*
X20021D1*
X20482D2*
X30976D1*
X32004D2*
X37115D1*
X38643D2*
X41865D1*
X9015Y24270D2*
X30976D1*
X32004D2*
X37115D1*
X38643D2*
X41865D1*
X9015Y24172D2*
X30976D1*
X32004D2*
X37115D1*
X38643D2*
X41865D1*
X45321D2*
X46356D1*
X9015Y24073D2*
X30976D1*
X32004D2*
X37115D1*
X38643D2*
X41865D1*
X45360D2*
X46454D1*
X9015Y23974D2*
X30976D1*
X32004D2*
X37115D1*
X38643D2*
X41865D1*
X45383D2*
X46552D1*
X8765Y23876D2*
X30976D1*
X32004D2*
X37115D1*
X38643D2*
X41865D1*
X45393D2*
X46617D1*
X8765Y23777D2*
X30976D1*
X32004D2*
X37115D1*
X38643D2*
X41865D1*
X45426D2*
X46617D1*
X8765Y23678D2*
X30976D1*
X32004D2*
X41865D1*
X45524D2*
X46617D1*
X8765Y23580D2*
X30907D1*
X32004D2*
X35813D1*
X36443D2*
X41215D1*
X45622D2*
X46617D1*
X8765Y23481D2*
X30809D1*
X32004D2*
X35651D1*
X36607D2*
X41051D1*
X45721D2*
X46617D1*
X8765Y23382D2*
X30710D1*
X32001D2*
X35548D1*
X45819D2*
X46617D1*
X8765Y23284D2*
X13690D1*
X31979D2*
X35476D1*
X45918D2*
X46617D1*
X48863D2*
X48897D1*
X8765Y23185D2*
X13562D1*
X31935D2*
X35424D1*
X43994D2*
X44265D1*
X46018D2*
X46617D1*
X48704D2*
X49056D1*
X8765Y23086D2*
X13490D1*
X31858D2*
X35392D1*
X42268D2*
X44671D1*
X47544D2*
X49717D1*
X8765Y22987D2*
X13448D1*
X31760D2*
X35371D1*
X42287D2*
X44770D1*
X47676D2*
X49717D1*
X8765Y22889D2*
X13427D1*
X31662D2*
X35365D1*
X42293D2*
X44868D1*
X47774D2*
X49717D1*
X8765Y22790D2*
X13424D1*
X31563D2*
X35371D1*
X42287D2*
X44967D1*
X47872D2*
X49717D1*
X8765Y22691D2*
X13424D1*
X31465D2*
X35392D1*
X42266D2*
X45065D1*
X47971D2*
X49717D1*
X8765Y22593D2*
X13424D1*
X31365D2*
X35426D1*
X42232D2*
X45165D1*
X48069D2*
X49717D1*
X8765Y22494D2*
X13424D1*
X31266D2*
X35477D1*
X42180D2*
X45263D1*
X48169D2*
X49717D1*
X8765Y22395D2*
X13424D1*
X48268D2*
X49717D1*
X8765Y22297D2*
X13424D1*
X14452D2*
X15679D1*
X16199D2*
X16679D1*
X17199D2*
X27196D1*
X48366D2*
X49717D1*
X8765Y22198D2*
X12699D1*
X13179D2*
X13424D1*
X14452D2*
X14699D1*
X15179D2*
X15467D1*
X16412D2*
X16467D1*
X17412D2*
X17699D1*
X18179D2*
X18699D1*
X20702D2*
X27157D1*
X48465D2*
X49717D1*
X8765Y22099D2*
X12499D1*
X13379D2*
X13425D1*
X14452D2*
X14500D1*
X18379D2*
X18499D1*
X20702D2*
X27135D1*
X46405D2*
X47118D1*
X48563D2*
X49717D1*
X8765Y22001D2*
X12384D1*
X20702D2*
X27126D1*
X46504D2*
X47217D1*
X48662D2*
X49717D1*
X8765Y21902D2*
X12304D1*
X20702D2*
X27132D1*
X46602D2*
X47315D1*
X48762D2*
X49717D1*
X8765Y21803D2*
X12248D1*
X20702D2*
X27151D1*
X46702D2*
X47415D1*
X48860D2*
X49717D1*
X8765Y21705D2*
X12209D1*
X20702D2*
X27187D1*
X46801D2*
X47513D1*
X48958D2*
X49717D1*
X8765Y21606D2*
X12185D1*
X20702D2*
X27240D1*
X46880D2*
X47612D1*
X49057D2*
X49717D1*
X8765Y21507D2*
X12176D1*
X20702D2*
X27318D1*
X46927D2*
X47710D1*
X49427D2*
X49717D1*
X8765Y21408D2*
X12179D1*
X20702D2*
X27434D1*
X28246D2*
X29624D1*
X46952D2*
X47809D1*
X49599D2*
X49717D1*
X8765Y21310D2*
X11415D1*
X12087D2*
X12195D1*
X20702D2*
X27649D1*
X28030D2*
X29587D1*
X45705D2*
X45750D1*
X46955D2*
X47907D1*
X8765Y21211D2*
X11260D1*
X20702D2*
X29563D1*
X45705D2*
X45848D1*
X46955D2*
X48007D1*
X8765Y21112D2*
X11162D1*
X20702D2*
X29554D1*
X45705D2*
X45929D1*
X46955D2*
X48106D1*
X8765Y21014D2*
X11093D1*
X20702D2*
X29557D1*
X45705D2*
X45929D1*
X46955D2*
X48204D1*
X8765Y20915D2*
X11043D1*
X20702D2*
X29574D1*
X45705D2*
X45929D1*
X46955D2*
X48302D1*
X8765Y20816D2*
X11010D1*
X12491D2*
X12571D1*
X13307D2*
X13571D1*
X14307D2*
X14571D1*
X15307D2*
X15392D1*
X17487D2*
X17571D1*
X18307D2*
X18424D1*
X20702D2*
X29606D1*
X45705D2*
X45929D1*
X46955D2*
X48367D1*
X8765Y20718D2*
X10993D1*
X12510D2*
X15545D1*
X16333D2*
X16545D1*
X17333D2*
X18424D1*
X19574D2*
X29652D1*
X45705D2*
X45929D1*
X46955D2*
X48371D1*
X8765Y20619D2*
X10987D1*
X12515D2*
X18426D1*
X19672D2*
X29720D1*
X45705D2*
X45929D1*
X46955D2*
X48392D1*
X8765Y20520D2*
X10995D1*
X12507D2*
X18437D1*
X45705D2*
X45929D1*
X46955D2*
X48424D1*
X8765Y20422D2*
X11017D1*
X12487D2*
X18470D1*
X43455D2*
X43584D1*
X45705D2*
X45929D1*
X46955D2*
X48474D1*
X8765Y20323D2*
X11052D1*
X12449D2*
X18529D1*
X43455D2*
X45929D1*
X46955D2*
X48545D1*
X8765Y20224D2*
X11106D1*
X12396D2*
X18623D1*
X43455D2*
X45929D1*
X46955D2*
X48646D1*
X49615D2*
X49717D1*
X8765Y20126D2*
X11181D1*
X12321D2*
X18721D1*
X43455D2*
X45929D1*
X46955D2*
X48804D1*
X49457D2*
X49717D1*
X8765Y20027D2*
X11237D1*
X12265D2*
X18820D1*
X43455D2*
X45929D1*
X46955D2*
X49717D1*
X8765Y19928D2*
X11237D1*
X12265D2*
X18918D1*
X43446D2*
X45929D1*
X46955D2*
X49717D1*
X8765Y19829D2*
X11237D1*
X12265D2*
X19017D1*
X43415D2*
X45929D1*
X46955D2*
X49717D1*
X8765Y19731D2*
X11237D1*
X12265D2*
X19115D1*
X43357D2*
X45929D1*
X46955D2*
X49717D1*
X8765Y19632D2*
X11237D1*
X12265D2*
X19220D1*
X43262D2*
X45929D1*
X47030D2*
X49717D1*
X8765Y19533D2*
X11237D1*
X12265D2*
X19443D1*
X43038D2*
X45929D1*
X47129D2*
X49717D1*
X8765Y19435D2*
X11237D1*
X12265D2*
X30318D1*
X31263D2*
X45932D1*
X47229D2*
X49717D1*
X8765Y19336D2*
X11237D1*
X12265D2*
X19515D1*
X20063D2*
X30485D1*
X31094D2*
X37304D1*
X37854D2*
X45956D1*
X47327D2*
X49717D1*
X8765Y19237D2*
X11237D1*
X12265D2*
X19332D1*
X20246D2*
X37123D1*
X38035D2*
X46001D1*
X47426D2*
X49717D1*
X8765Y19139D2*
X11237D1*
X12265D2*
X19223D1*
X20355D2*
X37012D1*
X38146D2*
X46079D1*
X47524D2*
X49717D1*
X8765Y19040D2*
X11237D1*
X12265D2*
X19146D1*
X38221D2*
X46177D1*
X47622D2*
X49717D1*
X8765Y18941D2*
X11237D1*
X12265D2*
X19092D1*
X38276D2*
X46276D1*
X47721D2*
X49717D1*
X8765Y18843D2*
X11237D1*
X12265D2*
X19056D1*
X38312D2*
X46374D1*
X47821D2*
X49717D1*
X8765Y18744D2*
X11237D1*
X12265D2*
X19034D1*
X38333D2*
X46474D1*
X47919D2*
X49717D1*
X8765Y18645D2*
X11237D1*
X12265D2*
X19026D1*
X38343D2*
X46573D1*
X48018D2*
X49717D1*
X8765Y18547D2*
X11237D1*
X12265D2*
X19029D1*
X38338D2*
X46671D1*
X48116D2*
X49717D1*
X8765Y18448D2*
X11237D1*
X12265D2*
X19048D1*
X38321D2*
X46770D1*
X48215D2*
X49717D1*
X8765Y18349D2*
X11237D1*
X12265D2*
X19079D1*
X38288D2*
X46868D1*
X48313D2*
X49717D1*
X8765Y18250D2*
X11237D1*
X12265D2*
X19127D1*
X38240D2*
X46967D1*
X48412D2*
X49717D1*
X8765Y18152D2*
X11237D1*
X12265D2*
X19196D1*
X38171D2*
X47067D1*
X48512D2*
X49717D1*
X8765Y18053D2*
X11237D1*
X12265D2*
X19293D1*
X20283D2*
X37084D1*
X38074D2*
X47165D1*
X48610D2*
X49717D1*
X8765Y17954D2*
X11237D1*
X12265D2*
X19445D1*
X20133D2*
X37234D1*
X37922D2*
X47263D1*
X48708D2*
X49717D1*
X8765Y17856D2*
X11237D1*
X12265D2*
X47362D1*
X48807D2*
X49717D1*
X8765Y17757D2*
X11237D1*
X12265D2*
X47460D1*
X48905D2*
X49717D1*
X8765Y17658D2*
X11237D1*
X12265D2*
X47559D1*
X49004D2*
X49717D1*
X8765Y17560D2*
X11237D1*
X12265D2*
X47659D1*
X49104D2*
X49717D1*
X8765Y17461D2*
X11237D1*
X12265D2*
X47757D1*
X49408D2*
X49717D1*
X8765Y17362D2*
X11237D1*
X12265D2*
X47856D1*
X49577D2*
X49717D1*
X8765Y17264D2*
X11237D1*
X12265D2*
X28468D1*
X28912D2*
X47954D1*
X49679D2*
X49716D1*
X8765Y17165D2*
X11237D1*
X12265D2*
X28259D1*
X29122D2*
X48052D1*
X8765Y17066D2*
X11237D1*
X12265D2*
X28140D1*
X29240D2*
X48151D1*
X8765Y16968D2*
X11237D1*
X12265D2*
X28059D1*
X45469D2*
X48249D1*
X8765Y16869D2*
X11237D1*
X12265D2*
X28001D1*
X45587D2*
X48349D1*
X8765Y16770D2*
X11237D1*
X12265D2*
X27962D1*
X45685D2*
X48418D1*
X8765Y16671D2*
X11237D1*
X12265D2*
X27938D1*
X45783D2*
X48431D1*
X8765Y16573D2*
X11237D1*
X12265D2*
X27927D1*
X45882D2*
X48457D1*
X8765Y16474D2*
X11237D1*
X12265D2*
X27929D1*
X45980D2*
X48501D1*
X8765Y16375D2*
X11237D1*
X12265D2*
X27945D1*
X46079D2*
X48567D1*
X8765Y16277D2*
X11237D1*
X12265D2*
X13621D1*
X14257D2*
X27974D1*
X46177D2*
X48660D1*
X49599D2*
X49717D1*
X8765Y16178D2*
X11237D1*
X12265D2*
X12645D1*
X13233D2*
X13437D1*
X14441D2*
X14645D1*
X15233D2*
X15645D1*
X16233D2*
X16645D1*
X17233D2*
X17645D1*
X18233D2*
X18645D1*
X19233D2*
X19645D1*
X20233D2*
X28018D1*
X46246D2*
X48810D1*
X49451D2*
X49717D1*
X8765Y16079D2*
X11237D1*
X12265D2*
X12471D1*
X15407D2*
X15471D1*
X16407D2*
X16471D1*
X17407D2*
X17471D1*
X18407D2*
X18471D1*
X19407D2*
X19471D1*
X20407D2*
X28084D1*
X46287D2*
X49717D1*
X8765Y15981D2*
X11237D1*
X12265D2*
X12365D1*
X46304D2*
X49717D1*
X8765Y15882D2*
X11237D1*
X46305D2*
X49717D1*
X8765Y15783D2*
X11237D1*
X46305D2*
X49717D1*
X8765Y15685D2*
X11237D1*
X46305D2*
X49717D1*
X8765Y15586D2*
X11237D1*
X46305D2*
X48479D1*
X8765Y15487D2*
X11237D1*
X46305D2*
X48479D1*
X8765Y15389D2*
X11237D1*
X36157D2*
X37240D1*
X46305D2*
X48479D1*
X8765Y15290D2*
X11237D1*
X36058D2*
X37206D1*
X46305D2*
X48479D1*
X8765Y15191D2*
X11237D1*
X35960D2*
X37185D1*
X46305D2*
X48479D1*
X8765Y15092D2*
X11237D1*
X35858D2*
X37179D1*
X46305D2*
X48479D1*
X8765Y14994D2*
X11237D1*
X12265D2*
X12352D1*
X35668D2*
X37184D1*
X46305D2*
X48479D1*
X8765Y14895D2*
X11237D1*
X12265D2*
X12454D1*
X20424D2*
X37204D1*
X46305D2*
X48479D1*
X8765Y14796D2*
X11237D1*
X12265D2*
X12612D1*
X13266D2*
X13417D1*
X14460D2*
X14612D1*
X15266D2*
X15612D1*
X16266D2*
X16612D1*
X17266D2*
X17612D1*
X18266D2*
X18424D1*
X19452D2*
X19612D1*
X20266D2*
X37238D1*
X46305D2*
X48479D1*
X8765Y14698D2*
X11237D1*
X12265D2*
X13587D1*
X14291D2*
X18424D1*
X19452D2*
X37288D1*
X46305D2*
X48479D1*
X8765Y14599D2*
X11237D1*
X12265D2*
X18424D1*
X19463D2*
X37360D1*
X46305D2*
X48479D1*
X8765Y14500D2*
X11237D1*
X12265D2*
X18424D1*
X19562D2*
X37462D1*
X46305D2*
X48479D1*
X8765Y14402D2*
X11237D1*
X12265D2*
X18424D1*
X19660D2*
X37624D1*
X38260D2*
X38427D1*
X44455D2*
X44624D1*
X46305D2*
X48479D1*
X8765Y14303D2*
X11198D1*
X12304D2*
X18434D1*
X44455D2*
X45279D1*
X46305D2*
X48479D1*
X8765Y14204D2*
X11118D1*
X12385D2*
X18465D1*
X44455D2*
X45279D1*
X46305D2*
X48467D1*
X8765Y14106D2*
X11062D1*
X12441D2*
X18520D1*
X44455D2*
X45279D1*
X46305D2*
X48442D1*
X8765Y14007D2*
X11023D1*
X12480D2*
X18609D1*
X44455D2*
X45279D1*
X46305D2*
X48429D1*
X8765Y13908D2*
X10998D1*
X12504D2*
X18709D1*
X44455D2*
X45279D1*
X46305D2*
X48431D1*
X8765Y13810D2*
X10988D1*
X12515D2*
X18807D1*
X44455D2*
X45279D1*
X46305D2*
X48446D1*
X8765Y13711D2*
X10990D1*
X12512D2*
X18906D1*
X44447D2*
X45279D1*
X46305D2*
X48474D1*
X8765Y13612D2*
X11006D1*
X12496D2*
X19004D1*
X44419D2*
X45279D1*
X46305D2*
X48520D1*
X8765Y13513D2*
X11037D1*
X12466D2*
X19102D1*
X44366D2*
X45279D1*
X46305D2*
X48582D1*
X8765Y13415D2*
X11082D1*
X12421D2*
X14238D1*
X16279D2*
X16724D1*
X17279D2*
X17724D1*
X18279D2*
X19204D1*
X44277D2*
X45279D1*
X46305D2*
X48673D1*
X8765Y13316D2*
X11148D1*
X12355D2*
X14238D1*
X16460D2*
X16543D1*
X17460D2*
X17543D1*
X18460D2*
X19388D1*
X44093D2*
X45279D1*
X46305D2*
X48807D1*
X49577D2*
X49717D1*
X8765Y13217D2*
X11240D1*
X12263D2*
X14238D1*
X18569D2*
X26388D1*
X27244D2*
X30388D1*
X31244D2*
X33676D1*
X36893D2*
X39052D1*
X43532D2*
X45279D1*
X46305D2*
X49140D1*
X49246D2*
X49717D1*
X8765Y13119D2*
X11379D1*
X12122D2*
X14238D1*
X18646D2*
X26268D1*
X27363D2*
X30268D1*
X31363D2*
X33576D1*
X36893D2*
X39052D1*
X43562D2*
X45279D1*
X46305D2*
X49717D1*
X8765Y13020D2*
X14238D1*
X18699D2*
X20490D1*
X27444D2*
X30187D1*
X31444D2*
X33509D1*
X36893D2*
X39052D1*
X43577D2*
X45279D1*
X46305D2*
X49717D1*
X8765Y12921D2*
X14238D1*
X18735D2*
X20371D1*
X27502D2*
X30129D1*
X31502D2*
X33462D1*
X36893D2*
X39052D1*
X43580D2*
X45279D1*
X46305D2*
X49717D1*
X8765Y12823D2*
X14238D1*
X18757D2*
X20271D1*
X27543D2*
X30088D1*
X31543D2*
X33432D1*
X36893D2*
X39052D1*
X43569D2*
X45279D1*
X46305D2*
X49717D1*
X8765Y12724D2*
X14238D1*
X18766D2*
X20173D1*
X27568D2*
X30063D1*
X31568D2*
X33417D1*
X36893D2*
X39052D1*
X43546D2*
X45279D1*
X46305D2*
X49717D1*
X8765Y12625D2*
X14238D1*
X18762D2*
X20074D1*
X27579D2*
X30052D1*
X31579D2*
X33417D1*
X36893D2*
X39052D1*
X43507D2*
X45279D1*
X46305D2*
X49717D1*
X8765Y12527D2*
X14238D1*
X18743D2*
X19976D1*
X27602D2*
X30054D1*
X31577D2*
X33429D1*
X36893D2*
X39052D1*
X43451D2*
X45210D1*
X46305D2*
X49717D1*
X8765Y12428D2*
X14238D1*
X18712D2*
X19877D1*
X27701D2*
X30070D1*
X31562D2*
X33457D1*
X36893D2*
X39052D1*
X43371D2*
X45112D1*
X46305D2*
X49717D1*
X8765Y12329D2*
X14238D1*
X18663D2*
X19779D1*
X27799D2*
X30098D1*
X31533D2*
X33502D1*
X36893D2*
X37784D1*
X38101D2*
X39052D1*
X41255D2*
X41379D1*
X42255D2*
X42379D1*
X43255D2*
X45013D1*
X46302D2*
X49717D1*
X8813Y12230D2*
X14238D1*
X18593D2*
X19681D1*
X27897D2*
X30143D1*
X31488D2*
X33570D1*
X36893D2*
X37535D1*
X38349D2*
X39052D1*
X41052D2*
X41582D1*
X42052D2*
X42582D1*
X43052D2*
X44915D1*
X46282D2*
X49717D1*
X8912Y12132D2*
X14238D1*
X18496D2*
X19581D1*
X27996D2*
X30207D1*
X31424D2*
X33665D1*
X36893D2*
X37409D1*
X38476D2*
X44817D1*
X46238D2*
X49717D1*
X9010Y12033D2*
X14238D1*
X16344D2*
X16660D1*
X17344D2*
X17660D1*
X18344D2*
X19482D1*
X20927D2*
X26298D1*
X38562D2*
X44718D1*
X46163D2*
X49717D1*
X7718Y11934D2*
X7756D1*
X16207D2*
X19384D1*
X20829D2*
X26434D1*
X38622D2*
X44618D1*
X46065D2*
X49717D1*
X7718Y11836D2*
X7795D1*
X16358D2*
X19285D1*
X20730D2*
X26848D1*
X38665D2*
X44520D1*
X45965D2*
X49717D1*
X7718Y11737D2*
X7862D1*
X16457D2*
X19187D1*
X20632D2*
X26946D1*
X38691D2*
X44421D1*
X45866D2*
X49717D1*
X7718Y11638D2*
X7960D1*
X16555D2*
X19088D1*
X20533D2*
X27045D1*
X38704D2*
X44323D1*
X45768D2*
X49717D1*
X7718Y11540D2*
X8059D1*
X16655D2*
X18988D1*
X20433D2*
X27143D1*
X38704D2*
X44224D1*
X45669D2*
X49717D1*
X7718Y11441D2*
X8157D1*
X16754D2*
X18890D1*
X20335D2*
X27242D1*
X38691D2*
X44126D1*
X45571D2*
X49717D1*
X7718Y11342D2*
X8256D1*
X16852D2*
X17401D1*
X18102D2*
X18792D1*
X20237D2*
X27342D1*
X38665D2*
X44027D1*
X45472D2*
X49717D1*
X7718Y11244D2*
X8354D1*
X16951D2*
X17252D1*
X18251D2*
X18693D1*
X20138D2*
X27440D1*
X38622D2*
X43927D1*
X45372D2*
X49717D1*
X7718Y11145D2*
X8452D1*
X17033D2*
X17157D1*
X20040D2*
X27570D1*
X38560D2*
X43829D1*
X45274D2*
X49717D1*
X7718Y11046D2*
X8568D1*
X19941D2*
X37410D1*
X38474D2*
X41995D1*
X42640D2*
X43731D1*
X45176D2*
X49717D1*
X7718Y10948D2*
X10062D1*
X12515D2*
X13898D1*
X19843D2*
X37538D1*
X38346D2*
X41835D1*
X42799D2*
X43632D1*
X45077D2*
X49717D1*
X7718Y10849D2*
X10023D1*
X12515D2*
X13815D1*
X19743D2*
X37795D1*
X38090D2*
X41734D1*
X42901D2*
X43534D1*
X44979D2*
X49717D1*
X7718Y10750D2*
X9999D1*
X12515D2*
X13768D1*
X19644D2*
X41662D1*
X42972D2*
X43435D1*
X44880D2*
X48117D1*
X48643D2*
X49717D1*
X7718Y10651D2*
X9988D1*
X12515D2*
X13743D1*
X19546D2*
X41612D1*
X43022D2*
X43335D1*
X44780D2*
X47929D1*
X48830D2*
X49717D1*
X7718Y10553D2*
X9990D1*
X12515D2*
X13738D1*
X19447D2*
X29218D1*
X41021D2*
X41577D1*
X43055D2*
X43237D1*
X44682D2*
X47818D1*
X48943D2*
X49717D1*
X7718Y10454D2*
X10006D1*
X12515D2*
X13738D1*
X19349D2*
X29037D1*
X41204D2*
X41559D1*
X43076D2*
X43140D1*
X44583D2*
X47740D1*
X49019D2*
X49717D1*
X7718Y10355D2*
X10035D1*
X12515D2*
X13738D1*
X19251D2*
X28935D1*
X41304D2*
X41552D1*
X44485D2*
X47685D1*
X49074D2*
X49640D1*
X7718Y10257D2*
X10081D1*
X12515D2*
X13738D1*
X19140D2*
X28837D1*
X41402D2*
X41560D1*
X44387D2*
X47648D1*
X49112D2*
X49542D1*
X7718Y10158D2*
X10146D1*
X12515D2*
X13738D1*
X17116D2*
X17188D1*
X18315D2*
X28738D1*
X41502D2*
X41581D1*
X44288D2*
X47626D1*
X49135D2*
X49443D1*
X7718Y10059D2*
X10237D1*
X12515D2*
X13738D1*
X14766D2*
X15120D1*
X17116D2*
X17299D1*
X18204D2*
X28640D1*
X44190D2*
X47617D1*
X49144D2*
X49345D1*
X7718Y9961D2*
X10376D1*
X12515D2*
X13738D1*
X14766D2*
X15076D1*
X17116D2*
X17487D1*
X18018D2*
X28542D1*
X44090D2*
X47620D1*
X49140D2*
X49246D1*
X7718Y9862D2*
X13738D1*
X14766D2*
X15051D1*
X17116D2*
X22315D1*
X22815D2*
X28132D1*
X43991D2*
X47637D1*
X7718Y9763D2*
X13738D1*
X14766D2*
X15038D1*
X17116D2*
X22132D1*
X22997D2*
X27992D1*
X43893D2*
X47668D1*
X7718Y9665D2*
X13738D1*
X14766D2*
X15042D1*
X17116D2*
X22026D1*
X23104D2*
X27899D1*
X43794D2*
X47717D1*
X50394D2*
X50495D1*
X7718Y9566D2*
X10282D1*
X14766D2*
X15057D1*
X17116D2*
X21954D1*
X23176D2*
X27834D1*
X29591D2*
X30849D1*
X32033D2*
X36131D1*
X37377D2*
X39810D1*
X43696D2*
X47784D1*
X50296D2*
X50495D1*
X7718Y9467D2*
X10151D1*
X14766D2*
X15088D1*
X17116D2*
X21904D1*
X23226D2*
X27788D1*
X29493D2*
X30793D1*
X32088D2*
X36085D1*
X37422D2*
X39696D1*
X43597D2*
X47881D1*
X50197D2*
X50495D1*
X7718Y9369D2*
X10052D1*
X14766D2*
X15138D1*
X17116D2*
X21871D1*
X23258D2*
X27759D1*
X29394D2*
X30756D1*
X32126D2*
X33257D1*
X35299D2*
X36056D1*
X37452D2*
X39009D1*
X43497D2*
X48027D1*
X50099D2*
X50495D1*
X7718Y9270D2*
X9954D1*
X14766D2*
X15209D1*
X17116D2*
X21854D1*
X23276D2*
X27743D1*
X29296D2*
X30734D1*
X32147D2*
X33062D1*
X35496D2*
X36042D1*
X37466D2*
X38896D1*
X43399D2*
X48554D1*
X49999D2*
X50495D1*
X7718Y9171D2*
X9856D1*
X14766D2*
X15131D1*
X17116D2*
X21851D1*
X23279D2*
X27740D1*
X29266D2*
X30720D1*
X32155D2*
X32959D1*
X35597D2*
X36042D1*
X37466D2*
X38798D1*
X43301D2*
X48456D1*
X49901D2*
X50496D1*
X7718Y9072D2*
X9757D1*
X14766D2*
X15070D1*
X17116D2*
X21862D1*
X23268D2*
X27749D1*
X29255D2*
X30621D1*
X32147D2*
X32860D1*
X35696D2*
X36056D1*
X37452D2*
X38699D1*
X43202D2*
X48357D1*
X49802D2*
X50496D1*
X7718Y8974D2*
X9681D1*
X14766D2*
X15029D1*
X17116D2*
X21888D1*
X23241D2*
X27774D1*
X29232D2*
X30521D1*
X32127D2*
X32762D1*
X35794D2*
X36084D1*
X37422D2*
X38601D1*
X43104D2*
X48259D1*
X49704D2*
X50496D1*
X7718Y8875D2*
X9637D1*
X14766D2*
X15002D1*
X17116D2*
X21931D1*
X23199D2*
X27813D1*
X29193D2*
X30423D1*
X32090D2*
X32663D1*
X35893D2*
X36131D1*
X37377D2*
X38502D1*
X43080D2*
X48160D1*
X49605D2*
X50496D1*
X7718Y8776D2*
X9617D1*
X14766D2*
X14990D1*
X17116D2*
X21993D1*
X23137D2*
X27870D1*
X29137D2*
X30324D1*
X32035D2*
X32565D1*
X35993D2*
X36198D1*
X37310D2*
X38404D1*
X43069D2*
X45304D1*
X46832D2*
X48062D1*
X49507D2*
X50496D1*
X7718Y8678D2*
X9582D1*
X14766D2*
X14990D1*
X17116D2*
X22082D1*
X23047D2*
X25367D1*
X25888D2*
X27949D1*
X29057D2*
X30226D1*
X31954D2*
X32467D1*
X36091D2*
X36295D1*
X37213D2*
X38306D1*
X43044D2*
X45304D1*
X46832D2*
X47962D1*
X49408D2*
X50496D1*
X7718Y8579D2*
X9512D1*
X12890D2*
X13738D1*
X14766D2*
X15002D1*
X17116D2*
X22223D1*
X22907D2*
X25190D1*
X26065D2*
X28065D1*
X28940D2*
X30127D1*
X31833D2*
X32367D1*
X36190D2*
X36452D1*
X37055D2*
X38206D1*
X43004D2*
X45304D1*
X46832D2*
X47863D1*
X49308D2*
X50496D1*
X7718Y8480D2*
X9462D1*
X12890D2*
X13738D1*
X14766D2*
X14988D1*
X17116D2*
X25085D1*
X31591D2*
X32268D1*
X36288D2*
X38107D1*
X42946D2*
X45304D1*
X46832D2*
X47765D1*
X49210D2*
X50498D1*
X7718Y8382D2*
X9432D1*
X12890D2*
X13738D1*
X14766D2*
X14988D1*
X17116D2*
X25013D1*
X31376D2*
X32170D1*
X39454D2*
X39626D1*
X42865D2*
X45304D1*
X46832D2*
X47667D1*
X49112D2*
X50498D1*
X7718Y8283D2*
X9415D1*
X12890D2*
X13738D1*
X14766D2*
X14988D1*
X17162D2*
X24965D1*
X31276D2*
X32071D1*
X33516D2*
X33649D1*
X34983D2*
X35041D1*
X39355D2*
X39568D1*
X42746D2*
X45304D1*
X46832D2*
X47568D1*
X49013D2*
X50498D1*
X7718Y8184D2*
X9413D1*
X12890D2*
X13738D1*
X14766D2*
X14988D1*
X17260D2*
X24934D1*
X31177D2*
X31973D1*
X33418D2*
X33620D1*
X35013D2*
X35138D1*
X39257D2*
X39527D1*
X41980D2*
X42102D1*
X42532D2*
X45304D1*
X46832D2*
X47470D1*
X48915D2*
X50498D1*
X7718Y8086D2*
X9426D1*
X12890D2*
X13738D1*
X14766D2*
X14988D1*
X17358D2*
X24917D1*
X31079D2*
X31874D1*
X33319D2*
X33604D1*
X35027D2*
X35238D1*
X39158D2*
X39502D1*
X41980D2*
X45304D1*
X46832D2*
X47370D1*
X48816D2*
X50498D1*
X7718Y7987D2*
X9452D1*
X12890D2*
X13738D1*
X14766D2*
X14988D1*
X22440D2*
X24915D1*
X30980D2*
X31774D1*
X33221D2*
X33604D1*
X35029D2*
X35337D1*
X39058D2*
X39492D1*
X41980D2*
X45304D1*
X46832D2*
X47271D1*
X48716D2*
X50498D1*
X7718Y7888D2*
X9496D1*
X12890D2*
X13738D1*
X14766D2*
X14988D1*
X22594D2*
X24926D1*
X30882D2*
X31676D1*
X33121D2*
X33617D1*
X35016D2*
X35435D1*
X38960D2*
X39493D1*
X41980D2*
X45304D1*
X46832D2*
X47173D1*
X48618D2*
X50499D1*
X7718Y7790D2*
X9560D1*
X12890D2*
X13738D1*
X14766D2*
X14988D1*
X22693D2*
X24952D1*
X30783D2*
X31577D1*
X33022D2*
X33645D1*
X34988D2*
X35534D1*
X38862D2*
X39507D1*
X41980D2*
X45304D1*
X46832D2*
X47074D1*
X48519D2*
X50499D1*
X7735Y7691D2*
X9652D1*
X12890D2*
X13738D1*
X14766D2*
X14988D1*
X22791D2*
X24996D1*
X30685D2*
X31479D1*
X32924D2*
X33690D1*
X34943D2*
X35632D1*
X38763D2*
X39490D1*
X41980D2*
X45304D1*
X46832D2*
X46976D1*
X48421D2*
X50499D1*
X7833Y7592D2*
X9798D1*
X10455D2*
X10699D1*
X12890D2*
X13738D1*
X14766D2*
X14988D1*
X22890D2*
X25059D1*
X30566D2*
X31381D1*
X32826D2*
X33756D1*
X34877D2*
X35731D1*
X38665D2*
X39490D1*
X41980D2*
X45304D1*
X46832D2*
X46876D1*
X48322D2*
X50499D1*
X7932Y7493D2*
X10915D1*
X12890D2*
X13738D1*
X14766D2*
X14988D1*
X22990D2*
X25031D1*
X26224D2*
X31282D1*
X32727D2*
X33776D1*
X34855D2*
X35832D1*
X38563D2*
X39490D1*
X41980D2*
X45304D1*
X48224D2*
X50499D1*
X12640Y7395D2*
X13738D1*
X14766D2*
X14988D1*
X16516D2*
X16604D1*
X23088D2*
X24963D1*
X26291D2*
X31184D1*
X32629D2*
X33704D1*
X34929D2*
X36020D1*
X38376D2*
X39490D1*
X41980D2*
X45304D1*
X48124D2*
X50499D1*
X12640Y7296D2*
X13738D1*
X14766D2*
X14988D1*
X16516D2*
X16702D1*
X23187D2*
X24917D1*
X26340D2*
X31084D1*
X32529D2*
X33654D1*
X34977D2*
X39490D1*
X41980D2*
X46581D1*
X48026D2*
X50501D1*
X12640Y7197D2*
X13738D1*
X14766D2*
X14988D1*
X16516D2*
X16801D1*
X23285D2*
X24885D1*
X26371D2*
X30985D1*
X32430D2*
X33623D1*
X35010D2*
X39490D1*
X41980D2*
X46482D1*
X47927D2*
X50501D1*
X12640Y7099D2*
X13738D1*
X14766D2*
X14988D1*
X16516D2*
X16915D1*
X23383D2*
X24868D1*
X26388D2*
X29693D1*
X32332D2*
X33606D1*
X35027D2*
X39490D1*
X41980D2*
X42157D1*
X42477D2*
X46384D1*
X47829D2*
X50501D1*
X12640Y7000D2*
X13738D1*
X14766D2*
X14988D1*
X16516D2*
X17063D1*
X18440D2*
X19351D1*
X20779D2*
X22037D1*
X23482D2*
X24863D1*
X26391D2*
X29581D1*
X32233D2*
X33602D1*
X35029D2*
X39490D1*
X42726D2*
X46285D1*
X47730D2*
X50501D1*
X12640Y6901D2*
X13738D1*
X14766D2*
X17024D1*
X18479D2*
X19351D1*
X20779D2*
X22135D1*
X23580D2*
X24873D1*
X26382D2*
X29482D1*
X32135D2*
X33613D1*
X35018D2*
X39490D1*
X42852D2*
X46187D1*
X47632D2*
X50501D1*
X12630Y6803D2*
X13137D1*
X13241D2*
X13738D1*
X14766D2*
X16999D1*
X18504D2*
X19351D1*
X20779D2*
X22235D1*
X23680D2*
X24896D1*
X26360D2*
X29384D1*
X32037D2*
X33640D1*
X34993D2*
X39490D1*
X42937D2*
X45927D1*
X47532D2*
X50501D1*
X7237Y6704D2*
X7277D1*
X12601D2*
X12804D1*
X13574D2*
X13738D1*
X14766D2*
X16988D1*
X18515D2*
X19351D1*
X20779D2*
X22334D1*
X23779D2*
X24913D1*
X26341D2*
X29284D1*
X31938D2*
X33602D1*
X35030D2*
X39490D1*
X42997D2*
X45665D1*
X47433D2*
X48013D1*
X48747D2*
X50501D1*
X7237Y6605D2*
X7376D1*
X12546D2*
X12670D1*
X14766D2*
X16992D1*
X18513D2*
X19351D1*
X20779D2*
X22432D1*
X23877D2*
X24913D1*
X26341D2*
X29185D1*
X31838D2*
X33602D1*
X35030D2*
X39490D1*
X43040D2*
X45537D1*
X47335D2*
X47871D1*
X48888D2*
X50502D1*
X7237Y6507D2*
X7479D1*
X12451D2*
X12579D1*
X14766D2*
X17006D1*
X18497D2*
X19351D1*
X20779D2*
X22531D1*
X23976D2*
X24913D1*
X26341D2*
X29087D1*
X31740D2*
X32127D1*
X35030D2*
X39490D1*
X43066D2*
X45449D1*
X48982D2*
X50502D1*
X7238Y6408D2*
X7685D1*
X12244D2*
X12515D1*
X14766D2*
X17035D1*
X18469D2*
X19351D1*
X20779D2*
X22629D1*
X24074D2*
X24913D1*
X26341D2*
X28988D1*
X31641D2*
X31957D1*
X35030D2*
X39490D1*
X43079D2*
X45388D1*
X49047D2*
X50502D1*
X7238Y6309D2*
X8471D1*
X9907D2*
X12471D1*
X14766D2*
X17081D1*
X18424D2*
X19351D1*
X20779D2*
X22727D1*
X24172D2*
X24913D1*
X26341D2*
X28890D1*
X31541D2*
X31857D1*
X35030D2*
X39490D1*
X43079D2*
X45346D1*
X49094D2*
X50502D1*
X7238Y6211D2*
X8443D1*
X9935D2*
X12443D1*
X14766D2*
X17145D1*
X18360D2*
X19351D1*
X20779D2*
X22827D1*
X24272D2*
X24913D1*
X26341D2*
X28792D1*
X31383D2*
X31759D1*
X35030D2*
X39490D1*
X43066D2*
X45318D1*
X49124D2*
X50502D1*
X7240Y6112D2*
X8427D1*
X9951D2*
X12427D1*
X14766D2*
X16056D1*
X18269D2*
X19351D1*
X20779D2*
X22926D1*
X24371D2*
X24913D1*
X26341D2*
X28692D1*
X30138D2*
X31660D1*
X35030D2*
X40952D1*
X43038D2*
X45306D1*
X49141D2*
X50502D1*
X7240Y6013D2*
X8426D1*
X9952D2*
X12426D1*
X14766D2*
X15867D1*
X18132D2*
X19351D1*
X20779D2*
X23024D1*
X24469D2*
X24913D1*
X26341D2*
X28593D1*
X30038D2*
X31562D1*
X35030D2*
X40462D1*
X40546D2*
X40740D1*
X42996D2*
X45306D1*
X49143D2*
X50504D1*
X7240Y5914D2*
X8437D1*
X9941D2*
X12437D1*
X14766D2*
X15754D1*
X18079D2*
X19351D1*
X21180D2*
X23123D1*
X24568D2*
X24913D1*
X26341D2*
X27738D1*
X29940D2*
X31463D1*
X35030D2*
X35990D1*
X37518D2*
X40120D1*
X42935D2*
X45318D1*
X49133D2*
X50504D1*
X7241Y5816D2*
X8462D1*
X9916D2*
X12462D1*
X14766D2*
X15676D1*
X18079D2*
X19351D1*
X21301D2*
X21851D1*
X24666D2*
X24913D1*
X26341D2*
X27738D1*
X29841D2*
X30727D1*
X35030D2*
X35990D1*
X37518D2*
X39985D1*
X42849D2*
X45345D1*
X49110D2*
X50504D1*
X7241Y5717D2*
X8502D1*
X9876D2*
X12502D1*
X14766D2*
X15620D1*
X18079D2*
X19392D1*
X21401D2*
X21851D1*
X23279D2*
X23319D1*
X24765D2*
X24913D1*
X26341D2*
X27738D1*
X29743D2*
X30727D1*
X35030D2*
X35990D1*
X37518D2*
X39895D1*
X42721D2*
X45385D1*
X49071D2*
X50504D1*
X7241Y5618D2*
X8560D1*
X9818D2*
X12560D1*
X14766D2*
X15582D1*
X18079D2*
X19365D1*
X23279D2*
X23418D1*
X29644D2*
X30727D1*
X35030D2*
X35990D1*
X37518D2*
X39831D1*
X42463D2*
X45446D1*
X49015D2*
X50504D1*
X7243Y5520D2*
X8643D1*
X9735D2*
X12643D1*
X14766D2*
X15560D1*
X18079D2*
X19352D1*
X23279D2*
X23518D1*
X29546D2*
X30727D1*
X32513D2*
X33602D1*
X35030D2*
X35990D1*
X37518D2*
X39787D1*
X42268D2*
X45532D1*
X46604D2*
X47824D1*
X48935D2*
X50504D1*
X7243Y5421D2*
X8763D1*
X9615D2*
X12763D1*
X13615D2*
X13738D1*
X14766D2*
X15551D1*
X18079D2*
X19284D1*
X23279D2*
X23617D1*
X29446D2*
X30727D1*
X32415D2*
X33602D1*
X35030D2*
X35990D1*
X37518D2*
X39757D1*
X42268D2*
X45657D1*
X46477D2*
X47940D1*
X48821D2*
X50506D1*
X7243Y5322D2*
X8982D1*
X9396D2*
X12982D1*
X13396D2*
X13738D1*
X14802D2*
X15554D1*
X18079D2*
X19184D1*
X23279D2*
X23715D1*
X29347D2*
X30727D1*
X32316D2*
X35990D1*
X37518D2*
X39743D1*
X42268D2*
X45902D1*
X46233D2*
X48140D1*
X48621D2*
X50506D1*
X7244Y5224D2*
X13738D1*
X14901D2*
X15571D1*
X18079D2*
X19085D1*
X23279D2*
X23813D1*
X29266D2*
X30727D1*
X32218D2*
X35990D1*
X37518D2*
X39742D1*
X42268D2*
X50506D1*
X7244Y5125D2*
X13738D1*
X14999D2*
X15602D1*
X18079D2*
X18987D1*
X23279D2*
X23912D1*
X29266D2*
X30727D1*
X32155D2*
X35990D1*
X37518D2*
X39752D1*
X42268D2*
X50506D1*
X7244Y5026D2*
X13752D1*
X15097D2*
X15649D1*
X18079D2*
X18888D1*
X23279D2*
X24010D1*
X29266D2*
X30727D1*
X32155D2*
X35990D1*
X37518D2*
X39777D1*
X42268D2*
X50506D1*
X7246Y4928D2*
X13790D1*
X20512D2*
X20745D1*
X23279D2*
X24110D1*
X29266D2*
X30727D1*
X32155D2*
X35990D1*
X37518D2*
X39818D1*
X42268D2*
X50506D1*
X7246Y4829D2*
X13852D1*
X20343D2*
X20843D1*
X23279D2*
X24209D1*
X29266D2*
X30727D1*
X32155D2*
X35990D1*
X37518D2*
X39876D1*
X42268D2*
X50506D1*
X7246Y4730D2*
X13949D1*
X20038D2*
X21002D1*
X23279D2*
X24334D1*
X29266D2*
X30727D1*
X32155D2*
X35990D1*
X37518D2*
X39959D1*
X42268D2*
X50507D1*
X7247Y4632D2*
X14048D1*
X19938D2*
X21851D1*
X23279D2*
X27738D1*
X29266D2*
X30727D1*
X32155D2*
X35990D1*
X37518D2*
X40077D1*
X42268D2*
X50507D1*
X7247Y4533D2*
X14146D1*
X19840D2*
X21851D1*
X23279D2*
X27738D1*
X29266D2*
X30727D1*
X32155D2*
X35990D1*
X37518D2*
X40295D1*
X42268D2*
X50507D1*
X7247Y4434D2*
X14245D1*
X19741D2*
X50507D1*
X37724Y4335D2*
X50507D1*
X23267Y9150D2*
X23253Y9051D1*
X23225Y8955D1*
X23184Y8864D1*
X23130Y8780D1*
X23065Y8704D1*
X22989Y8638D1*
X22906Y8584D1*
X22815Y8542D1*
X22719Y8513D1*
X22621Y8498D1*
X22521Y8497D1*
X22422Y8511D1*
X22326Y8538D1*
X22234Y8578D1*
X22150Y8632D1*
X22073Y8696D1*
X22007Y8771D1*
X21952Y8854D1*
X21909Y8944D1*
X21879Y9040D1*
X21864Y9138D1*
X21862Y9238D1*
X21874Y9337D1*
X21901Y9434D1*
X21941Y9525D1*
X21993Y9611D1*
X22057Y9687D1*
X22131Y9754D1*
X22214Y9810D1*
X22304Y9854D1*
X22399Y9884D1*
X22497Y9901D1*
X22597Y9903D1*
X22697Y9892D1*
X22793Y9866D1*
X22885Y9827D1*
X22971Y9775D1*
X23048Y9712D1*
X23116Y9638D1*
X23172Y9556D1*
X23216Y9467D1*
X23248Y9372D1*
X23265Y9273D1*
X23269Y9200D1*
X23267Y9150D1*
X21911Y5904D2*
X23144D1*
X22031Y7016D1*
X20770D1*
X20769Y6284D1*
Y5982D1*
X20915Y5984D1*
X21014Y5974D1*
X21109Y5945D1*
X21197Y5897D1*
X21274Y5833D1*
X21402Y5705D1*
X21862Y5704D1*
X21861Y5904D1*
X21911D1*
X23269Y5777D2*
Y4496D1*
X21861D1*
Y4698D1*
X21565Y4696D1*
X21145Y4698D1*
X21047Y4718D1*
X20955Y4757D1*
X20872Y4813D1*
X20767Y4914D1*
X20707Y4975D1*
X20557Y4976D1*
X20489Y4918D1*
X20405Y4864D1*
X20315Y4822D1*
X20219Y4793D1*
X20120Y4778D1*
X20072Y4776D1*
X19820Y4523D1*
X19682Y4384D1*
X20088D1*
X50518Y4300D1*
X50504Y9783D1*
X49702Y8982D1*
X47264Y6544D1*
X47820D1*
X47875Y6600D1*
X47954Y6662D1*
X48040Y6713D1*
X48132Y6752D1*
X48228Y6779D1*
X48327Y6792D1*
X48427Y6793D1*
X48526Y6780D1*
X48623Y6754D1*
X48715Y6716D1*
X48801Y6665D1*
X48880Y6604D1*
X48950Y6533D1*
X49011Y6453D1*
X49060Y6366D1*
X49097Y6274D1*
X49122Y6177D1*
X49133Y6078D1*
X49132Y5990D1*
X49119Y5891D1*
X49093Y5795D1*
X49054Y5702D1*
X49004Y5616D1*
X48942Y5537D1*
X48871Y5468D1*
X48791Y5408D1*
X48704Y5359D1*
X48611Y5322D1*
X48514Y5298D1*
X48414Y5287D1*
X48315Y5289D1*
X48216Y5304D1*
X48120Y5332D1*
X48029Y5373D1*
X47943Y5425D1*
X47866Y5488D1*
X47819Y5537D1*
X46610Y5536D1*
X46558Y5488D1*
X46478Y5428D1*
X46391Y5379D1*
X46298Y5342D1*
X46201Y5318D1*
X46102Y5307D1*
X46002Y5309D1*
X45903Y5324D1*
X45807Y5352D1*
X45716Y5393D1*
X45631Y5445D1*
X45553Y5508D1*
X45485Y5581D1*
X45427Y5662D1*
X45380Y5751D1*
X45345Y5844D1*
X45323Y5942D1*
X45314Y6041D1*
X45318Y6141D1*
X45335Y6239D1*
X45365Y6335D1*
X45408Y6425D1*
X45462Y6509D1*
X45526Y6585D1*
X45601Y6652D1*
X45683Y6709D1*
X45772Y6754D1*
X45867Y6787D1*
X45965Y6807D1*
X46064Y6814D1*
X46106Y6813D1*
X46600Y7306D1*
X45313D1*
Y8814D1*
X46821D1*
Y7528D1*
X47408Y8113D1*
X48620Y9325D1*
X48563Y9308D1*
X48464Y9291D1*
X48364Y9286D1*
X48265Y9295D1*
X48167Y9317D1*
X48074Y9351D1*
X47985Y9398D1*
X47904Y9456D1*
X47831Y9524D1*
X47767Y9601D1*
X47714Y9686D1*
X47673Y9777D1*
X47645Y9873D1*
X47629Y9971D1*
X47627Y10071D1*
X47637Y10171D1*
X47661Y10268D1*
X47698Y10361D1*
X47746Y10448D1*
X47806Y10528D1*
X47875Y10600D1*
X47954Y10662D1*
X48040Y10713D1*
X48132Y10752D1*
X48228Y10779D1*
X48327Y10792D1*
X48427Y10793D1*
X48526Y10780D1*
X48623Y10754D1*
X48715Y10716D1*
X48801Y10665D1*
X48880Y10604D1*
X48950Y10533D1*
X49011Y10453D1*
X49060Y10366D1*
X49097Y10274D1*
X49122Y10177D1*
X49133Y10078D1*
X49132Y9990D1*
X49119Y9891D1*
X49094Y9799D1*
X49727Y10433D1*
X49726Y11023D1*
Y13437D1*
X49644Y13366D1*
X49561Y13312D1*
X49470Y13269D1*
X49375Y13238D1*
X49277Y13221D1*
X49177Y13216D1*
X49077Y13225D1*
X48980Y13247D1*
X48886Y13281D1*
X48798Y13328D1*
X48716Y13386D1*
X48643Y13454D1*
X48580Y13531D1*
X48527Y13616D1*
X48486Y13707D1*
X48457Y13803D1*
X48442Y13901D1*
X48439Y14001D1*
X48450Y14101D1*
X48474Y14198D1*
X48500Y14266D1*
X48489D1*
Y15674D1*
X49725D1*
X49726Y16073D1*
X49724Y16431D1*
X49664Y16351D1*
X49594Y16280D1*
X49514Y16220D1*
X49426Y16171D1*
X49333Y16136D1*
X49236Y16114D1*
X49136Y16106D1*
X49036Y16112D1*
X48938Y16133D1*
X48844Y16167D1*
X48756Y16213D1*
X48676Y16272D1*
X48604Y16342D1*
X48543Y16421D1*
X48494Y16508D1*
X48458Y16601D1*
X48435Y16699D1*
X48426Y16800D1*
X47996Y17231D1*
X46052Y19179D1*
X45997Y19262D1*
X45959Y19354D1*
X45940Y19452D1*
X45938Y19598D1*
Y21131D1*
X45696Y21374D1*
Y20336D1*
X44188D1*
Y20378D1*
X44125Y20358D1*
X44026Y20341D1*
X43927Y20336D1*
X43827Y20345D1*
X43729Y20367D1*
X43636Y20401D1*
X43547Y20448D1*
X43466Y20506D1*
X43446Y20523D1*
Y20030D1*
X43436Y19931D1*
X43407Y19835D1*
X43359Y19747D1*
X43296Y19671D1*
X43218Y19608D1*
X43129Y19562D1*
X43033Y19534D1*
X42934Y19526D1*
X31350D1*
X31281Y19458D1*
X31201Y19398D1*
X31114Y19349D1*
X31021Y19312D1*
X30924Y19288D1*
X30824Y19277D1*
X30725Y19279D1*
X30626Y19294D1*
X30530Y19322D1*
X30439Y19363D1*
X30353Y19415D1*
X30276Y19478D1*
X30229Y19527D1*
X24990Y19526D1*
X19489Y19528D1*
X19391Y19548D1*
X19299Y19587D1*
X19216Y19643D1*
X19112Y19744D1*
X18549Y20311D1*
X18494Y20394D1*
X18456Y20486D1*
X18437Y20584D1*
X18435Y20730D1*
Y20913D1*
X18391Y20876D1*
X18307Y20822D1*
X18217Y20779D1*
X18121Y20748D1*
X18023Y20731D1*
X17923Y20726D1*
X17824Y20735D1*
X17726Y20757D1*
X17632Y20791D1*
X17544Y20838D1*
X17519Y20854D1*
X17445Y20792D1*
X17361Y20738D1*
X17271Y20693D1*
X17177Y20660D1*
X17080Y20638D1*
X16980Y20627D1*
X16880Y20628D1*
X16781Y20641D1*
X16684Y20665D1*
X16591Y20700D1*
X16502Y20746D1*
X16438Y20789D1*
X16361Y20738D1*
X16271Y20693D1*
X16177Y20660D1*
X16080Y20638D1*
X15980Y20627D1*
X15880Y20628D1*
X15781Y20641D1*
X15684Y20665D1*
X15591Y20700D1*
X15502Y20746D1*
X15419Y20802D1*
X15359Y20854D1*
X15307Y20822D1*
X15217Y20779D1*
X15121Y20748D1*
X15023Y20731D1*
X14923Y20726D1*
X14824Y20735D1*
X14726Y20757D1*
X14632Y20791D1*
X14544Y20838D1*
X14463Y20896D1*
X14440Y20915D1*
X14350Y20848D1*
X14262Y20799D1*
X14170Y20762D1*
X14073Y20738D1*
X13973Y20727D1*
X13873Y20729D1*
X13775Y20744D1*
X13679Y20772D1*
X13587Y20813D1*
X13502Y20865D1*
X13440Y20915D1*
X13350Y20848D1*
X13262Y20799D1*
X13170Y20762D1*
X13073Y20738D1*
X12973Y20727D1*
X12873Y20729D1*
X12775Y20744D1*
X12679Y20772D1*
X12587Y20813D1*
X12502Y20865D1*
X12454Y20903D1*
X12482Y20816D1*
X12500Y20717D1*
X12505Y20630D1*
X12499Y20530D1*
X12479Y20432D1*
X12446Y20338D1*
X12402Y20249D1*
X12345Y20166D1*
X12279Y20091D1*
X12255Y20069D1*
Y15797D1*
X12305Y15888D1*
X12364Y15968D1*
X12434Y16040D1*
X12513Y16102D1*
X12599Y16153D1*
X12690Y16192D1*
X12787Y16219D1*
X12886Y16232D1*
X12986Y16233D1*
X13085Y16220D1*
X13181Y16194D1*
X13274Y16156D1*
X13359Y16106D1*
X13407Y16148D1*
X13489Y16206D1*
X13576Y16253D1*
X13669Y16290D1*
X13766Y16316D1*
X13865Y16331D1*
X13965Y16334D1*
X14064Y16325D1*
X14162Y16304D1*
X14257Y16273D1*
X14347Y16230D1*
X14432Y16177D1*
X14510Y16115D1*
X14520Y16105D1*
X14599Y16153D1*
X14690Y16192D1*
X14787Y16219D1*
X14886Y16232D1*
X14986Y16233D1*
X15085Y16220D1*
X15181Y16194D1*
X15274Y16156D1*
X15360Y16105D1*
X15438Y16045D1*
X15513Y16102D1*
X15599Y16153D1*
X15690Y16192D1*
X15787Y16219D1*
X15886Y16232D1*
X15986Y16233D1*
X16085Y16220D1*
X16181Y16194D1*
X16274Y16156D1*
X16360Y16105D1*
X16438Y16045D1*
X16513Y16102D1*
X16599Y16153D1*
X16690Y16192D1*
X16787Y16219D1*
X16886Y16232D1*
X16986Y16233D1*
X17085Y16220D1*
X17181Y16194D1*
X17274Y16156D1*
X17360Y16105D1*
X17438Y16045D1*
X17513Y16102D1*
X17599Y16153D1*
X17690Y16192D1*
X17787Y16219D1*
X17886Y16232D1*
X17986Y16233D1*
X18085Y16220D1*
X18181Y16194D1*
X18274Y16156D1*
X18360Y16105D1*
X18438Y16045D1*
X18513Y16102D1*
X18599Y16153D1*
X18690Y16192D1*
X18787Y16219D1*
X18886Y16232D1*
X18986Y16233D1*
X19085Y16220D1*
X19181Y16194D1*
X19274Y16156D1*
X19360Y16105D1*
X19438Y16045D1*
X19513Y16102D1*
X19599Y16153D1*
X19690Y16192D1*
X19787Y16219D1*
X19886Y16232D1*
X19986Y16233D1*
X20085Y16220D1*
X20181Y16194D1*
X20274Y16156D1*
X20360Y16105D1*
X20439Y16044D1*
X20500Y15983D1*
X27239Y15984D1*
X28181D1*
X28108Y16061D1*
X28049Y16142D1*
X28002Y16231D1*
X27968Y16324D1*
X27945Y16422D1*
X27936Y16521D1*
X27940Y16621D1*
X27958Y16719D1*
X27988Y16815D1*
X28030Y16905D1*
X28084Y16989D1*
X28149Y17065D1*
X28223Y17132D1*
X28306Y17189D1*
X28395Y17234D1*
X28489Y17267D1*
X28587Y17287D1*
X28687Y17294D1*
X28787Y17288D1*
X28885Y17268D1*
X28979Y17236D1*
X29069Y17192D1*
X29152Y17136D1*
X29226Y17070D1*
X29251Y17043D1*
X35990Y17044D1*
X45242Y17042D1*
X45340Y17022D1*
X45432Y16983D1*
X45515Y16927D1*
X45619Y16826D1*
X46182Y16259D1*
X46237Y16176D1*
X46275Y16084D1*
X46294Y15986D1*
X46296Y15840D1*
X46294Y12335D1*
X46274Y12237D1*
X46235Y12145D1*
X46179Y12063D1*
X46078Y11958D1*
X43070Y8948D1*
X43069Y8860D1*
X43056Y8761D1*
X43030Y8665D1*
X42991Y8572D1*
X42941Y8486D1*
X42879Y8407D1*
X42808Y8338D1*
X42728Y8278D1*
X42640Y8229D1*
X42548Y8192D1*
X42451Y8168D1*
X42351Y8157D1*
X42251Y8159D1*
X42153Y8174D1*
X42057Y8202D1*
X41970Y8241D1*
X41971Y7920D1*
Y7031D1*
X42069Y7072D1*
X42165Y7099D1*
X42264Y7112D1*
X42364Y7113D1*
X42463Y7100D1*
X42559Y7074D1*
X42652Y7036D1*
X42738Y6985D1*
X42817Y6924D1*
X42887Y6853D1*
X42948Y6773D1*
X42997Y6686D1*
X43034Y6594D1*
X43058Y6497D1*
X43070Y6398D1*
X43069Y6310D1*
X43056Y6211D1*
X43030Y6115D1*
X42991Y6022D1*
X42941Y5936D1*
X42879Y5857D1*
X42808Y5788D1*
X42728Y5728D1*
X42640Y5679D1*
X42548Y5642D1*
X42451Y5618D1*
X42351Y5607D1*
X42259Y5608D1*
X42258Y4506D1*
X40750D1*
Y4548D1*
X40687Y4528D1*
X40589Y4511D1*
X40489Y4506D1*
X40389Y4515D1*
X40292Y4537D1*
X40198Y4571D1*
X40109Y4618D1*
X40028Y4676D1*
X39955Y4744D1*
X39891Y4821D1*
X39839Y4906D1*
X39798Y4997D1*
X39769Y5093D1*
X39753Y5191D1*
X39751Y5291D1*
X39762Y5391D1*
X39785Y5488D1*
X39822Y5581D1*
X39870Y5668D1*
X39930Y5748D1*
X39999Y5820D1*
X40078Y5882D1*
X40164Y5933D1*
X40256Y5972D1*
X40352Y5999D1*
X40451Y6012D1*
X40551Y6013D1*
X40650Y6000D1*
X40751Y5972D1*
X40750Y6014D1*
X40964D1*
X40963Y6196D1*
X39500D1*
Y7704D1*
X39542D1*
X39519Y7783D1*
X39503Y7881D1*
X39501Y7981D1*
X39512Y8081D1*
X39535Y8178D1*
X39572Y8271D1*
X39620Y8358D1*
X39680Y8438D1*
X39687Y8446D1*
X39509D1*
X38586Y7524D1*
X38509Y7460D1*
X38421Y7414D1*
X38325Y7385D1*
X38225Y7376D1*
X36166D1*
X36067Y7386D1*
X35971Y7415D1*
X35883Y7463D1*
X35807Y7527D1*
X34958Y8375D1*
X34947Y8342D1*
X34985Y8250D1*
X35009Y8153D1*
X35020Y8053D1*
X35018Y7980D1*
X35004Y7881D1*
X34976Y7785D1*
X34935Y7694D1*
X34881Y7610D1*
X34812Y7531D1*
X34867Y7468D1*
X34923Y7386D1*
X34968Y7297D1*
X34999Y7202D1*
X35016Y7103D1*
X35020Y7030D1*
X35013Y6930D1*
X34992Y6833D1*
X34955Y6735D1*
X35020Y6734D1*
Y5326D1*
X33612D1*
Y5528D1*
X33316Y5526D1*
X32508D1*
X32146Y5162D1*
X32145Y4466D1*
X30737D1*
Y5874D1*
X31432D1*
X31981Y6420D1*
X32065Y6475D1*
X32157Y6513D1*
X32255Y6532D1*
X32401Y6534D1*
X33612D1*
Y6734D1*
X33676D1*
X33644Y6821D1*
X33621Y6919D1*
X33612Y7018D1*
X33618Y7118D1*
X33637Y7216D1*
X33670Y7310D1*
X33716Y7399D1*
X33775Y7480D1*
X33820Y7529D1*
X33758Y7601D1*
X33703Y7684D1*
X33660Y7774D1*
X33631Y7870D1*
X33615Y7968D1*
X33613Y8068D1*
X33626Y8167D1*
X33652Y8264D1*
X33692Y8355D1*
X33703Y8376D1*
X33599D1*
X31547Y6324D1*
X31470Y6260D1*
X31382Y6214D1*
X31286Y6185D1*
X31187Y6176D1*
X30192D1*
X29258Y5242D1*
X29257Y4446D1*
X27749D1*
Y4698D1*
X27453Y4696D1*
X26629Y4694D1*
X26547Y4673D1*
X26463Y4666D1*
X24590D1*
X24490Y4676D1*
X24395Y4705D1*
X24307Y4753D1*
X24231Y4817D1*
X23269Y5778D1*
X32143Y9120D2*
X32129Y9021D1*
X32101Y8925D1*
X32060Y8834D1*
X32006Y8750D1*
X31941Y8674D1*
X31865Y8608D1*
X31782Y8554D1*
X31691Y8512D1*
X31595Y8483D1*
X31497Y8468D1*
X31448Y8466D1*
X31196Y8213D1*
X30610Y7630D1*
X30527Y7575D1*
X30435Y7537D1*
X30337Y7518D1*
X30191Y7516D1*
X26195D1*
X26258Y7433D1*
X26307Y7346D1*
X26345Y7254D1*
X26369Y7157D1*
X26381Y7058D1*
X26380Y6970D1*
X26367Y6871D1*
X26341Y6775D1*
X26321Y6724D1*
X26332D1*
Y5679D1*
X26408Y5697D1*
X26493Y5704D1*
X27750D1*
X27749Y5954D1*
X28544D1*
X29627Y7036D1*
X29704Y7100D1*
X29792Y7146D1*
X29888Y7175D1*
X29987Y7184D1*
X30981D1*
X33034Y9236D1*
X33112Y9300D1*
X33200Y9346D1*
X33295Y9375D1*
X33395Y9384D1*
X35166D1*
X35265Y9374D1*
X35361Y9345D1*
X35449Y9297D1*
X35525Y9233D1*
X36374Y8385D1*
X38021Y8384D1*
X38943Y9306D1*
X39021Y9370D1*
X39109Y9416D1*
X39204Y9445D1*
X39304Y9454D1*
X39695D1*
X39749Y9510D1*
X39819Y9565D1*
X37867Y9566D1*
X37365D1*
X37405Y9487D1*
X37437Y9392D1*
X37454Y9293D1*
X37458Y9220D1*
X37451Y9120D1*
X37430Y9023D1*
X37395Y8929D1*
X37347Y8841D1*
X37288Y8761D1*
X37217Y8690D1*
X37138Y8630D1*
X37050Y8581D1*
X36957Y8546D1*
X36859Y8524D1*
X36760Y8516D1*
X36660Y8522D1*
X36562Y8543D1*
X36468Y8577D1*
X36380Y8623D1*
X36299Y8682D1*
X36228Y8752D1*
X36167Y8831D1*
X36118Y8918D1*
X36081Y9011D1*
X36059Y9109D1*
X36050Y9208D1*
X36055Y9308D1*
X36075Y9406D1*
X36108Y9500D1*
X36141Y9566D1*
X32022D1*
X32072Y9482D1*
X32110Y9390D1*
X32134Y9293D1*
X32144Y9193D1*
X32143Y9120D1*
X30737Y9179D2*
X30742Y9258D1*
X30762Y9356D1*
X30795Y9450D1*
X30841Y9539D1*
X30859Y9566D1*
X29581D1*
X29255Y9240D1*
Y9150D1*
X29242Y9051D1*
X29216Y8955D1*
X29177Y8862D1*
X29127Y8776D1*
X29065Y8697D1*
X28994Y8628D1*
X28914Y8568D1*
X28836Y8524D1*
X30082D1*
X30738Y9180D1*
X28170Y8524D2*
X28108Y8558D1*
X28027Y8616D1*
X27953Y8684D1*
X27890Y8761D1*
X27837Y8846D1*
X27796Y8937D1*
X27768Y9033D1*
X27752Y9131D1*
X27750Y9231D1*
X27760Y9331D1*
X27784Y9428D1*
X27821Y9521D1*
X27869Y9608D1*
X27928Y9688D1*
X27998Y9760D1*
X28077Y9822D1*
X28163Y9873D1*
X28255Y9912D1*
X28351Y9939D1*
X28450Y9952D1*
X28542Y9953D1*
X29017Y10426D1*
X29094Y10490D1*
X29182Y10536D1*
X29278Y10565D1*
X29377Y10574D1*
X40867D1*
X40966Y10564D1*
X41062Y10535D1*
X41150Y10487D1*
X41226Y10423D1*
X41660Y9990D1*
X41629Y10051D1*
X41594Y10144D1*
X41572Y10242D1*
X41563Y10341D1*
X41567Y10441D1*
X41585Y10539D1*
X41615Y10635D1*
X41657Y10725D1*
X41711Y10809D1*
X41776Y10885D1*
X41850Y10952D1*
X41933Y11009D1*
X42022Y11054D1*
X42116Y11087D1*
X42214Y11107D1*
X42314Y11114D1*
X42414Y11108D1*
X42512Y11088D1*
X42606Y11056D1*
X42696Y11012D1*
X42779Y10956D1*
X42853Y10890D1*
X42919Y10814D1*
X42974Y10731D1*
X43017Y10641D1*
X43048Y10546D1*
X43066Y10447D1*
X43071Y10375D1*
X44011Y11317D1*
X45287Y12593D1*
X45288Y13785D1*
Y14421D1*
X45220Y14389D1*
X45125Y14358D1*
X45026Y14341D1*
X44927Y14336D1*
X44827Y14345D1*
X44729Y14367D1*
X44636Y14401D1*
X44547Y14448D1*
X44466Y14506D1*
X44446Y14523D1*
Y13800D1*
X44436Y13701D1*
X44407Y13605D1*
X44359Y13517D1*
X44296Y13441D1*
X44218Y13378D1*
X44129Y13332D1*
X44033Y13304D1*
X43934Y13296D1*
X43487D1*
X43534Y13184D1*
X43558Y13087D1*
X43570Y12988D1*
X43569Y12900D1*
X43556Y12801D1*
X43530Y12705D1*
X43491Y12612D1*
X43440Y12526D1*
X43379Y12447D1*
X43308Y12378D1*
X43228Y12318D1*
X43140Y12269D1*
X43047Y12232D1*
X42951Y12208D1*
X42851Y12197D1*
X42751Y12199D1*
X42653Y12214D1*
X42557Y12242D1*
X42465Y12283D1*
X42380Y12335D1*
X42318Y12385D1*
X42228Y12318D1*
X42140Y12269D1*
X42047Y12232D1*
X41951Y12208D1*
X41851Y12197D1*
X41751Y12199D1*
X41653Y12214D1*
X41557Y12242D1*
X41465Y12283D1*
X41380Y12335D1*
X41318Y12385D1*
X41228Y12318D1*
X41140Y12269D1*
X41047Y12232D1*
X40951Y12208D1*
X40851Y12197D1*
X40751Y12199D1*
X40653Y12214D1*
X40570Y12238D1*
X40571Y12196D1*
X39063D1*
Y13298D1*
X38892Y13296D1*
X36881D1*
X36883Y13074D1*
Y12094D1*
X37383D1*
X37437Y12150D1*
X37516Y12212D1*
X37602Y12263D1*
X37694Y12302D1*
X37790Y12329D1*
X37889Y12342D1*
X37989Y12343D1*
X38088Y12330D1*
X38185Y12304D1*
X38277Y12266D1*
X38363Y12215D1*
X38442Y12154D1*
X38513Y12083D1*
X38573Y12003D1*
X38622Y11916D1*
X38659Y11824D1*
X38684Y11727D1*
X38695Y11628D1*
Y11540D1*
X38681Y11441D1*
X38655Y11345D1*
X38616Y11252D1*
X38566Y11166D1*
X38504Y11087D1*
X38433Y11018D1*
X38353Y10958D1*
X38266Y10909D1*
X38173Y10872D1*
X38076Y10848D1*
X37977Y10837D1*
X37877Y10839D1*
X37778Y10854D1*
X37682Y10882D1*
X37591Y10923D1*
X37506Y10975D1*
X37428Y11038D1*
X37381Y11087D1*
X32142Y11086D1*
X27766Y11088D1*
X27668Y11108D1*
X27576Y11147D1*
X27493Y11203D1*
X27389Y11304D1*
X26855Y11838D1*
X26800Y11836D1*
X26701Y11845D1*
X26603Y11867D1*
X26509Y11901D1*
X26421Y11948D1*
X26339Y12006D1*
X26266Y12074D1*
X26255Y12087D1*
X21016Y12086D1*
X20970D1*
X19198Y10314D1*
X19121Y10250D1*
X19033Y10204D1*
X18937Y10175D1*
X18838Y10166D1*
X18312D1*
X18243Y10098D1*
X18163Y10038D1*
X18075Y9989D1*
X17982Y9952D1*
X17886Y9928D1*
X17786Y9917D1*
X17686Y9919D1*
X17588Y9934D1*
X17492Y9962D1*
X17400Y10003D1*
X17315Y10055D1*
X17238Y10118D1*
X17169Y10191D1*
X17111Y10272D1*
X17106Y10282D1*
Y8328D1*
X17410Y8024D1*
X22240D1*
X22339Y8014D1*
X22435Y7985D1*
X22522Y7937D1*
X22599Y7873D1*
X24798Y5674D1*
X24923D1*
X24924Y6466D1*
Y6724D1*
X24935D1*
X24905Y6804D1*
X24883Y6902D1*
X24874Y7001D1*
X24878Y7101D1*
X24895Y7199D1*
X24925Y7295D1*
X24968Y7385D1*
X25022Y7469D1*
X25087Y7545D1*
X25099Y7557D1*
X25041Y7631D1*
X24992Y7718D1*
X24955Y7811D1*
X24932Y7909D1*
X24924Y8008D1*
X24929Y8108D1*
X24949Y8206D1*
X24982Y8300D1*
X25028Y8389D1*
X25086Y8470D1*
X25155Y8542D1*
X25234Y8604D1*
X25321Y8654D1*
X25414Y8691D1*
X25511Y8714D1*
X25610Y8724D1*
X25710Y8719D1*
X25808Y8700D1*
X25903Y8668D1*
X25992Y8623D1*
X26073Y8565D1*
X26118Y8524D1*
X28170D1*
X36050Y5974D2*
X37508D1*
Y4466D1*
X36000D1*
Y5974D1*
X36050D1*
X47340Y24624D2*
X48134D1*
Y24582D1*
X48228Y24609D1*
X48327Y24622D1*
X48427Y24623D1*
X48526Y24610D1*
X48622Y24584D1*
X48715Y24546D1*
X48801Y24495D1*
X48879Y24435D1*
X48954Y24492D1*
X49040Y24543D1*
X49132Y24582D1*
X49228Y24609D1*
X49327Y24622D1*
X49427Y24623D1*
X49526Y24610D1*
X49622Y24584D1*
X49715Y24546D1*
X49727Y24539D1*
X49726Y25073D1*
Y25630D1*
X49422Y25936D1*
X38980D1*
X38447D1*
X38510Y25853D1*
X38559Y25766D1*
X38596Y25674D1*
X38620Y25577D1*
X38632Y25478D1*
X38631Y25390D1*
X38618Y25291D1*
X38591Y25193D1*
X38633Y25194D1*
Y23686D1*
X37125D1*
Y24938D1*
X36829Y24936D1*
X34340Y24938D1*
X34242Y24958D1*
X34150Y24997D1*
X34068Y25053D1*
X33963Y25154D1*
X33400Y25721D1*
X33345Y25804D1*
X33307Y25896D1*
X33288Y25994D1*
X33286Y26140D1*
Y28820D1*
X33218Y28789D1*
X33123Y28758D1*
X33024Y28741D1*
X32924Y28736D1*
X32825Y28745D1*
X32727Y28767D1*
X32634Y28801D1*
X32545Y28848D1*
X32464Y28906D1*
X32391Y28974D1*
X32327Y29051D1*
X32274Y29136D1*
X32233Y29227D1*
X32205Y29323D1*
X32189Y29421D1*
X32187Y29521D1*
X32197Y29621D1*
X32221Y29718D1*
X32258Y29811D1*
X32306Y29898D1*
X32366Y29978D1*
X32375Y29989D1*
X32299Y30092D1*
X32252Y30181D1*
X32218Y30274D1*
X32195Y30372D1*
X32186Y30471D1*
X32190Y30571D1*
X32208Y30669D1*
X32238Y30765D1*
X32280Y30855D1*
X32334Y30939D1*
X32375Y30989D1*
X32299Y31092D1*
X32252Y31181D1*
X32218Y31274D1*
X32195Y31372D1*
X32186Y31471D1*
X32190Y31571D1*
X32208Y31669D1*
X32238Y31765D1*
X32280Y31855D1*
X32334Y31939D1*
X32375Y31989D1*
X32299Y32092D1*
X32252Y32181D1*
X32218Y32274D1*
X32195Y32372D1*
X32186Y32471D1*
X32190Y32571D1*
X32208Y32669D1*
X32238Y32765D1*
X32280Y32855D1*
X32334Y32939D1*
X32373Y32986D1*
X32298D1*
X31994Y32682D1*
Y23440D1*
X31984Y23341D1*
X31955Y23245D1*
X31907Y23157D1*
X31843Y23081D1*
X31256Y22493D1*
X33040Y22494D1*
X35488D1*
X35441Y22581D1*
X35406Y22674D1*
X35384Y22772D1*
X35375Y22871D1*
X35379Y22971D1*
X35396Y23069D1*
X35427Y23165D1*
X35469Y23255D1*
X35523Y23339D1*
X35588Y23415D1*
X35662Y23482D1*
X35744Y23539D1*
X35834Y23584D1*
X35928Y23617D1*
X36026Y23637D1*
X36126Y23644D1*
X36225Y23638D1*
X36323Y23618D1*
X36418Y23586D1*
X36507Y23542D1*
X36590Y23486D1*
X36665Y23420D1*
X36690Y23393D1*
X40968Y23394D1*
X41025Y23450D1*
X41103Y23512D1*
X41189Y23563D1*
X41281Y23602D1*
X41377Y23629D1*
X41476Y23642D1*
X41576Y23643D1*
X41675Y23630D1*
X41772Y23604D1*
X41864Y23566D1*
X41877Y23559D1*
X41875Y24096D1*
Y24604D1*
X42127D1*
X42125Y24720D1*
X42135Y24819D1*
X42165Y24915D1*
X42212Y25003D1*
X42276Y25079D1*
X42354Y25142D1*
X42442Y25188D1*
X42538Y25216D1*
X42638Y25224D1*
X46530D1*
X46629Y25214D1*
X46725Y25185D1*
X46813Y25137D1*
X46889Y25073D1*
X47338Y24624D1*
X48134Y23157D2*
Y23116D1*
X47467D1*
X47540Y23083D1*
X47623Y23027D1*
X47727Y22926D1*
X49090Y21563D1*
X49177D1*
X49276Y21550D1*
X49373Y21524D1*
X49465Y21486D1*
X49551Y21435D1*
X49630Y21374D1*
X49701Y21303D1*
X49726Y21273D1*
Y23199D1*
X49611Y23152D1*
X49514Y23128D1*
X49414Y23117D1*
X49314Y23119D1*
X49216Y23134D1*
X49120Y23162D1*
X49029Y23203D1*
X48943Y23255D1*
X48881Y23305D1*
X48791Y23238D1*
X48704Y23189D1*
X48611Y23152D1*
X48514Y23128D1*
X48414Y23117D1*
X48314Y23119D1*
X48216Y23134D1*
X48133Y23158D1*
X46626Y23143D2*
Y23911D1*
X46322Y24215D1*
X45288Y24216D1*
X45329Y24131D1*
X45360Y24036D1*
X45378Y23937D1*
X45383Y23850D1*
X45382Y23811D1*
X46048Y23145D1*
X46625Y23144D1*
X43383Y23137D2*
Y23096D1*
X42254D1*
X42271Y23027D1*
X42283Y22928D1*
X42282Y22840D1*
X42269Y22741D1*
X42242Y22645D1*
X42204Y22552D1*
X42171Y22494D1*
X45271Y22496D1*
X44669Y23098D1*
X44614Y23096D1*
X44514Y23105D1*
X44417Y23127D1*
X44323Y23161D1*
X44235Y23208D1*
X44153Y23266D1*
X44131Y23285D1*
X44040Y23218D1*
X43953Y23169D1*
X43860Y23132D1*
X43763Y23108D1*
X43664Y23097D1*
X43564Y23099D1*
X43465Y23114D1*
X43383Y23138D1*
X9003Y27650D2*
X8990Y27551D1*
X8964Y27455D1*
X8925Y27362D1*
X8874Y27276D1*
X8818Y27203D1*
X9124Y27204D1*
X9496Y27576D1*
X9573Y27640D1*
X9661Y27686D1*
X9757Y27715D1*
X9856Y27724D1*
X14135D1*
X14193Y27774D1*
X14276Y27830D1*
X14366Y27874D1*
X14461Y27904D1*
X14559Y27921D1*
X14659Y27923D1*
X14758Y27912D1*
X14855Y27886D1*
X14947Y27847D1*
X15033Y27795D1*
X15090Y27750D1*
X15160Y27812D1*
X15243Y27869D1*
X15332Y27914D1*
X15426Y27947D1*
X15524Y27967D1*
X15624Y27974D1*
X15723Y27968D1*
X15821Y27948D1*
X15923Y27913D1*
Y27924D1*
X17331D1*
Y27722D1*
X17497Y27724D1*
X17498Y28068D1*
X17443Y28054D1*
X17343Y28046D1*
X8922D1*
X8968Y27934D1*
X8992Y27837D1*
X9004Y27738D1*
X9003Y27650D1*
X19426Y5776D2*
X19361D1*
Y7015D1*
X18740Y7016D1*
X18423D1*
X18469Y6904D1*
X18493Y6807D1*
X18505Y6708D1*
X18504Y6620D1*
X18491Y6521D1*
X18465Y6425D1*
X18426Y6332D1*
X18376Y6246D1*
X18314Y6167D1*
X18243Y6098D1*
X18163Y6038D1*
X18068Y5986D1*
Y5002D1*
X18352Y5004D1*
X18875D1*
X19361Y5489D1*
X19366Y5568D1*
X19386Y5666D1*
X19419Y5760D1*
X19426Y5776D1*
X19685Y30594D2*
X19639Y30651D1*
X19587Y30736D1*
X19546Y30827D1*
X19517Y30923D1*
X19501Y31021D1*
X19499Y31121D1*
X19510Y31221D1*
X19533Y31318D1*
X19570Y31411D1*
X19618Y31498D1*
X19678Y31578D1*
X19685Y31586D1*
X18160D1*
X17856Y31282D1*
Y30007D1*
X18295Y30446D1*
X18373Y30510D1*
X18461Y30556D1*
X18556Y30585D1*
X18656Y30594D1*
X19685D1*
X19723Y28626D2*
X19665Y28701D1*
X19616Y28788D1*
X19580Y28881D1*
X19557Y28979D1*
X19548Y29078D1*
X19554Y29178D1*
X19573Y29276D1*
X19606Y29370D1*
X19653Y29459D1*
X19711Y29540D1*
X19752Y29586D1*
X18860D1*
X18505Y29231D1*
X18506Y27220D1*
X18496Y27121D1*
X18467Y27025D1*
X18419Y26937D1*
X18355Y26861D1*
X18277Y26798D1*
X18189Y26752D1*
X18093Y26724D1*
X17993Y26716D1*
X17331D1*
Y26594D1*
X19683D1*
X19611Y26692D1*
X19565Y26781D1*
X19530Y26874D1*
X19507Y26972D1*
X19498Y27071D1*
X19502Y27171D1*
X19520Y27269D1*
X19550Y27365D1*
X19592Y27455D1*
X19647Y27539D1*
X19687Y27589D1*
X19611Y27692D1*
X19565Y27781D1*
X19530Y27874D1*
X19507Y27972D1*
X19498Y28071D1*
X19502Y28171D1*
X19520Y28269D1*
X19550Y28365D1*
X19592Y28455D1*
X19647Y28539D1*
X19711Y28615D1*
X19724Y28627D1*
X20819Y26587D2*
X20883Y26503D1*
X20932Y26416D1*
X20969Y26324D1*
X20994Y26227D1*
X21005Y26128D1*
X21004Y26040D1*
X20991Y25941D1*
X20965Y25845D1*
X20926Y25752D1*
X20876Y25666D1*
X20817Y25591D1*
X20883Y25503D1*
X20932Y25416D1*
X20969Y25324D1*
X20994Y25227D1*
X21005Y25128D1*
X21004Y25040D1*
X20991Y24941D1*
X20965Y24845D1*
X20926Y24752D1*
X20876Y24666D1*
X20814Y24587D1*
X20743Y24518D1*
X20663Y24458D1*
X20576Y24409D1*
X20483Y24372D1*
X20386Y24348D1*
X20286Y24337D1*
X20187Y24339D1*
X20088Y24354D1*
X19992Y24382D1*
X19901Y24423D1*
X19816Y24475D1*
X19738Y24538D1*
X19670Y24611D1*
X19611Y24692D1*
X19565Y24781D1*
X19530Y24874D1*
X19507Y24972D1*
X19498Y25071D1*
X19502Y25171D1*
X19520Y25269D1*
X19550Y25365D1*
X19592Y25455D1*
X19647Y25539D1*
X19685Y25586D1*
X17876D1*
X17922Y25516D1*
X17966Y25427D1*
X17997Y25332D1*
X18014Y25233D1*
X18018Y25160D1*
X18011Y25060D1*
X17990Y24963D1*
X17955Y24869D1*
X17908Y24781D1*
X17848Y24701D1*
X17778Y24630D1*
X17698Y24570D1*
X17611Y24521D1*
X17517Y24486D1*
X17420Y24464D1*
X17320Y24456D1*
X17220Y24462D1*
X17123Y24483D1*
X17029Y24517D1*
X16940Y24563D1*
X16860Y24622D1*
X16788Y24692D1*
X16727Y24771D1*
X16678Y24858D1*
X16642Y24951D1*
X16619Y25049D1*
X16610Y25148D1*
X16616Y25248D1*
X16635Y25346D1*
X16669Y25440D1*
X16715Y25529D1*
X16755Y25587D1*
X14952Y25586D1*
X14454D1*
X14067Y25200D1*
Y25110D1*
X14053Y25011D1*
X14027Y24915D1*
X13989Y24822D1*
X13938Y24736D1*
X13876Y24657D1*
X13805Y24588D1*
X13725Y24528D1*
X13638Y24479D1*
X13545Y24442D1*
X13448Y24418D1*
X13349Y24407D1*
X13249Y24409D1*
X13150Y24424D1*
X13054Y24452D1*
X12963Y24493D1*
X12878Y24545D1*
X12800Y24608D1*
X12754Y24657D1*
X10512Y24656D1*
X10413Y24666D1*
X10317Y24695D1*
X10230Y24743D1*
X10153Y24807D1*
X9764Y25196D1*
X9005D1*
Y23946D1*
X8753D1*
X8755Y23650D1*
Y12280D1*
X9059Y11974D1*
X14249D1*
X14248Y12256D1*
Y13464D1*
X15756D1*
Y13422D1*
X15850Y13449D1*
X15949Y13462D1*
X16049Y13463D1*
X16148Y13450D1*
X16244Y13424D1*
X16336Y13386D1*
X16423Y13335D1*
X16501Y13275D1*
X16575Y13332D1*
X16661Y13383D1*
X16753Y13422D1*
X16850Y13449D1*
X16949Y13462D1*
X17049Y13463D1*
X17148Y13450D1*
X17244Y13424D1*
X17336Y13386D1*
X17423Y13335D1*
X17501Y13275D1*
X17575Y13332D1*
X17661Y13383D1*
X17753Y13422D1*
X17850Y13449D1*
X17949Y13462D1*
X18049Y13463D1*
X18148Y13450D1*
X18244Y13424D1*
X18336Y13386D1*
X18423Y13335D1*
X18502Y13274D1*
X18572Y13203D1*
X18632Y13123D1*
X18681Y13036D1*
X18719Y12944D1*
X18743Y12847D1*
X18755Y12748D1*
X18754Y12660D1*
X18741Y12561D1*
X18715Y12465D1*
X18676Y12372D1*
X18625Y12286D1*
X18564Y12207D1*
X18492Y12138D1*
X18412Y12078D1*
X18325Y12029D1*
X18232Y11992D1*
X18135Y11968D1*
X18036Y11957D1*
X17936Y11959D1*
X17837Y11974D1*
X17742Y12002D1*
X17650Y12043D1*
X17565Y12095D1*
X17503Y12145D1*
X17412Y12078D1*
X17325Y12029D1*
X17232Y11992D1*
X17135Y11968D1*
X17036Y11957D1*
X16936Y11959D1*
X16837Y11974D1*
X16742Y12002D1*
X16650Y12043D1*
X16565Y12095D1*
X16503Y12145D1*
X16412Y12078D1*
X16325Y12029D1*
X16232Y11992D1*
X16135Y11968D1*
X16103Y11963D1*
X16161Y11948D1*
X16252Y11907D1*
X16334Y11849D1*
X16712Y11473D1*
X16992Y11189D1*
X17047Y11106D1*
X17073Y11048D1*
X17092Y11035D1*
X17146Y11119D1*
X17211Y11195D1*
X17285Y11262D1*
X17368Y11319D1*
X17457Y11364D1*
X17551Y11397D1*
X17649Y11417D1*
X17749Y11424D1*
X17848Y11418D1*
X17946Y11398D1*
X18041Y11366D1*
X18131Y11322D1*
X18214Y11266D1*
X18288Y11200D1*
X18313Y11173D1*
X18635Y11174D1*
X19051Y11592D1*
X20443Y12980D1*
X20526Y13035D1*
X20618Y13073D1*
X20716Y13092D1*
X20862Y13094D1*
X26254D1*
X26311Y13150D1*
X26389Y13212D1*
X26475Y13263D1*
X26551Y13296D1*
X19539D1*
X19440Y13306D1*
X19344Y13335D1*
X19256Y13383D1*
X19180Y13447D1*
X18549Y14081D1*
X18494Y14164D1*
X18456Y14256D1*
X18437Y14354D1*
X18435Y14500D1*
Y14911D1*
X18350Y14848D1*
X18262Y14799D1*
X18170Y14762D1*
X18073Y14738D1*
X17973Y14727D1*
X17873Y14729D1*
X17775Y14744D1*
X17679Y14772D1*
X17587Y14813D1*
X17502Y14865D1*
X17440Y14915D1*
X17350Y14848D1*
X17262Y14799D1*
X17170Y14762D1*
X17073Y14738D1*
X16973Y14727D1*
X16873Y14729D1*
X16775Y14744D1*
X16679Y14772D1*
X16587Y14813D1*
X16502Y14865D1*
X16440Y14915D1*
X16350Y14848D1*
X16262Y14799D1*
X16170Y14762D1*
X16073Y14738D1*
X15973Y14727D1*
X15873Y14729D1*
X15775Y14744D1*
X15679Y14772D1*
X15587Y14813D1*
X15502Y14865D1*
X15440Y14915D1*
X15350Y14848D1*
X15262Y14799D1*
X15170Y14762D1*
X15073Y14738D1*
X14973Y14727D1*
X14873Y14729D1*
X14775Y14744D1*
X14679Y14772D1*
X14587Y14813D1*
X14519Y14854D1*
X14445Y14792D1*
X14361Y14738D1*
X14271Y14693D1*
X14177Y14660D1*
X14080Y14638D1*
X13980Y14627D1*
X13880Y14628D1*
X13781Y14641D1*
X13684Y14665D1*
X13591Y14700D1*
X13502Y14746D1*
X13419Y14802D1*
X13359Y14854D1*
X13307Y14822D1*
X13217Y14779D1*
X13121Y14748D1*
X13023Y14731D1*
X12923Y14726D1*
X12824Y14735D1*
X12726Y14757D1*
X12632Y14791D1*
X12544Y14838D1*
X12463Y14896D1*
X12389Y14964D1*
X12326Y15041D1*
X12273Y15126D1*
X12255Y15164D1*
Y14341D1*
X12322Y14273D1*
X12382Y14193D1*
X12431Y14106D1*
X12468Y14014D1*
X12493Y13917D1*
X12504Y13818D1*
Y13730D1*
X12490Y13631D1*
X12464Y13535D1*
X12425Y13442D1*
X12375Y13356D1*
X12313Y13277D1*
X12242Y13208D1*
X12162Y13148D1*
X12075Y13099D1*
X11982Y13062D1*
X11885Y13038D1*
X11786Y13027D1*
X11686Y13029D1*
X11587Y13044D1*
X11491Y13072D1*
X11400Y13113D1*
X11315Y13165D1*
X11237Y13228D1*
X11169Y13301D1*
X11111Y13382D1*
X11064Y13471D1*
X11029Y13564D1*
X11007Y13662D1*
X10997Y13761D1*
X11002Y13861D1*
X11019Y13959D1*
X11049Y14055D1*
X11092Y14145D1*
X11146Y14229D1*
X11210Y14305D1*
X11248Y14341D1*
X11247Y20069D1*
X11169Y20151D1*
X11111Y20232D1*
X11064Y20321D1*
X11029Y20414D1*
X11007Y20512D1*
X10997Y20611D1*
X11002Y20711D1*
X11019Y20809D1*
X11049Y20905D1*
X11092Y20995D1*
X11146Y21079D1*
X11210Y21155D1*
X11285Y21222D1*
X11367Y21279D1*
X11456Y21324D1*
X11551Y21357D1*
X11648Y21377D1*
X11748Y21384D1*
X11848Y21378D1*
X11946Y21358D1*
X12041Y21326D1*
X12130Y21282D1*
X12213Y21226D1*
X12236Y21207D1*
X12204Y21313D1*
X12188Y21411D1*
X12186Y21511D1*
X12196Y21611D1*
X12220Y21708D1*
X12257Y21801D1*
X12305Y21888D1*
X12364Y21968D1*
X12434Y22040D1*
X12513Y22102D1*
X12599Y22153D1*
X12690Y22192D1*
X12787Y22219D1*
X12886Y22232D1*
X12986Y22233D1*
X13085Y22220D1*
X13181Y22194D1*
X13274Y22156D1*
X13360Y22105D1*
X13435Y22047D1*
Y22840D1*
X13445Y22939D1*
X13474Y23035D1*
X13522Y23123D1*
X13585Y23199D1*
X13663Y23262D1*
X13752Y23308D1*
X13848Y23336D1*
X13947Y23344D1*
X30681D1*
X30986Y23648D1*
Y32890D1*
X30996Y32989D1*
X31025Y33085D1*
X31073Y33173D1*
X31137Y33249D1*
X31771Y33880D1*
X31854Y33935D1*
X31946Y33973D1*
X32044Y33992D1*
X32190Y33994D1*
X32373D1*
X32327Y34051D1*
X32274Y34136D1*
X32233Y34227D1*
X32205Y34323D1*
X32189Y34421D1*
X32187Y34521D1*
X32197Y34621D1*
X32221Y34718D1*
X32258Y34811D1*
X32306Y34898D1*
X32366Y34978D1*
X32375Y34989D1*
X32299Y35092D1*
X32252Y35181D1*
X32218Y35274D1*
X32195Y35372D1*
X32186Y35471D1*
X32190Y35571D1*
X32208Y35669D1*
X32238Y35765D1*
X32280Y35855D1*
X32334Y35939D1*
X32375Y35989D1*
X32299Y36092D1*
X32252Y36181D1*
X32218Y36274D1*
X32195Y36372D1*
X32186Y36471D1*
X32190Y36571D1*
X32208Y36669D1*
X32238Y36765D1*
X32280Y36855D1*
X32334Y36939D1*
X32375Y36989D1*
X32299Y37092D1*
X32252Y37181D1*
X32218Y37274D1*
X32195Y37372D1*
X32186Y37471D1*
X32190Y37571D1*
X32208Y37669D1*
X32238Y37765D1*
X32280Y37855D1*
X32334Y37939D1*
X32375Y37989D1*
X32299Y38092D1*
X32252Y38181D1*
X32218Y38274D1*
X32195Y38372D1*
X32186Y38471D1*
X32190Y38571D1*
X32208Y38669D1*
X32238Y38765D1*
X32280Y38855D1*
X32334Y38939D1*
X32399Y39015D1*
X32473Y39082D1*
X32556Y39139D1*
X32645Y39184D1*
X32739Y39217D1*
X32837Y39237D1*
X32937Y39244D1*
X33037Y39238D1*
X33135Y39218D1*
X33229Y39186D1*
X33319Y39142D1*
X33402Y39086D1*
X33476Y39020D1*
X33542Y38944D1*
X33597Y38861D1*
X33640Y38771D1*
X33671Y38676D1*
X33689Y38577D1*
X33694Y38490D1*
X33687Y38390D1*
X33668Y38292D1*
X33635Y38198D1*
X33590Y38109D1*
X33534Y38026D1*
X33505Y37991D1*
X33571Y37903D1*
X33620Y37816D1*
X33657Y37724D1*
X33682Y37627D1*
X33693Y37528D1*
X33692Y37440D1*
X33679Y37341D1*
X33653Y37245D1*
X33614Y37152D1*
X33564Y37066D1*
X33505Y36991D1*
X33571Y36903D1*
X33620Y36816D1*
X33657Y36724D1*
X33682Y36627D1*
X33693Y36528D1*
X33692Y36440D1*
X33679Y36341D1*
X33653Y36245D1*
X33614Y36152D1*
X33564Y36066D1*
X33505Y35991D1*
X33571Y35903D1*
X33620Y35816D1*
X33657Y35724D1*
X33682Y35627D1*
X33693Y35528D1*
X33692Y35440D1*
X33679Y35341D1*
X33653Y35245D1*
X33614Y35152D1*
X33564Y35066D1*
X33505Y34991D1*
X33571Y34903D1*
X33620Y34816D1*
X33657Y34724D1*
X33682Y34627D1*
X33693Y34528D1*
X33692Y34440D1*
X33679Y34341D1*
X33653Y34245D1*
X33614Y34152D1*
X33564Y34066D1*
X33507Y33993D1*
X34990Y33994D1*
X35089Y33984D1*
X35185Y33955D1*
X35273Y33907D1*
X35349Y33843D1*
X35980Y33209D1*
X36035Y33126D1*
X36073Y33034D1*
X36092Y32936D1*
X36094Y32790D1*
Y29248D1*
X36398Y28944D1*
X37310D1*
X37266Y29001D1*
X37213Y29086D1*
X37172Y29177D1*
X37144Y29273D1*
X37128Y29371D1*
X37126Y29471D1*
X37136Y29571D1*
X37160Y29668D1*
X37197Y29761D1*
X37245Y29848D1*
X37305Y29928D1*
X37314Y29939D1*
X37238Y30042D1*
X37191Y30131D1*
X37156Y30224D1*
X37134Y30322D1*
X37125Y30421D1*
X37129Y30521D1*
X37147Y30619D1*
X37177Y30715D1*
X37219Y30805D1*
X37273Y30889D1*
X37314Y30939D1*
X37238Y31042D1*
X37191Y31131D1*
X37156Y31224D1*
X37134Y31322D1*
X37125Y31421D1*
X37129Y31521D1*
X37147Y31619D1*
X37177Y31715D1*
X37219Y31805D1*
X37273Y31889D1*
X37314Y31939D1*
X37238Y32042D1*
X37191Y32131D1*
X37156Y32224D1*
X37134Y32322D1*
X37125Y32421D1*
X37129Y32521D1*
X37147Y32619D1*
X37177Y32715D1*
X37219Y32805D1*
X37273Y32889D1*
X37314Y32939D1*
X37238Y33042D1*
X37191Y33131D1*
X37156Y33224D1*
X37134Y33322D1*
X37125Y33421D1*
X37129Y33521D1*
X37147Y33619D1*
X37177Y33715D1*
X37219Y33805D1*
X37273Y33889D1*
X37338Y33965D1*
X37412Y34032D1*
X37495Y34089D1*
X37584Y34134D1*
X37678Y34167D1*
X37776Y34187D1*
X37876Y34194D1*
X37976Y34188D1*
X38074Y34168D1*
X38168Y34136D1*
X38258Y34092D1*
X38341Y34036D1*
X38415Y33970D1*
X38481Y33894D1*
X38536Y33811D1*
X38579Y33721D1*
X38610Y33626D1*
X38628Y33527D1*
X38633Y33440D1*
X38626Y33340D1*
X38607Y33242D1*
X38574Y33148D1*
X38529Y33059D1*
X38473Y32976D1*
X38444Y32941D1*
X38510Y32853D1*
X38559Y32766D1*
X38596Y32674D1*
X38620Y32577D1*
X38632Y32478D1*
X38631Y32390D1*
X38618Y32291D1*
X38592Y32195D1*
X38553Y32102D1*
X38503Y32016D1*
X38444Y31941D1*
X38510Y31853D1*
X38559Y31766D1*
X38596Y31674D1*
X38620Y31577D1*
X38632Y31478D1*
X38631Y31390D1*
X38618Y31291D1*
X38592Y31195D1*
X38553Y31102D1*
X38503Y31016D1*
X38444Y30941D1*
X38510Y30853D1*
X38559Y30766D1*
X38596Y30674D1*
X38620Y30577D1*
X38632Y30478D1*
X38631Y30390D1*
X38618Y30291D1*
X38592Y30195D1*
X38553Y30102D1*
X38503Y30016D1*
X38444Y29941D1*
X38510Y29853D1*
X38559Y29766D1*
X38596Y29674D1*
X38620Y29577D1*
X38632Y29478D1*
X38631Y29390D1*
X38618Y29291D1*
X38592Y29195D1*
X38553Y29102D1*
X38503Y29016D1*
X38444Y28941D1*
X38510Y28853D1*
X38559Y28766D1*
X38596Y28674D1*
X38620Y28577D1*
X38632Y28478D1*
X38631Y28390D1*
X38618Y28291D1*
X38592Y28195D1*
X38553Y28102D1*
X38503Y28016D1*
X38444Y27941D1*
X38510Y27853D1*
X38559Y27766D1*
X38596Y27674D1*
X38620Y27577D1*
X38632Y27478D1*
X38631Y27390D1*
X38618Y27291D1*
X38592Y27195D1*
X38553Y27102D1*
X38503Y27016D1*
X38446Y26943D1*
X44062Y26944D1*
X44063Y27286D1*
Y28194D1*
X45571D1*
Y26942D1*
X45679Y26944D1*
X49680Y26942D1*
X49778Y26922D1*
X49870Y26883D1*
X49953Y26827D1*
X50057Y26726D1*
X50463Y26320D1*
X50455Y29160D1*
X49298Y30306D1*
X44484Y35075D1*
X44450Y34978D1*
X44405Y34889D1*
X44349Y34806D1*
X44282Y34731D1*
X44206Y34666D1*
X44123Y34612D1*
X44032Y34569D1*
X43937Y34538D1*
X43839Y34521D1*
X43739Y34516D1*
X43639Y34525D1*
X43542Y34547D1*
X43448Y34581D1*
X43360Y34628D1*
X43278Y34686D1*
X43205Y34754D1*
X43142Y34831D1*
X43089Y34916D1*
X43048Y35007D1*
X43019Y35103D1*
X43004Y35201D1*
X43001Y35301D1*
X43012Y35401D1*
X43036Y35498D1*
X43072Y35591D1*
X43121Y35678D1*
X43180Y35758D1*
X43250Y35830D1*
X43328Y35892D1*
X43414Y35943D1*
X43506Y35982D1*
X43555Y35997D1*
X43331Y36218D1*
X28815Y50599D1*
X25061Y46846D1*
X25031Y46818D1*
X15609Y37406D1*
X15696Y37388D1*
X15791Y37356D1*
X15880Y37312D1*
X15963Y37256D1*
X16038Y37190D1*
X16097Y37123D1*
X16592Y37124D1*
X16812D1*
X16810Y37374D1*
X16853D1*
X16829Y37453D1*
X16813Y37551D1*
X16811Y37651D1*
X16822Y37751D1*
X16846Y37848D1*
X16882Y37941D1*
X16930Y38028D1*
X16990Y38108D1*
X17059Y38180D1*
X17138Y38242D1*
X17224Y38293D1*
X17316Y38332D1*
X17412Y38359D1*
X17511Y38372D1*
X17611Y38373D1*
X17710Y38360D1*
X17807Y38334D1*
X17899Y38296D1*
X17985Y38245D1*
X18065Y38184D1*
X18135Y38113D1*
X18195Y38033D1*
X18244Y37946D1*
X18281Y37854D1*
X18306Y37757D1*
X18317Y37658D1*
Y37570D1*
X18303Y37471D1*
X18277Y37373D1*
X18318Y37374D1*
Y35866D1*
X16810D1*
Y36118D1*
X16514Y36116D1*
X16022D1*
X15953Y36056D1*
X15870Y36002D1*
X15779Y35959D1*
X15684Y35928D1*
X15586Y35911D1*
X15486Y35906D1*
X15386Y35915D1*
X15289Y35937D1*
X15195Y35971D1*
X15107Y36018D1*
X15025Y36076D1*
X14952Y36144D1*
X14889Y36221D1*
X14836Y36306D1*
X14795Y36397D1*
X14766Y36493D1*
X14756Y36553D1*
X14136Y35934D1*
X7114Y28920D1*
X7115Y28573D1*
X7447Y28906D1*
X7524Y28970D1*
X7612Y29016D1*
X7708Y29045D1*
X7807Y29054D1*
X14952D1*
X14889Y29131D1*
X14836Y29216D1*
X14795Y29307D1*
X14767Y29403D1*
X14751Y29501D1*
X14748Y29601D1*
X14759Y29701D1*
X14783Y29798D1*
X14819Y29891D1*
X14868Y29978D1*
X14927Y30058D1*
X14997Y30130D1*
X15075Y30192D1*
X15161Y30243D1*
X15253Y30282D1*
X15350Y30309D1*
X15449Y30322D1*
X15549Y30323D1*
X15648Y30310D1*
X15749Y30282D1*
X15748Y30324D1*
X16849D1*
X16848Y30550D1*
X16850Y31540D1*
X16870Y31638D1*
X16908Y31730D1*
X16964Y31813D1*
X17066Y31917D1*
X17632Y32480D1*
X17716Y32535D1*
X17808Y32573D1*
X17906Y32592D1*
X18052Y32594D1*
X19685D1*
X19639Y32651D1*
X19587Y32736D1*
X19546Y32827D1*
X19517Y32923D1*
X19501Y33021D1*
X19499Y33121D1*
X19510Y33221D1*
X19533Y33318D1*
X19540Y33337D1*
X19498Y33336D1*
Y34844D1*
X19750D1*
X19748Y35140D1*
X19751Y37940D1*
X19770Y38038D1*
X19809Y38130D1*
X19865Y38213D1*
X19966Y38317D1*
X20533Y38880D1*
X20616Y38935D1*
X20708Y38973D1*
X20806Y38992D1*
X20952Y38994D1*
X26379D1*
X26435Y39050D1*
X26514Y39112D1*
X26600Y39163D1*
X26692Y39202D1*
X26788Y39229D1*
X26887Y39242D1*
X26987Y39243D1*
X27086Y39230D1*
X27182Y39204D1*
X27275Y39166D1*
X27361Y39115D1*
X27440Y39054D1*
X27510Y38983D1*
X27571Y38903D1*
X27620Y38816D1*
X27657Y38724D1*
X27682Y38627D1*
X27693Y38528D1*
X27692Y38440D1*
X27679Y38341D1*
X27653Y38245D1*
X27614Y38152D1*
X27564Y38066D1*
X27505Y37991D1*
X27571Y37903D1*
X27620Y37816D1*
X27657Y37724D1*
X27682Y37627D1*
X27693Y37528D1*
X27692Y37440D1*
X27679Y37341D1*
X27653Y37245D1*
X27614Y37152D1*
X27564Y37066D1*
X27505Y36991D1*
X27571Y36903D1*
X27620Y36816D1*
X27657Y36724D1*
X27682Y36627D1*
X27693Y36528D1*
X27692Y36440D1*
X27679Y36341D1*
X27653Y36245D1*
X27614Y36152D1*
X27564Y36066D1*
X27505Y35991D1*
X27571Y35903D1*
X27620Y35816D1*
X27657Y35724D1*
X27682Y35627D1*
X27693Y35528D1*
X27692Y35440D1*
X27679Y35341D1*
X27653Y35245D1*
X27614Y35152D1*
X27564Y35066D1*
X27502Y34987D1*
X27469Y34952D1*
X27521Y34888D1*
X27571Y34802D1*
X27609Y34710D1*
X27633Y34613D1*
X27644Y34513D1*
X27642Y34440D1*
X27628Y34341D1*
X27600Y34245D1*
X27559Y34154D1*
X27505Y34070D1*
X27436Y33991D1*
X27491Y33928D1*
X27547Y33846D1*
X27592Y33757D1*
X27623Y33662D1*
X27640Y33563D1*
X27644Y33490D1*
X27637Y33390D1*
X27616Y33293D1*
X27581Y33199D1*
X27533Y33111D1*
X27471Y33028D1*
X27542Y32944D1*
X27597Y32861D1*
X27640Y32771D1*
X27671Y32676D1*
X27689Y32577D1*
X27694Y32490D1*
X27687Y32390D1*
X27668Y32292D1*
X27635Y32198D1*
X27590Y32109D1*
X27534Y32026D1*
X27507Y31993D1*
X27857Y31994D1*
X28161Y32298D1*
Y42740D1*
Y43429D1*
X28046Y43382D1*
X27949Y43358D1*
X27850Y43347D1*
X27750Y43349D1*
X27651Y43364D1*
X27555Y43392D1*
X27464Y43433D1*
X27379Y43485D1*
X27301Y43548D1*
X27254Y43597D1*
X26376Y43596D1*
X26306Y43528D1*
X26226Y43468D1*
X26139Y43419D1*
X26046Y43382D1*
X25949Y43358D1*
X25850Y43347D1*
X25750Y43349D1*
X25651Y43364D1*
X25555Y43392D1*
X25464Y43433D1*
X25379Y43485D1*
X25301Y43548D1*
X25233Y43621D1*
X25175Y43702D1*
X25128Y43791D1*
X25093Y43884D1*
X25071Y43982D1*
X25061Y44081D1*
X25066Y44181D1*
X25083Y44279D1*
X25113Y44375D1*
X25156Y44465D1*
X25210Y44549D1*
X25274Y44625D1*
X25349Y44692D1*
X25431Y44749D1*
X25520Y44794D1*
X25615Y44827D1*
X25712Y44847D1*
X25812Y44854D1*
X25912Y44848D1*
X26010Y44828D1*
X26104Y44796D1*
X26194Y44752D1*
X26277Y44696D1*
X26352Y44630D1*
X26376Y44603D1*
X27254Y44604D1*
X27310Y44660D1*
X27389Y44722D1*
X27475Y44773D1*
X27567Y44812D1*
X27663Y44839D1*
X27762Y44852D1*
X27862Y44853D1*
X27961Y44840D1*
X28058Y44814D1*
X28150Y44776D1*
X28187Y44756D1*
X28205Y44806D1*
X28255Y44893D1*
X28309Y44956D1*
X28946Y45590D1*
X29029Y45645D1*
X29121Y45683D1*
X29172Y45695D1*
X29017Y45696D1*
X28952Y45655D1*
X28860Y45617D1*
X28761Y45598D1*
X28616Y45596D1*
X26570D1*
X26569Y45346D1*
X25061D1*
Y46846D1*
X25066Y46854D1*
X26569D1*
Y46602D1*
X26865Y46604D1*
X28514D1*
X28580Y46645D1*
X28672Y46683D1*
X28770Y46702D1*
X28916Y46704D1*
X30255D1*
X30311Y46760D1*
X30389Y46822D1*
X30475Y46873D1*
X30567Y46912D1*
X30664Y46939D1*
X30763Y46952D1*
X30863Y46953D1*
X30962Y46940D1*
X31058Y46914D1*
X31150Y46876D1*
X31237Y46825D1*
X31316Y46764D1*
X31386Y46693D1*
X31446Y46613D1*
X31495Y46526D1*
X31533Y46434D1*
X31557Y46337D1*
X31569Y46238D1*
X31568Y46150D1*
X31555Y46051D1*
X31529Y45955D1*
X31490Y45862D1*
X31439Y45776D1*
X31381Y45701D1*
X31446Y45613D1*
X31495Y45526D1*
X31533Y45434D1*
X31557Y45337D1*
X31569Y45238D1*
X31568Y45150D1*
X31555Y45051D1*
X31528Y44953D1*
X31570Y44954D1*
Y43446D1*
X30062D1*
Y44698D1*
X29766Y44696D1*
X29474D1*
X29170Y44392D1*
X29169Y33950D1*
X29167Y32040D1*
X29147Y31942D1*
X29108Y31850D1*
X29053Y31767D1*
X28951Y31663D1*
X28385Y31100D1*
X28301Y31045D1*
X28209Y31007D1*
X28111Y30988D1*
X27965Y30986D1*
X27507D1*
X27571Y30903D1*
X27620Y30816D1*
X27657Y30724D1*
X27682Y30627D1*
X27693Y30528D1*
X27692Y30440D1*
X27679Y30341D1*
X27653Y30245D1*
X27614Y30152D1*
X27564Y30066D1*
X27505Y29991D1*
X27571Y29903D1*
X27620Y29816D1*
X27657Y29724D1*
X27682Y29627D1*
X27693Y29528D1*
X27692Y29440D1*
X27679Y29341D1*
X27653Y29245D1*
X27614Y29152D1*
X27564Y29066D1*
X27502Y28987D1*
X27431Y28918D1*
X27351Y28858D1*
X27264Y28809D1*
X27171Y28772D1*
X27074Y28748D1*
X26974Y28737D1*
X26874Y28739D1*
X26776Y28754D1*
X26680Y28782D1*
X26589Y28823D1*
X26503Y28875D1*
X26426Y28938D1*
X26358Y29011D1*
X26299Y29092D1*
X26252Y29181D1*
X26218Y29274D1*
X26208Y29312D1*
Y25840D1*
X26198Y25741D1*
X26169Y25645D1*
X26121Y25557D1*
X26058Y25481D1*
X25423Y24850D1*
X25340Y24795D1*
X25248Y24757D1*
X25150Y24738D1*
X25004Y24736D1*
X24104Y24738D1*
X24006Y24758D1*
X23914Y24797D1*
X23832Y24853D1*
X23727Y24954D1*
X23364Y25321D1*
X23309Y25404D1*
X23271Y25496D1*
X23267Y25510D1*
X23172Y25611D1*
X23113Y25692D1*
X23066Y25781D1*
X23032Y25874D1*
X23009Y25972D1*
X23000Y26071D1*
X23004Y26171D1*
X23022Y26269D1*
X23052Y26365D1*
X23094Y26455D1*
X23149Y26539D1*
X23187Y26586D1*
X20819D1*
X12505Y10966D2*
Y9866D1*
X10997D1*
Y9908D1*
X10934Y9888D1*
X10835Y9871D1*
X10736Y9866D1*
X10636Y9875D1*
X10539Y9897D1*
X10445Y9931D1*
X10356Y9978D1*
X10275Y10036D1*
X10202Y10104D1*
X10138Y10181D1*
X10086Y10266D1*
X10045Y10357D1*
X10016Y10453D1*
X10000Y10551D1*
X9998Y10651D1*
X10009Y10751D1*
X10032Y10848D1*
X10069Y10941D1*
X10082Y10967D1*
X9602Y10966D1*
X8801Y10968D1*
X8703Y10988D1*
X8611Y11027D1*
X8528Y11083D1*
X8424Y11184D1*
X7861Y11751D1*
X7805Y11834D1*
X7768Y11926D1*
X7749Y12024D1*
X7747Y12170D1*
Y23947D1*
X7707Y23900D1*
Y7708D1*
X8012Y7404D1*
X11624D1*
X11622Y7467D1*
X11372Y7466D1*
Y7508D1*
X11309Y7488D1*
X11211Y7471D1*
X11111Y7466D1*
X11011Y7475D1*
X10914Y7497D1*
X10820Y7531D1*
X10732Y7578D1*
X10650Y7636D1*
X10590Y7690D1*
X10510Y7630D1*
X10423Y7581D1*
X10329Y7546D1*
X10232Y7524D1*
X10132Y7516D1*
X10033Y7522D1*
X9935Y7543D1*
X9841Y7577D1*
X9753Y7623D1*
X9672Y7682D1*
X9600Y7752D1*
X9539Y7831D1*
X9490Y7918D1*
X9454Y8011D1*
X9431Y8109D1*
X9423Y8208D1*
X9428Y8308D1*
X9448Y8406D1*
X9481Y8500D1*
X9527Y8589D1*
X9585Y8670D1*
X9622Y8711D1*
X9625Y8770D1*
X9645Y8868D1*
X9683Y8960D1*
X9739Y9043D1*
X9841Y9147D1*
X10207Y9510D1*
X10290Y9565D1*
X10383Y9603D1*
X10481Y9622D1*
X10626Y9624D1*
X13747D1*
X13748Y10580D1*
X13758Y10679D1*
X13787Y10775D1*
X13834Y10863D1*
X13898Y10939D1*
X13905Y10946D1*
X13902Y10966D1*
X12506D1*
X16610Y6154D2*
X17203D1*
X17139Y6231D1*
X17086Y6316D1*
X17045Y6407D1*
X17017Y6503D1*
X17001Y6601D1*
X16999Y6701D1*
X17009Y6801D1*
X17033Y6898D1*
X17069Y6991D1*
X17089Y7028D1*
X17007Y7055D1*
X16919Y7103D1*
X16842Y7167D1*
X16506Y7503D1*
Y6976D1*
X14998D1*
Y8484D1*
X15040D1*
X15016Y8563D1*
X15001Y8661D1*
X14998Y8761D1*
X15009Y8861D1*
X15033Y8958D1*
X15069Y9051D1*
X15118Y9138D1*
X15177Y9218D1*
X15223Y9267D1*
X15165Y9341D1*
X15116Y9428D1*
X15079Y9521D1*
X15056Y9619D1*
X15048Y9718D1*
X15053Y9818D1*
X15073Y9916D1*
X15106Y10010D1*
X15139Y10076D1*
X14756D1*
Y7920D1*
Y5359D1*
X15111Y5004D1*
X15672D1*
X15627Y5091D1*
X15592Y5184D1*
X15570Y5282D1*
X15561Y5381D1*
X15565Y5481D1*
X15582Y5579D1*
X15612Y5675D1*
X15655Y5765D1*
X15709Y5849D1*
X15773Y5925D1*
X15848Y5992D1*
X15930Y6049D1*
X16019Y6094D1*
X16114Y6127D1*
X16211Y6147D1*
X16311Y6154D1*
X16411Y6148D1*
X16509Y6128D1*
X16561Y6112D1*
X16560Y6154D1*
X16610D1*
X45570Y29390D2*
X45556Y29291D1*
X45530Y29195D1*
X45491Y29102D1*
X45441Y29016D1*
X45379Y28937D1*
X45308Y28868D1*
X45228Y28808D1*
X45141Y28759D1*
X45048Y28722D1*
X44951Y28698D1*
X44852Y28687D1*
X44752Y28689D1*
X44653Y28704D1*
X44557Y28732D1*
X44466Y28773D1*
X44381Y28825D1*
X44303Y28888D1*
X44235Y28961D1*
X44177Y29042D1*
X44130Y29131D1*
X44095Y29224D1*
X44073Y29322D1*
X44063Y29421D1*
X44068Y29521D1*
X44085Y29619D1*
X44115Y29715D1*
X44158Y29805D1*
X44212Y29889D1*
X44276Y29965D1*
X44351Y30032D1*
X44433Y30089D1*
X44522Y30134D1*
X44617Y30167D1*
X44714Y30187D1*
X44814Y30194D1*
X44914Y30188D1*
X45012Y30168D1*
X45106Y30136D1*
X45196Y30092D1*
X45279Y30036D1*
X45354Y29970D1*
X45419Y29894D1*
X45474Y29811D1*
X45517Y29721D1*
X45548Y29626D1*
X45566Y29527D1*
X45571Y29440D1*
X45570Y29390D1*
X40613Y29514D2*
X42071D1*
Y28006D1*
X40563D1*
Y29514D1*
X40613D1*
X42069Y30710D2*
X42056Y30611D1*
X42030Y30515D1*
X41991Y30422D1*
X41940Y30336D1*
X41879Y30257D1*
X41808Y30188D1*
X41728Y30128D1*
X41640Y30079D1*
X41547Y30042D1*
X41451Y30018D1*
X41351Y30007D1*
X41251Y30009D1*
X41153Y30024D1*
X41057Y30052D1*
X40965Y30093D1*
X40880Y30145D1*
X40803Y30208D1*
X40734Y30281D1*
X40676Y30362D1*
X40629Y30451D1*
X40594Y30544D1*
X40572Y30642D1*
X40563Y30741D1*
X40567Y30841D1*
X40585Y30939D1*
X40615Y31035D1*
X40657Y31125D1*
X40711Y31209D1*
X40776Y31285D1*
X40850Y31352D1*
X40933Y31409D1*
X41022Y31454D1*
X41116Y31487D1*
X41214Y31507D1*
X41314Y31514D1*
X41413Y31508D1*
X41511Y31488D1*
X41606Y31456D1*
X41696Y31412D1*
X41779Y31356D1*
X41853Y31290D1*
X41919Y31214D1*
X41973Y31131D1*
X42017Y31041D1*
X42048Y30946D1*
X42066Y30847D1*
X42071Y30760D1*
X42069Y30710D1*
X12880Y8616D2*
Y7466D1*
X12629D1*
X12630Y7170D1*
X12628Y6850D1*
X12608Y6752D1*
X12570Y6660D1*
X12514Y6577D1*
X12443Y6507D1*
X12359Y6453D1*
X12266Y6416D1*
X12168Y6398D1*
X12026Y6396D1*
X9859D1*
X9889Y6331D1*
X9920Y6236D1*
X9938Y6137D1*
X9943Y6050D1*
X9936Y5950D1*
X9917Y5852D1*
X9884Y5758D1*
X9839Y5669D1*
X9783Y5586D1*
X9716Y5511D1*
X9641Y5446D1*
X9557Y5392D1*
X9467Y5349D1*
X9371Y5318D1*
X9273Y5301D1*
X9173Y5296D1*
X9074Y5305D1*
X8976Y5327D1*
X8882Y5361D1*
X8794Y5408D1*
X8713Y5466D1*
X8639Y5534D1*
X8576Y5611D1*
X8523Y5696D1*
X8482Y5787D1*
X8454Y5883D1*
X8438Y5981D1*
X8436Y6081D1*
X8446Y6181D1*
X8470Y6278D1*
X8506Y6371D1*
X8520Y6397D1*
X7926Y6396D1*
X7753Y6398D1*
X7656Y6418D1*
X7563Y6457D1*
X7481Y6513D1*
X7376Y6614D1*
X7225Y6766D1*
X7228Y6391D1*
X7238Y4420D1*
X14290Y4400D1*
X13895Y4793D1*
X13832Y4871D1*
X13785Y4959D1*
X13757Y5055D1*
X13748Y5154D1*
Y5545D1*
X13680Y5478D1*
X13600Y5418D1*
X13512Y5369D1*
X13420Y5332D1*
X13323Y5308D1*
X13223Y5297D1*
X13123Y5299D1*
X13025Y5314D1*
X12929Y5342D1*
X12837Y5383D1*
X12752Y5435D1*
X12675Y5498D1*
X12606Y5571D1*
X12548Y5652D1*
X12501Y5741D1*
X12466Y5834D1*
X12444Y5932D1*
X12435Y6031D1*
X12439Y6131D1*
X12457Y6229D1*
X12487Y6325D1*
X12529Y6415D1*
X12583Y6499D1*
X12648Y6575D1*
X12722Y6642D1*
X12805Y6699D1*
X12894Y6744D1*
X12988Y6777D1*
X13086Y6797D1*
X13186Y6804D1*
X13285Y6798D1*
X13384Y6778D1*
X13478Y6746D1*
X13568Y6702D1*
X13651Y6646D1*
X13725Y6580D1*
X13748Y6556D1*
Y8617D1*
X13052Y8616D1*
X12881D1*
X14306Y26594D2*
X14253Y26623D1*
X14172Y26682D1*
X14134Y26717D1*
X13877Y26716D1*
X10060D1*
X9689Y26344D1*
X9611Y26280D1*
X9523Y26234D1*
X9428Y26205D1*
X9751Y26204D1*
X10022Y26202D1*
X10120Y26182D1*
X10212Y26143D1*
X10295Y26087D1*
X10399Y25986D1*
X10721Y25664D1*
X12754D1*
X12809Y25720D1*
X12888Y25782D1*
X12974Y25833D1*
X13066Y25872D1*
X13162Y25899D1*
X13261Y25912D1*
X13353Y25913D1*
X13888Y26446D1*
X13965Y26510D1*
X14053Y26556D1*
X14149Y26585D1*
X14248Y26594D1*
X14305D1*
X28568Y48050D2*
X28554Y47951D1*
X28528Y47855D1*
X28489Y47762D1*
X28439Y47676D1*
X28377Y47597D1*
X28306Y47528D1*
X28226Y47468D1*
X28139Y47419D1*
X28046Y47382D1*
X27949Y47358D1*
X27850Y47347D1*
X27750Y47349D1*
X27651Y47364D1*
X27555Y47392D1*
X27464Y47433D1*
X27379Y47485D1*
X27301Y47548D1*
X27233Y47621D1*
X27175Y47702D1*
X27128Y47791D1*
X27093Y47884D1*
X27071Y47982D1*
X27061Y48081D1*
X27066Y48181D1*
X27083Y48279D1*
X27113Y48375D1*
X27156Y48465D1*
X27210Y48549D1*
X27274Y48625D1*
X27349Y48692D1*
X27431Y48749D1*
X27520Y48794D1*
X27615Y48827D1*
X27712Y48847D1*
X27812Y48854D1*
X27912Y48848D1*
X28010Y48828D1*
X28104Y48796D1*
X28194Y48752D1*
X28277Y48696D1*
X28352Y48630D1*
X28417Y48554D1*
X28472Y48471D1*
X28515Y48381D1*
X28546Y48286D1*
X28564Y48187D1*
X28569Y48100D1*
X28568Y48050D1*
X41944Y36690D2*
X41931Y36591D1*
X41905Y36495D1*
X41866Y36402D1*
X41815Y36316D1*
X41754Y36237D1*
X41683Y36168D1*
X41603Y36108D1*
X41515Y36059D1*
X41422Y36022D1*
X41325Y35998D1*
X41226Y35987D1*
X41126Y35989D1*
X41028Y36004D1*
X40932Y36032D1*
X40840Y36073D1*
X40755Y36125D1*
X40678Y36188D1*
X40609Y36261D1*
X40551Y36342D1*
X40504Y36431D1*
X40469Y36524D1*
X40447Y36622D1*
X40438Y36721D1*
X40442Y36821D1*
X40460Y36919D1*
X40490Y37015D1*
X40532Y37105D1*
X40586Y37189D1*
X40651Y37265D1*
X40725Y37332D1*
X40808Y37389D1*
X40897Y37434D1*
X40991Y37467D1*
X41089Y37487D1*
X41189Y37494D1*
X41288Y37488D1*
X41386Y37468D1*
X41481Y37436D1*
X41571Y37392D1*
X41653Y37336D1*
X41728Y37270D1*
X41794Y37194D1*
X41848Y37111D1*
X41892Y37021D1*
X41923Y36926D1*
X41941Y36827D1*
X41946Y36740D1*
X41944Y36690D1*
Y32690D2*
X41931Y32591D1*
X41905Y32495D1*
X41866Y32402D1*
X41815Y32316D1*
X41754Y32237D1*
X41683Y32168D1*
X41603Y32108D1*
X41515Y32059D1*
X41422Y32022D1*
X41325Y31998D1*
X41226Y31987D1*
X41126Y31989D1*
X41028Y32004D1*
X40932Y32032D1*
X40840Y32073D1*
X40755Y32125D1*
X40678Y32188D1*
X40609Y32261D1*
X40551Y32342D1*
X40504Y32431D1*
X40469Y32524D1*
X40447Y32622D1*
X40438Y32721D1*
X40442Y32821D1*
X40460Y32919D1*
X40490Y33015D1*
X40532Y33105D1*
X40586Y33189D1*
X40651Y33265D1*
X40725Y33332D1*
X40808Y33389D1*
X40897Y33434D1*
X40991Y33467D1*
X41089Y33487D1*
X41189Y33494D1*
X41288Y33488D1*
X41386Y33468D1*
X41481Y33436D1*
X41571Y33392D1*
X41653Y33336D1*
X41728Y33270D1*
X41794Y33194D1*
X41848Y33111D1*
X41892Y33021D1*
X41923Y32926D1*
X41941Y32827D1*
X41946Y32740D1*
X41944Y32690D1*
X44507Y31220D2*
X44494Y31121D1*
X44468Y31025D1*
X44429Y30932D1*
X44378Y30846D1*
X44317Y30767D1*
X44245Y30698D1*
X44165Y30638D1*
X44078Y30589D1*
X43985Y30552D1*
X43888Y30528D1*
X43789Y30517D1*
X43689Y30519D1*
X43590Y30534D1*
X43494Y30562D1*
X43403Y30603D1*
X43318Y30655D1*
X43241Y30718D1*
X43172Y30791D1*
X43114Y30872D1*
X43067Y30961D1*
X43032Y31054D1*
X43010Y31152D1*
X43001Y31251D1*
X43005Y31351D1*
X43022Y31449D1*
X43052Y31545D1*
X43095Y31635D1*
X43149Y31719D1*
X43214Y31795D1*
X43288Y31862D1*
X43370Y31919D1*
X43460Y31964D1*
X43554Y31997D1*
X43652Y32017D1*
X43751Y32024D1*
X43851Y32018D1*
X43949Y31998D1*
X44044Y31966D1*
X44133Y31922D1*
X44216Y31866D1*
X44291Y31800D1*
X44356Y31724D1*
X44411Y31641D1*
X44454Y31551D1*
X44485Y31456D1*
X44504Y31357D1*
X44509Y31270D1*
X44507Y31220D1*
X31568Y12540D2*
X31555Y12441D1*
X31529Y12345D1*
X31490Y12252D1*
X31439Y12166D1*
X31383Y12093D1*
X33724Y12094D1*
X33637Y12166D1*
X33571Y12241D1*
X33516Y12324D1*
X33473Y12414D1*
X33443Y12510D1*
X33427Y12608D1*
X33426Y12708D1*
X33438Y12807D1*
X33465Y12904D1*
X33504Y12995D1*
X33557Y13081D1*
X33621Y13157D1*
X33695Y13224D1*
X33778Y13280D1*
X33807Y13296D1*
X31081D1*
X31150Y13266D1*
X31237Y13215D1*
X31316Y13154D1*
X31386Y13083D1*
X31446Y13003D1*
X31495Y12916D1*
X31533Y12824D1*
X31557Y12727D1*
X31569Y12628D1*
X31568Y12540D1*
X30249Y12094D2*
X30203Y12151D1*
X30150Y12236D1*
X30109Y12327D1*
X30081Y12423D1*
X30065Y12521D1*
X30062Y12621D1*
X30073Y12721D1*
X30097Y12818D1*
X30133Y12911D1*
X30182Y12998D1*
X30241Y13078D1*
X30311Y13150D1*
X30389Y13212D1*
X30475Y13263D1*
X30551Y13296D1*
X27081D1*
X27150Y13266D1*
X27237Y13215D1*
X27316Y13154D1*
X27386Y13083D1*
X27446Y13003D1*
X27495Y12916D1*
X27533Y12824D1*
X27557Y12727D1*
X27569Y12628D1*
X27568Y12551D1*
X28024Y12095D1*
X30249Y12094D1*
X16254Y32610D2*
X16241Y32511D1*
X16215Y32415D1*
X16176Y32322D1*
X16125Y32236D1*
X16064Y32157D1*
X15992Y32088D1*
X15912Y32028D1*
X15825Y31979D1*
X15732Y31942D1*
X15635Y31918D1*
X15536Y31907D1*
X15436Y31909D1*
X15337Y31924D1*
X15241Y31952D1*
X15150Y31993D1*
X15065Y32045D1*
X14988Y32108D1*
X14919Y32181D1*
X14861Y32262D1*
X14814Y32351D1*
X14779Y32444D1*
X14757Y32542D1*
X14748Y32641D1*
X14752Y32741D1*
X14769Y32839D1*
X14799Y32935D1*
X14842Y33025D1*
X14896Y33109D1*
X14961Y33185D1*
X15035Y33252D1*
X15117Y33309D1*
X15207Y33354D1*
X15301Y33387D1*
X15399Y33407D1*
X15498Y33414D1*
X15598Y33408D1*
X15696Y33388D1*
X15791Y33356D1*
X15880Y33312D1*
X15963Y33256D1*
X16038Y33190D1*
X16103Y33114D1*
X16158Y33031D1*
X16201Y32941D1*
X16232Y32846D1*
X16251Y32747D1*
X16256Y32660D1*
X16254Y32610D1*
X49139Y17513D2*
X49212Y17509D1*
X49311Y17490D1*
X49405Y17458D1*
X49494Y17413D1*
X49576Y17355D1*
X49648Y17286D1*
X49711Y17208D1*
X49727Y17183D1*
X49726Y20349D1*
X49692Y20307D1*
X49621Y20238D1*
X49541Y20178D1*
X49454Y20129D1*
X49361Y20092D1*
X49264Y20068D1*
X49165Y20057D1*
X49065Y20059D1*
X48966Y20074D1*
X48870Y20102D1*
X48779Y20143D1*
X48694Y20195D1*
X48616Y20258D1*
X48548Y20331D1*
X48489Y20412D1*
X48443Y20501D1*
X48408Y20594D1*
X48385Y20692D1*
X48376Y20791D1*
X48377Y20849D1*
X47091Y22136D1*
X46358D1*
X46799Y21696D1*
X46862Y21619D1*
X46909Y21531D1*
X46937Y21435D1*
X46946Y21336D1*
Y19707D1*
X49140Y17513D1*
X19235Y22234D2*
X20693D1*
Y20726D1*
X19557D1*
X19747Y20534D1*
X29809D1*
X29768Y20574D1*
X29705Y20651D1*
X29652Y20736D1*
X29611Y20827D1*
X29583Y20923D1*
X29567Y21021D1*
X29565Y21121D1*
X29575Y21221D1*
X29599Y21318D1*
X29635Y21411D1*
X29677Y21486D1*
X28331D1*
X28265Y21428D1*
X28181Y21374D1*
X28090Y21332D1*
X27995Y21303D1*
X27896Y21288D1*
X27796Y21287D1*
X27697Y21301D1*
X27601Y21328D1*
X27509Y21368D1*
X27425Y21422D1*
X27348Y21486D1*
X27282Y21561D1*
X27227Y21644D1*
X27184Y21734D1*
X27155Y21830D1*
X27139Y21928D1*
X27137Y22028D1*
X27150Y22127D1*
X27176Y22224D1*
X27216Y22315D1*
X27227Y22336D1*
X14442D1*
X14443Y22048D1*
X14513Y22102D1*
X14599Y22153D1*
X14690Y22192D1*
X14787Y22219D1*
X14886Y22232D1*
X14986Y22233D1*
X15085Y22220D1*
X15181Y22194D1*
X15274Y22156D1*
X15359Y22106D1*
X15407Y22148D1*
X15489Y22206D1*
X15576Y22253D1*
X15669Y22290D1*
X15766Y22316D1*
X15865Y22331D1*
X15965Y22334D1*
X16064Y22325D1*
X16162Y22304D1*
X16257Y22273D1*
X16347Y22230D1*
X16438Y22173D1*
X16532Y22231D1*
X16622Y22273D1*
X16717Y22305D1*
X16815Y22325D1*
X16915Y22334D1*
X17014Y22331D1*
X17113Y22316D1*
X17210Y22290D1*
X17303Y22253D1*
X17390Y22205D1*
X17472Y22147D1*
X17520Y22105D1*
X17599Y22153D1*
X17690Y22192D1*
X17787Y22219D1*
X17886Y22232D1*
X17986Y22233D1*
X18085Y22220D1*
X18181Y22194D1*
X18274Y22156D1*
X18360Y22105D1*
X18438Y22045D1*
X18513Y22102D1*
X18599Y22153D1*
X18690Y22192D1*
X18787Y22219D1*
X18886Y22232D1*
X18986Y22233D1*
X19085Y22220D1*
X19186Y22192D1*
X19185Y22234D1*
X19235D1*
X20500Y14976D2*
X20430Y14908D1*
X20350Y14848D1*
X20262Y14799D1*
X20170Y14762D1*
X20073Y14738D1*
X19973Y14727D1*
X19873Y14729D1*
X19775Y14744D1*
X19679Y14772D1*
X19587Y14813D1*
X19502Y14865D1*
X19443Y14913D1*
Y14610D1*
X19747Y14304D1*
X30189D1*
X38609D1*
X38549Y14332D1*
X38463Y14383D1*
X38384Y14444D1*
X38362Y14464D1*
X38310Y14432D1*
X38220Y14389D1*
X38125Y14358D1*
X38026Y14341D1*
X37927Y14336D1*
X37827Y14345D1*
X37729Y14367D1*
X37636Y14401D1*
X37547Y14448D1*
X37466Y14506D1*
X37393Y14574D1*
X37329Y14651D1*
X37277Y14736D1*
X37236Y14827D1*
X37207Y14923D1*
X37191Y15021D1*
X37189Y15121D1*
X37200Y15221D1*
X37223Y15318D1*
X37260Y15411D1*
X37273Y15437D1*
X36792Y15436D1*
X36194D1*
X35882Y15124D1*
X35805Y15060D1*
X35717Y15014D1*
X35621Y14985D1*
X35522Y14976D1*
X20499D1*
X38331Y18580D2*
X38318Y18481D1*
X38292Y18385D1*
X38253Y18292D1*
X38202Y18206D1*
X38141Y18127D1*
X38069Y18058D1*
X37989Y17998D1*
X37902Y17949D1*
X37809Y17912D1*
X37712Y17888D1*
X37613Y17877D1*
X37513Y17879D1*
X37414Y17894D1*
X37319Y17922D1*
X37227Y17963D1*
X37142Y18015D1*
X37065Y18078D1*
X37018Y18127D1*
X31779Y18126D1*
X20349D1*
X20280Y18058D1*
X20200Y17998D1*
X20112Y17949D1*
X20020Y17912D1*
X19923Y17888D1*
X19823Y17877D1*
X19723Y17879D1*
X19625Y17894D1*
X19529Y17922D1*
X19437Y17963D1*
X19352Y18015D1*
X19275Y18078D1*
X19206Y18151D1*
X19148Y18232D1*
X19101Y18321D1*
X19066Y18414D1*
X19044Y18512D1*
X19035Y18611D1*
X19039Y18711D1*
X19057Y18809D1*
X19087Y18905D1*
X19129Y18995D1*
X19183Y19079D1*
X19248Y19155D1*
X19322Y19222D1*
X19405Y19279D1*
X19494Y19324D1*
X19588Y19357D1*
X19686Y19377D1*
X19786Y19384D1*
X19885Y19378D1*
X19984Y19358D1*
X20078Y19326D1*
X20168Y19282D1*
X20251Y19226D1*
X20325Y19160D1*
X20350Y19133D1*
X27089Y19134D1*
X37019D1*
X37074Y19190D1*
X37152Y19252D1*
X37238Y19303D1*
X37330Y19342D1*
X37427Y19369D1*
X37526Y19382D1*
X37626Y19383D1*
X37725Y19370D1*
X37821Y19344D1*
X37913Y19306D1*
X38000Y19255D1*
X38079Y19194D1*
X38149Y19123D1*
X38209Y19043D1*
X38258Y18956D1*
X38296Y18864D1*
X38320Y18767D1*
X38332Y18668D1*
X38331Y18580D1*
X24506Y26040D2*
X24493Y25941D1*
X24467Y25845D1*
X24428Y25752D1*
X24423Y25743D1*
X24854Y25744D1*
X24896D1*
X25200Y26048D1*
Y27326D1*
X24609Y26734D1*
X24531Y26670D1*
X24443Y26624D1*
X24347Y26595D1*
X24334Y26593D1*
X24324Y26583D1*
X24385Y26503D1*
X24434Y26416D1*
X24471Y26324D1*
X24496Y26227D1*
X24507Y26128D1*
X24506Y26040D1*
D16*
X22565Y9200D3*
D17*
Y5200D3*
D16*
X31441Y9170D3*
D17*
Y5170D3*
D16*
X28503Y9200D3*
D17*
Y5200D3*
D16*
X36754Y9220D3*
D17*
Y5220D3*
X47380Y23870D3*
D18*
X48380D3*
X49380D3*
D17*
X42629Y23850D3*
D18*
X43629D3*
X44629D3*
D17*
X8251Y24700D3*
D18*
Y25700D3*
Y26700D3*
Y27700D3*
D17*
X20065Y6480D3*
D18*
Y5480D3*
D17*
X37879Y24440D3*
D18*
Y25440D3*
Y26440D3*
Y27440D3*
Y28440D3*
Y29440D3*
Y30440D3*
Y31440D3*
Y32440D3*
Y33440D3*
D17*
X20252Y34090D3*
D18*
Y33090D3*
Y32090D3*
Y31090D3*
Y30090D3*
Y29090D3*
Y28090D3*
Y27090D3*
Y26090D3*
Y25090D3*
D17*
X36129Y12670D3*
D18*
X35129D3*
X34129D3*
D17*
X41504Y5260D3*
D18*
X40504D3*
D17*
X11751Y10620D3*
D18*
X10751D3*
D17*
X16502Y29570D3*
D18*
X15502D3*
D17*
X17314Y5400D3*
D18*
X16314D3*
D17*
X15002Y12710D3*
D18*
X16002D3*
X17002D3*
X18002D3*
D17*
X49193Y14970D3*
D18*
Y13970D3*
D17*
X17564Y36620D3*
D18*
Y37620D3*
D17*
X39817Y12950D3*
D18*
X40817D3*
X41817D3*
X42817D3*
D17*
X41317Y28760D3*
D18*
Y30760D3*
D17*
X44817Y27440D3*
D18*
Y29440D3*
D17*
X25815Y46100D3*
D18*
Y44100D3*
D17*
X46067Y8060D3*
D18*
Y6060D3*
D17*
X40254Y6950D3*
D18*
Y7950D3*
Y8950D3*
D17*
X12126Y8220D3*
D18*
X11126D3*
X10126D3*
D17*
X16627Y27220D3*
D18*
X15627D3*
X14627D3*
D17*
X15752Y7730D3*
D18*
Y8730D3*
Y9730D3*
D16*
X27815Y48100D3*
D18*
Y44100D3*
D17*
X30816Y44200D3*
D18*
Y45200D3*
Y46200D3*
D16*
X48380Y10040D3*
D18*
Y6040D3*
D16*
X41192Y36740D3*
D18*
Y32740D3*
D16*
X43755Y35270D3*
D18*
Y31270D3*
D16*
X42317Y6360D3*
D18*
Y10360D3*
D16*
X13189Y6050D3*
D18*
X9189D3*
D16*
X30816Y12590D3*
D18*
X26816D3*
D16*
X17314Y25160D3*
D18*
X13314D3*
D16*
X17752Y6670D3*
D18*
Y10670D3*
D16*
X15502Y36660D3*
D18*
Y32660D3*
D16*
X49130Y16810D3*
D18*
Y20810D3*
D16*
X32940Y29490D3*
Y30490D3*
Y31490D3*
Y32490D3*
Y33490D3*
Y34490D3*
Y35490D3*
Y36490D3*
Y37490D3*
Y38490D3*
X26940Y29490D3*
Y30490D3*
Y31490D3*
Y32490D3*
Y33490D3*
Y34490D3*
Y35490D3*
Y36490D3*
Y37490D3*
Y38490D3*
D17*
X25628Y6020D3*
D18*
Y7020D3*
Y8020D3*
D17*
X34316Y6030D3*
D18*
Y7030D3*
Y8030D3*
D17*
X19939Y21480D3*
D18*
X18939D3*
X17939D3*
X16939D3*
X15939D3*
X14939D3*
X13939D3*
X12939D3*
Y15480D3*
X13939D3*
X14939D3*
X15939D3*
X16939D3*
X17939D3*
X18939D3*
X19939D3*
D17*
X44942Y21090D3*
D18*
X43942D3*
X42942D3*
X41942D3*
X40942D3*
X39942D3*
X38942D3*
X37942D3*
Y15090D3*
X38942D3*
X39942D3*
X40942D3*
X41942D3*
X42942D3*
X43942D3*
X44942D3*
M02*
