G04 DipTrace 2.4.0.2*
%INTop.cmp*%
%MOIN*%
%ADD14C,0.03*%
%ADD15C,0.01*%
%ADD16R,0.063X0.063*%
%ADD17C,0.063*%
%ADD18R,0.0669X0.0669*%
%ADD19C,0.0669*%
%ADD20R,0.0748X0.0748*%
%ADD21C,0.0748*%
%FSLAX44Y44*%
G04*
G70*
G90*
G75*
G01*
%LNTop*%
%LPD*%
X1000Y3000D2*
D14*
X1685D1*
X1845Y3160D1*
X4688D1*
Y4620D1*
X5188Y5120D1*
X11126D1*
X4688Y3160D2*
X5688D1*
X1000Y2000D2*
D3*
X3125Y1990D2*
X3790D1*
X3960Y2160D1*
X5688D1*
X1010Y1990D2*
X3125D1*
X15002Y2000D2*
X14249D1*
X13659Y1410D1*
X11126D1*
X15002Y3000D2*
X14583D1*
X14249Y3335D1*
Y4225D1*
X11896D1*
X11791Y4120D1*
X11126D1*
X13564Y3540D2*
X12024D1*
X11559Y3075D1*
X10287D1*
X9412Y2200D1*
X8688D1*
X7964D1*
X7464Y2700D1*
Y3660D1*
X6964Y4160D1*
X5688D1*
X310Y5601D2*
D15*
X2610D1*
X3767D2*
X10813D1*
X11439D2*
X15690D1*
X310Y5503D2*
X2610D1*
X3767D2*
X5049D1*
X11558D2*
X15690D1*
X310Y5404D2*
X2610D1*
X3767D2*
X4891D1*
X11630D2*
X15690D1*
X310Y5305D2*
X2610D1*
X3767D2*
X4792D1*
X11673D2*
X15690D1*
X310Y5207D2*
X2610D1*
X3767D2*
X4694D1*
X11698D2*
X15690D1*
X310Y5108D2*
X2610D1*
X3767D2*
X4595D1*
X11705D2*
X15690D1*
X310Y5009D2*
X2610D1*
X3767D2*
X4495D1*
X11694D2*
X15690D1*
X310Y4910D2*
X2610D1*
X3767D2*
X4397D1*
X11665D2*
X15690D1*
X310Y4812D2*
X2610D1*
X3767D2*
X4322D1*
X11614D2*
X15690D1*
X310Y4713D2*
X2610D1*
X3767D2*
X4285D1*
X6326D2*
X8316D1*
X9061D2*
X10719D1*
X11534D2*
X15690D1*
X310Y4614D2*
X2758D1*
X3617D2*
X4274D1*
X6326D2*
X8206D1*
X9170D2*
X10547D1*
X11705D2*
X11780D1*
X14364D2*
X15690D1*
X310Y4516D2*
X706D1*
X1294D2*
X2686D1*
X3689D2*
X4274D1*
X7165D2*
X8136D1*
X9240D2*
X10547D1*
X15600D2*
X15690D1*
X310Y4417D2*
X575D1*
X1425D2*
X2641D1*
X3736D2*
X4274D1*
X7289D2*
X8089D1*
X9287D2*
X10547D1*
X15600D2*
X15690D1*
X310Y4318D2*
X495D1*
X1505D2*
X2616D1*
X3759D2*
X4274D1*
X7387D2*
X8061D1*
X9315D2*
X10547D1*
X15600D2*
X15690D1*
X310Y4220D2*
X444D1*
X1556D2*
X2610D1*
X3767D2*
X4274D1*
X7486D2*
X8050D1*
X9326D2*
X10547D1*
X15600D2*
X15690D1*
X310Y4121D2*
X414D1*
X1586D2*
X2619D1*
X3756D2*
X4274D1*
X7584D2*
X8055D1*
X9322D2*
X10547D1*
X15600D2*
X15690D1*
X310Y4022D2*
X402D1*
X1598D2*
X2649D1*
X3728D2*
X4274D1*
X7683D2*
X8077D1*
X9301D2*
X10547D1*
X15600D2*
X15690D1*
X310Y3924D2*
X406D1*
X1594D2*
X2699D1*
X3676D2*
X4274D1*
X7781D2*
X8114D1*
X9262D2*
X10547D1*
X15600D2*
X15690D1*
X310Y3825D2*
X428D1*
X1572D2*
X2778D1*
X3597D2*
X4274D1*
X7844D2*
X8175D1*
X9201D2*
X10547D1*
X15600D2*
X15690D1*
X310Y3726D2*
X469D1*
X1531D2*
X2914D1*
X3462D2*
X4274D1*
X6326D2*
X6817D1*
X7873D2*
X8266D1*
X9111D2*
X10547D1*
X15600D2*
X15690D1*
X310Y3628D2*
X535D1*
X1465D2*
X4274D1*
X6326D2*
X6916D1*
X7878D2*
X8219D1*
X9158D2*
X10547D1*
X15600D2*
X15690D1*
X310Y3529D2*
X638D1*
X1362D2*
X1670D1*
X6206D2*
X7014D1*
X7878D2*
X8144D1*
X9233D2*
X11431D1*
X15600D2*
X15690D1*
X310Y3430D2*
X589D1*
X1412D2*
X1535D1*
X6265D2*
X7050D1*
X7878D2*
X8094D1*
X9283D2*
X10085D1*
X15600D2*
X15690D1*
X310Y3331D2*
X503D1*
X6301D2*
X7050D1*
X7878D2*
X8064D1*
X9312D2*
X9963D1*
X15498D2*
X15690D1*
X310Y3233D2*
X450D1*
X6322D2*
X7050D1*
X7878D2*
X8052D1*
X9325D2*
X9864D1*
X15551D2*
X15690D1*
X310Y3134D2*
X417D1*
X6325D2*
X7050D1*
X7878D2*
X8053D1*
X9323D2*
X9766D1*
X12198D2*
X13128D1*
X15584D2*
X15690D1*
X310Y3035D2*
X403D1*
X6314D2*
X7050D1*
X7878D2*
X8072D1*
X9305D2*
X9667D1*
X12100D2*
X12966D1*
X15598D2*
X15690D1*
X310Y2937D2*
X405D1*
X6284D2*
X7050D1*
X7878D2*
X8108D1*
X9269D2*
X9567D1*
X12001D2*
X12966D1*
X15597D2*
X15690D1*
X310Y2838D2*
X424D1*
X6237D2*
X7050D1*
X7908D2*
X8166D1*
X9211D2*
X9469D1*
X11903D2*
X12966D1*
X15578D2*
X15690D1*
X310Y2739D2*
X463D1*
X2005D2*
X4245D1*
X6164D2*
X7050D1*
X8006D2*
X8050D1*
X9326D2*
X9370D1*
X11794D2*
X12966D1*
X14162D2*
X14263D1*
X15539D2*
X15690D1*
X310Y2641D2*
X524D1*
X1880D2*
X4370D1*
X6101D2*
X7055D1*
X10434D2*
X10595D1*
X11656D2*
X12966D1*
X14162D2*
X14389D1*
X15478D2*
X15690D1*
X310Y2542D2*
X402D1*
X1598D2*
X2978D1*
X3273D2*
X3819D1*
X6197D2*
X7083D1*
X10336D2*
X10563D1*
X11689D2*
X12966D1*
X14162D2*
X14622D1*
X15381D2*
X15690D1*
X310Y2443D2*
X402D1*
X1598D2*
X2772D1*
X3480D2*
X3663D1*
X6258D2*
X7142D1*
X10237D2*
X10549D1*
X11705D2*
X12966D1*
X14162D2*
X14605D1*
X15398D2*
X15690D1*
X310Y2345D2*
X402D1*
X6298D2*
X7239D1*
X10139D2*
X10552D1*
X11701D2*
X12966D1*
X15489D2*
X15690D1*
X310Y2246D2*
X402D1*
X6320D2*
X7338D1*
X10039D2*
X10572D1*
X11681D2*
X12966D1*
X15547D2*
X15690D1*
X310Y2147D2*
X402D1*
X6326D2*
X7436D1*
X9940D2*
X10611D1*
X11640D2*
X12966D1*
X15581D2*
X15690D1*
X310Y2049D2*
X388D1*
X6315D2*
X7535D1*
X9842D2*
X10677D1*
X11575D2*
X12966D1*
X15598D2*
X15690D1*
X310Y1950D2*
X388D1*
X6290D2*
X7633D1*
X9744D2*
X10547D1*
X11705D2*
X13617D1*
X15598D2*
X15690D1*
X310Y1851D2*
X402D1*
X6245D2*
X7750D1*
X9626D2*
X10547D1*
X11705D2*
X13519D1*
X15581D2*
X15690D1*
X310Y1752D2*
X402D1*
X4134D2*
X5200D1*
X6176D2*
X8050D1*
X9326D2*
X10547D1*
X15545D2*
X15690D1*
X310Y1654D2*
X402D1*
X4025D2*
X5306D1*
X6070D2*
X8050D1*
X9326D2*
X10547D1*
X15487D2*
X15690D1*
X310Y1555D2*
X402D1*
X1598D2*
X2547D1*
X3705D2*
X5510D1*
X5867D2*
X10547D1*
X14384D2*
X14606D1*
X15397D2*
X15690D1*
X310Y1456D2*
X402D1*
X1598D2*
X2547D1*
X3705D2*
X10547D1*
X14286D2*
X14766D1*
X15237D2*
X15690D1*
X310Y1358D2*
X2547D1*
X3705D2*
X10547D1*
X14187D2*
X15690D1*
X310Y1259D2*
X2547D1*
X3705D2*
X10547D1*
X14089D2*
X15690D1*
X310Y1160D2*
X2547D1*
X3705D2*
X10547D1*
X13990D2*
X15690D1*
X310Y1062D2*
X2547D1*
X3705D2*
X10547D1*
X13873D2*
X15690D1*
X310Y963D2*
X2547D1*
X3705D2*
X10547D1*
X11705D2*
X15690D1*
X310Y864D2*
X2547D1*
X3705D2*
X10547D1*
X11705D2*
X15690D1*
X310Y766D2*
X2547D1*
X3705D2*
X15690D1*
X310Y667D2*
X2547D1*
X3705D2*
X15690D1*
X310Y568D2*
X2547D1*
X3705D2*
X15690D1*
X310Y470D2*
X2547D1*
X3705D2*
X15690D1*
X310Y371D2*
X15690D1*
X3757Y5701D2*
Y4661D1*
X3558D1*
X3605Y4616D1*
X3667Y4538D1*
X3713Y4449D1*
X3743Y4354D1*
X3756Y4255D1*
X3755Y4180D1*
X3737Y4082D1*
X3703Y3988D1*
X3652Y3902D1*
X3588Y3825D1*
X3511Y3762D1*
X3424Y3712D1*
X3330Y3679D1*
X3232Y3663D1*
X3132Y3664D1*
X3034Y3682D1*
X2940Y3718D1*
X2854Y3769D1*
X2779Y3834D1*
X2716Y3912D1*
X2668Y3999D1*
X2635Y4094D1*
X2620Y4193D1*
X2622Y4292D1*
X2642Y4390D1*
X2678Y4483D1*
X2731Y4569D1*
X2797Y4643D1*
X2817Y4661D1*
X2619D1*
Y5700D1*
X300D1*
Y300D1*
X15700D1*
Y5700D1*
X3758D1*
X2606Y1559D2*
X2753Y1560D1*
X2724Y1587D1*
X1589Y1586D1*
Y1411D1*
X1134D1*
X1049Y1398D1*
X949D1*
X867Y1411D1*
X411D1*
Y1866D1*
X398Y1953D1*
Y2052D1*
X412Y2134D1*
X411Y2589D1*
X579D1*
X512Y2671D1*
X463Y2758D1*
X430Y2852D1*
X414Y2951D1*
Y3051D1*
X431Y3149D1*
X464Y3243D1*
X513Y3330D1*
X576Y3408D1*
X651Y3474D1*
X691Y3501D1*
X650Y3527D1*
X575Y3593D1*
X512Y3671D1*
X463Y3758D1*
X430Y3852D1*
X414Y3951D1*
Y4051D1*
X431Y4149D1*
X464Y4243D1*
X513Y4330D1*
X576Y4408D1*
X651Y4474D1*
X736Y4526D1*
X829Y4563D1*
X926Y4584D1*
X1026Y4588D1*
X1125Y4575D1*
X1221Y4546D1*
X1310Y4501D1*
X1390Y4441D1*
X1459Y4369D1*
X1515Y4286D1*
X1556Y4195D1*
X1581Y4098D1*
X1589Y4000D1*
X1580Y3900D1*
X1555Y3804D1*
X1514Y3713D1*
X1458Y3630D1*
X1389Y3558D1*
X1310Y3500D1*
X1351Y3473D1*
X1426Y3406D1*
X1429Y3403D1*
X1517Y3404D1*
X1597Y3479D1*
X1638Y3507D1*
X1682Y3530D1*
X1729Y3547D1*
X1778Y3558D1*
X1845Y3564D1*
X4240D1*
X4284Y3610D1*
Y4620D1*
X4287Y4670D1*
X4296Y4719D1*
X4312Y4767D1*
X4333Y4812D1*
X4359Y4854D1*
X4402Y4906D1*
X4902Y5406D1*
X4940Y5439D1*
X4981Y5467D1*
X5026Y5490D1*
X5072Y5507D1*
X5121Y5518D1*
X5188Y5524D1*
X10727D1*
X10773Y5566D1*
X10856Y5621D1*
X10948Y5660D1*
X11045Y5683D1*
X11145Y5689D1*
X11244Y5677D1*
X11340Y5647D1*
X11429Y5602D1*
X11508Y5542D1*
X11576Y5468D1*
X11630Y5384D1*
X11668Y5292D1*
X11690Y5195D1*
X11695Y5120D1*
X11686Y5021D1*
X11660Y4924D1*
X11618Y4834D1*
X11560Y4752D1*
X11497Y4689D1*
X11695D1*
Y4575D1*
X11731Y4594D1*
X11778Y4611D1*
X11827Y4623D1*
X11896Y4629D1*
X14249D1*
X14298Y4626D1*
X14348Y4616D1*
X14411Y4595D1*
X14463Y4589D1*
X15590D1*
Y3411D1*
X15423D1*
X15490Y3329D1*
X15539Y3241D1*
X15572Y3147D1*
X15588Y3049D1*
Y2950D1*
X15571Y2852D1*
X15538Y2757D1*
X15489Y2670D1*
X15426Y2593D1*
X15351Y2527D1*
X15311Y2500D1*
X15353Y2473D1*
X15427Y2406D1*
X15490Y2329D1*
X15539Y2241D1*
X15572Y2147D1*
X15588Y2049D1*
Y1950D1*
X15571Y1852D1*
X15538Y1757D1*
X15489Y1670D1*
X15426Y1593D1*
X15351Y1527D1*
X15266Y1474D1*
X15174Y1437D1*
X15076Y1416D1*
X14976Y1412D1*
X14877Y1425D1*
X14782Y1454D1*
X14693Y1499D1*
X14612Y1558D1*
X14573Y1597D1*
X14416Y1596D1*
X13944Y1124D1*
X13907Y1091D1*
X13866Y1063D1*
X13821Y1040D1*
X13774Y1023D1*
X13726Y1012D1*
X13659Y1006D1*
X11695D1*
Y841D1*
X10557D1*
Y1979D1*
X10754Y1980D1*
X10684Y2052D1*
X10628Y2135D1*
X10588Y2226D1*
X10564Y2323D1*
X10557Y2423D1*
X10568Y2522D1*
X10596Y2618D1*
X10621Y2670D1*
X10454Y2671D1*
X9698Y1914D1*
X9661Y1881D1*
X9619Y1853D1*
X9575Y1830D1*
X9528Y1813D1*
X9479Y1802D1*
X9412Y1796D1*
X9317D1*
X9316Y1572D1*
X8060D1*
Y1795D1*
X7914Y1799D1*
X7865Y1808D1*
X7818Y1824D1*
X7772Y1845D1*
X7730Y1871D1*
X7679Y1914D1*
X7179Y2414D1*
X7146Y2452D1*
X7117Y2493D1*
X7095Y2537D1*
X7077Y2584D1*
X7066Y2633D1*
X7060Y2700D1*
Y3492D1*
X6798Y3756D1*
X6316D1*
Y3532D1*
X6195Y3530D1*
X6248Y3445D1*
X6286Y3353D1*
X6309Y3256D1*
X6316Y3160D1*
X6308Y3060D1*
X6285Y2963D1*
X6246Y2871D1*
X6193Y2787D1*
X6127Y2711D1*
X6067Y2660D1*
X6130Y2606D1*
X6195Y2530D1*
X6248Y2445D1*
X6286Y2353D1*
X6309Y2256D1*
X6316Y2160D1*
X6308Y2060D1*
X6285Y1963D1*
X6246Y1871D1*
X6193Y1787D1*
X6127Y1711D1*
X6051Y1647D1*
X5965Y1596D1*
X5872Y1559D1*
X5774Y1538D1*
X5675Y1532D1*
X5575Y1542D1*
X5479Y1568D1*
X5387Y1609D1*
X5304Y1663D1*
X5230Y1730D1*
X5208Y1755D1*
X4127Y1756D1*
X4039Y1671D1*
X3997Y1643D1*
X3953Y1620D1*
X3906Y1603D1*
X3857Y1592D1*
X3790Y1586D1*
X3525Y1585D1*
X3496Y1559D1*
X3694D1*
Y421D1*
X2556D1*
Y1559D1*
X2606D1*
X2724Y2393D2*
X2772Y2436D1*
X2855Y2491D1*
X2947Y2530D1*
X3044Y2553D1*
X3144Y2559D1*
X3243Y2547D1*
X3339Y2517D1*
X3428Y2472D1*
X3507Y2412D1*
X3526Y2393D1*
X3624Y2394D1*
X3712Y2479D1*
X3753Y2507D1*
X3798Y2530D1*
X3845Y2547D1*
X3893Y2558D1*
X3960Y2564D1*
X4587D1*
X4491Y2589D1*
X4399Y2630D1*
X4316Y2684D1*
X4242Y2752D1*
X4238Y2756D1*
X2012D1*
X1933Y2681D1*
X1892Y2653D1*
X1847Y2630D1*
X1800Y2613D1*
X1752Y2602D1*
X1685Y2596D1*
X1427D1*
X1422Y2589D1*
X1589D1*
Y2393D1*
X2724Y2394D1*
X10607Y4689D2*
X10754Y4690D1*
X10725Y4717D1*
X9476Y4716D1*
X9046D1*
X9094Y4680D1*
X9165Y4609D1*
X9224Y4529D1*
X9269Y4440D1*
X9300Y4345D1*
X9315Y4246D1*
X9314Y4150D1*
X9299Y4051D1*
X9267Y3957D1*
X9221Y3868D1*
X9162Y3788D1*
X9091Y3718D1*
X9067Y3700D1*
X9131Y3646D1*
X9196Y3570D1*
X9248Y3485D1*
X9286Y3393D1*
X9309Y3296D1*
X9316Y3200D1*
X9308Y3100D1*
X9285Y3003D1*
X9246Y2911D1*
X9194Y2828D1*
X9316D1*
Y2676D1*
X10002Y3361D1*
X10039Y3394D1*
X10080Y3422D1*
X10125Y3445D1*
X10172Y3462D1*
X10220Y3473D1*
X10287Y3479D1*
X11392D1*
X11464Y3552D1*
X10557Y3551D1*
Y4689D1*
X10607D1*
X11496Y1979D2*
X11695D1*
Y1815D1*
X12576Y1814D1*
X13490D1*
X13628Y1951D1*
X12975D1*
Y3129D1*
X13142D1*
X13135Y3137D1*
X12190Y3136D1*
X11844Y2789D1*
X11807Y2756D1*
X11766Y2728D1*
X11721Y2705D1*
X11630Y2674D1*
X11668Y2582D1*
X11690Y2485D1*
X11695Y2410D1*
X11686Y2311D1*
X11660Y2214D1*
X11618Y2124D1*
X11560Y2042D1*
X11497Y1979D1*
X14691Y2500D2*
X14612Y2558D1*
X14573Y2597D1*
X14535Y2599D1*
X14486Y2608D1*
X14438Y2623D1*
X14393Y2644D1*
X14350Y2670D1*
X14298Y2714D1*
X14153Y2859D1*
Y2393D1*
X14229Y2404D1*
X14575D1*
X14613Y2442D1*
X14692Y2501D1*
X6316Y4715D2*
Y4565D1*
X6964Y4564D1*
X7014Y4561D1*
X7063Y4552D1*
X7111Y4536D1*
X7156Y4515D1*
X7199Y4489D1*
X7250Y4446D1*
X7750Y3946D1*
X7783Y3908D1*
X7811Y3867D1*
X7834Y3823D1*
X7851Y3776D1*
X7863Y3727D1*
X7868Y3660D1*
Y2868D1*
X8061Y2675D1*
X8060Y2828D1*
X8184D1*
X8142Y2891D1*
X8100Y2982D1*
X8072Y3078D1*
X8061Y3177D1*
X8065Y3277D1*
X8085Y3375D1*
X8121Y3468D1*
X8170Y3555D1*
X8233Y3632D1*
X8309Y3700D1*
X8266Y3735D1*
X8198Y3808D1*
X8142Y3891D1*
X8100Y3982D1*
X8072Y4078D1*
X8061Y4177D1*
X8065Y4277D1*
X8085Y4375D1*
X8121Y4468D1*
X8170Y4555D1*
X8233Y4632D1*
X8307Y4699D1*
X8332Y4716D1*
X6315D1*
D16*
X3188Y5230D3*
D17*
Y4230D3*
D16*
X3125Y990D3*
D17*
Y1990D3*
D16*
X11126Y4120D3*
D17*
Y5120D3*
D16*
Y1410D3*
D17*
Y2410D3*
D18*
X1000Y2000D3*
D19*
Y3000D3*
Y4000D3*
D18*
X15002D3*
D19*
Y3000D3*
Y2000D3*
D18*
X13564Y2540D3*
D19*
Y3540D3*
D20*
X5688Y4160D3*
D21*
Y3160D3*
Y2160D3*
D20*
X8688Y2200D3*
D21*
Y3200D3*
Y4200D3*
%LNBottom*%
X11126Y2410D2*
D14*
X9828D1*
X9038Y3200D1*
X8688D1*
X7794D1*
X6030Y1436D1*
X4290D1*
X3790Y1936D1*
Y2815D1*
X3290Y3315D1*
X2369D1*
X1685Y4000D1*
X1000D1*
X8688Y3200D2*
D3*
X3188Y4230D2*
X4290D1*
Y2660D1*
X4790Y2160D1*
X5688D1*
X8688Y4200D2*
X9912D1*
X11037Y3075D1*
X11524D1*
X12059Y2540D1*
X13564D1*
X5688Y2160D2*
X6038D1*
X6412Y2534D1*
Y3700D1*
X6912Y4200D1*
X8688D1*
X5688Y2160D2*
D3*
X8688Y2200D2*
X7424Y936D1*
X3179D1*
X3125Y990D1*
X5688Y4160D2*
X4618Y5230D1*
X3188D1*
X13564Y3540D2*
X14249D1*
Y4000D1*
X15002D1*
X3125Y990D2*
D3*
X310Y5601D2*
D15*
X2610D1*
X4787D2*
X10813D1*
X11439D2*
X15690D1*
X310Y5503D2*
X2610D1*
X4926D2*
X10695D1*
X11558D2*
X15690D1*
X310Y5404D2*
X2610D1*
X5025D2*
X10624D1*
X11630D2*
X15690D1*
X310Y5305D2*
X2610D1*
X5123D2*
X10578D1*
X11673D2*
X15690D1*
X310Y5207D2*
X2610D1*
X5223D2*
X10553D1*
X11698D2*
X15690D1*
X310Y5108D2*
X2610D1*
X5322D2*
X10547D1*
X11705D2*
X15690D1*
X310Y5009D2*
X2610D1*
X5420D2*
X10558D1*
X11694D2*
X15690D1*
X310Y4910D2*
X2610D1*
X5519D2*
X10588D1*
X11665D2*
X15690D1*
X310Y4812D2*
X2610D1*
X3767D2*
X4455D1*
X5617D2*
X8538D1*
X8839D2*
X10638D1*
X11614D2*
X15690D1*
X310Y4713D2*
X2610D1*
X3767D2*
X4553D1*
X6326D2*
X8316D1*
X9061D2*
X10719D1*
X11534D2*
X15690D1*
X310Y4614D2*
X2758D1*
X4425D2*
X4653D1*
X6326D2*
X8206D1*
X9170D2*
X10547D1*
X11705D2*
X15690D1*
X310Y4516D2*
X706D1*
X1294D2*
X2686D1*
X4586D2*
X4752D1*
X6326D2*
X6650D1*
X10175D2*
X10547D1*
X11705D2*
X14403D1*
X15600D2*
X15690D1*
X310Y4417D2*
X575D1*
X1425D2*
X2641D1*
X4658D2*
X4850D1*
X6326D2*
X6549D1*
X10276D2*
X10547D1*
X11705D2*
X14403D1*
X15600D2*
X15690D1*
X310Y4318D2*
X495D1*
X1944D2*
X2616D1*
X4695D2*
X4949D1*
X6326D2*
X6449D1*
X10375D2*
X10547D1*
X11705D2*
X13991D1*
X15600D2*
X15690D1*
X310Y4220D2*
X444D1*
X2047D2*
X2610D1*
X4705D2*
X5047D1*
X10473D2*
X10547D1*
X11705D2*
X13900D1*
X15600D2*
X15690D1*
X310Y4121D2*
X414D1*
X2145D2*
X2619D1*
X4705D2*
X5050D1*
X11705D2*
X13460D1*
X13667D2*
X13853D1*
X15600D2*
X15690D1*
X310Y4022D2*
X402D1*
X2244D2*
X2649D1*
X4705D2*
X5050D1*
X11705D2*
X13217D1*
X15600D2*
X15690D1*
X310Y3924D2*
X406D1*
X2342D2*
X2699D1*
X4705D2*
X5050D1*
X11705D2*
X13108D1*
X15600D2*
X15690D1*
X310Y3825D2*
X428D1*
X2440D2*
X2778D1*
X3597D2*
X3877D1*
X4705D2*
X5050D1*
X11705D2*
X13039D1*
X15600D2*
X15690D1*
X310Y3726D2*
X469D1*
X2539D2*
X2914D1*
X3462D2*
X3877D1*
X4705D2*
X5050D1*
X7020D2*
X8266D1*
X9111D2*
X9805D1*
X11705D2*
X12995D1*
X15600D2*
X15690D1*
X310Y3628D2*
X535D1*
X3556D2*
X3877D1*
X4705D2*
X5050D1*
X6920D2*
X8219D1*
X9158D2*
X9903D1*
X11705D2*
X12972D1*
X15600D2*
X15690D1*
X310Y3529D2*
X638D1*
X1362D2*
X1575D1*
X3658D2*
X3877D1*
X4705D2*
X5170D1*
X6826D2*
X7550D1*
X9283D2*
X10002D1*
X11165D2*
X12966D1*
X15600D2*
X15690D1*
X310Y3430D2*
X589D1*
X1412D2*
X1674D1*
X3756D2*
X3877D1*
X4705D2*
X5111D1*
X6826D2*
X7444D1*
X9389D2*
X10102D1*
X11726D2*
X12975D1*
X15600D2*
X15690D1*
X310Y3331D2*
X503D1*
X1497D2*
X1772D1*
X4705D2*
X5074D1*
X6826D2*
X7344D1*
X9487D2*
X10200D1*
X11848D2*
X13003D1*
X15498D2*
X15690D1*
X310Y3233D2*
X450D1*
X1550D2*
X1870D1*
X4705D2*
X5055D1*
X6826D2*
X7245D1*
X9587D2*
X10299D1*
X11947D2*
X13052D1*
X15551D2*
X15690D1*
X310Y3134D2*
X417D1*
X1583D2*
X1969D1*
X4705D2*
X5050D1*
X6826D2*
X7147D1*
X9686D2*
X10397D1*
X12045D2*
X13128D1*
X14000D2*
X14419D1*
X15584D2*
X15690D1*
X310Y3035D2*
X403D1*
X1598D2*
X2069D1*
X4705D2*
X5063D1*
X6826D2*
X7049D1*
X9784D2*
X10495D1*
X12144D2*
X12966D1*
X14162D2*
X14405D1*
X15598D2*
X15690D1*
X310Y2937D2*
X405D1*
X1595D2*
X2219D1*
X4705D2*
X5091D1*
X6826D2*
X6950D1*
X9883D2*
X10594D1*
X14162D2*
X14406D1*
X15597D2*
X15690D1*
X310Y2838D2*
X424D1*
X1576D2*
X3186D1*
X4705D2*
X5139D1*
X9981D2*
X10694D1*
X14162D2*
X14425D1*
X15578D2*
X15690D1*
X310Y2739D2*
X463D1*
X1537D2*
X3285D1*
X4792D2*
X5213D1*
X7914D2*
X8050D1*
X14162D2*
X14464D1*
X15539D2*
X15690D1*
X310Y2641D2*
X524D1*
X1476D2*
X3377D1*
X4890D2*
X5274D1*
X7815D2*
X8050D1*
X14162D2*
X14525D1*
X15478D2*
X15690D1*
X310Y2542D2*
X402D1*
X1598D2*
X2978D1*
X3273D2*
X3377D1*
X7717D2*
X8050D1*
X14162D2*
X14622D1*
X15381D2*
X15690D1*
X310Y2443D2*
X402D1*
X1598D2*
X2772D1*
X7619D2*
X8050D1*
X14162D2*
X14605D1*
X15398D2*
X15690D1*
X310Y2345D2*
X402D1*
X1598D2*
X2670D1*
X7520D2*
X8050D1*
X14162D2*
X14514D1*
X15489D2*
X15690D1*
X310Y2246D2*
X402D1*
X1598D2*
X2608D1*
X7422D2*
X8050D1*
X9326D2*
X9411D1*
X11681D2*
X11772D1*
X14162D2*
X14456D1*
X15547D2*
X15690D1*
X310Y2147D2*
X402D1*
X1598D2*
X2569D1*
X7323D2*
X8050D1*
X9326D2*
X9510D1*
X11640D2*
X11955D1*
X14162D2*
X14422D1*
X15581D2*
X15690D1*
X310Y2049D2*
X402D1*
X1598D2*
X2550D1*
X7223D2*
X7956D1*
X9326D2*
X9638D1*
X11575D2*
X12966D1*
X14162D2*
X14405D1*
X15598D2*
X15690D1*
X310Y1950D2*
X402D1*
X1598D2*
X2549D1*
X7125D2*
X7856D1*
X9326D2*
X10547D1*
X11705D2*
X14405D1*
X15598D2*
X15690D1*
X310Y1851D2*
X402D1*
X1598D2*
X2564D1*
X7026D2*
X7758D1*
X9326D2*
X10547D1*
X11705D2*
X14422D1*
X15581D2*
X15690D1*
X310Y1752D2*
X402D1*
X1598D2*
X2599D1*
X6928D2*
X7660D1*
X9326D2*
X10547D1*
X11705D2*
X14458D1*
X15545D2*
X15690D1*
X310Y1654D2*
X402D1*
X1598D2*
X2656D1*
X6830D2*
X7561D1*
X9326D2*
X10547D1*
X11705D2*
X14516D1*
X15487D2*
X15690D1*
X310Y1555D2*
X402D1*
X1598D2*
X2547D1*
X6731D2*
X7463D1*
X8625D2*
X10547D1*
X11705D2*
X14606D1*
X15397D2*
X15690D1*
X310Y1456D2*
X402D1*
X1598D2*
X2547D1*
X6631D2*
X7364D1*
X8526D2*
X10547D1*
X11705D2*
X14766D1*
X15237D2*
X15690D1*
X310Y1358D2*
X2547D1*
X6533D2*
X7264D1*
X8428D2*
X10547D1*
X11705D2*
X15690D1*
X310Y1259D2*
X2547D1*
X8328D2*
X10547D1*
X11705D2*
X15690D1*
X310Y1160D2*
X2536D1*
X8230D2*
X10547D1*
X11705D2*
X15690D1*
X310Y1062D2*
X2516D1*
X8131D2*
X10547D1*
X11705D2*
X15690D1*
X310Y963D2*
X2513D1*
X8033D2*
X10547D1*
X11705D2*
X15690D1*
X310Y864D2*
X2525D1*
X7934D2*
X10547D1*
X11705D2*
X15690D1*
X310Y766D2*
X2547D1*
X7836D2*
X15690D1*
X310Y667D2*
X2547D1*
X7736D2*
X15690D1*
X310Y568D2*
X2547D1*
X7601D2*
X15690D1*
X310Y470D2*
X2547D1*
X3705D2*
X15690D1*
X310Y371D2*
X15690D1*
X3757Y5701D2*
Y5635D1*
X4618Y5634D1*
X4668Y5631D1*
X4717Y5622D1*
X4765Y5606D1*
X4810Y5585D1*
X4852Y5559D1*
X4904Y5516D1*
X5632Y4788D1*
X6316D1*
Y4174D1*
X6626Y4486D1*
X6664Y4519D1*
X6705Y4547D1*
X6750Y4570D1*
X6796Y4587D1*
X6845Y4598D1*
X6912Y4604D1*
X8207D1*
X8269Y4667D1*
X8348Y4728D1*
X8436Y4775D1*
X8531Y4808D1*
X8629Y4825D1*
X8729Y4827D1*
X8828Y4812D1*
X8923Y4783D1*
X9013Y4738D1*
X9094Y4680D1*
X9165Y4609D1*
X9169Y4603D1*
X9912Y4604D1*
X9962Y4601D1*
X10011Y4592D1*
X10059Y4576D1*
X10104Y4555D1*
X10147Y4529D1*
X10198Y4486D1*
X10557Y4127D1*
Y4689D1*
X10754Y4690D1*
X10684Y4762D1*
X10628Y4845D1*
X10588Y4936D1*
X10564Y5033D1*
X10557Y5133D1*
X10568Y5232D1*
X10596Y5328D1*
X10641Y5417D1*
X10700Y5497D1*
X10773Y5566D1*
X10856Y5621D1*
X10948Y5660D1*
X11045Y5683D1*
X11145Y5689D1*
X11244Y5677D1*
X11340Y5647D1*
X11429Y5602D1*
X11508Y5542D1*
X11576Y5468D1*
X11630Y5384D1*
X11668Y5292D1*
X11690Y5195D1*
X11695Y5120D1*
X11686Y5021D1*
X11660Y4924D1*
X11618Y4834D1*
X11560Y4752D1*
X11497Y4689D1*
X11695D1*
Y3551D1*
X11131D1*
X11205Y3479D1*
X11524D1*
X11574Y3476D1*
X11623Y3467D1*
X11670Y3451D1*
X11716Y3430D1*
X11758Y3404D1*
X11809Y3361D1*
X12226Y2944D1*
X12976D1*
X12975Y3129D1*
X13142D1*
X13076Y3211D1*
X13027Y3298D1*
X12994Y3392D1*
X12977Y3491D1*
Y3591D1*
X12994Y3689D1*
X13028Y3783D1*
X13077Y3870D1*
X13140Y3948D1*
X13215Y4014D1*
X13300Y4066D1*
X13393Y4103D1*
X13490Y4124D1*
X13590Y4128D1*
X13689Y4115D1*
X13784Y4086D1*
X13848Y4055D1*
X13861Y4114D1*
X13878Y4161D1*
X13901Y4205D1*
X13929Y4247D1*
X13962Y4284D1*
X13999Y4318D1*
X14040Y4346D1*
X14084Y4369D1*
X14131Y4387D1*
X14180Y4398D1*
X14249Y4404D1*
X14413D1*
Y4589D1*
X15590D1*
Y3411D1*
X15423D1*
X15490Y3329D1*
X15539Y3241D1*
X15572Y3147D1*
X15588Y3049D1*
Y2950D1*
X15571Y2852D1*
X15538Y2757D1*
X15489Y2670D1*
X15426Y2593D1*
X15351Y2527D1*
X15311Y2500D1*
X15353Y2473D1*
X15427Y2406D1*
X15490Y2329D1*
X15539Y2241D1*
X15572Y2147D1*
X15588Y2049D1*
Y1950D1*
X15571Y1852D1*
X15538Y1757D1*
X15489Y1670D1*
X15426Y1593D1*
X15351Y1527D1*
X15266Y1474D1*
X15174Y1437D1*
X15076Y1416D1*
X14976Y1412D1*
X14877Y1425D1*
X14782Y1454D1*
X14693Y1499D1*
X14612Y1558D1*
X14543Y1631D1*
X14487Y1713D1*
X14446Y1804D1*
X14421Y1901D1*
X14413Y2001D1*
X14422Y2100D1*
X14447Y2197D1*
X14488Y2288D1*
X14544Y2370D1*
X14613Y2442D1*
X14692Y2501D1*
X14651Y2527D1*
X14576Y2593D1*
X14514Y2671D1*
X14465Y2758D1*
X14432Y2852D1*
X14415Y2951D1*
Y3051D1*
X14432Y3149D1*
X14444Y3186D1*
X14381Y3158D1*
X14333Y3145D1*
X14268Y3136D1*
X13991D1*
X13985Y3129D1*
X14153D1*
Y1951D1*
X12975D1*
Y2137D1*
X12764Y2136D1*
X12059D1*
X12009Y2139D1*
X11960Y2148D1*
X11912Y2164D1*
X11867Y2185D1*
X11824Y2211D1*
X11773Y2254D1*
X11690Y2337D1*
X11675Y2262D1*
X11641Y2168D1*
X11591Y2082D1*
X11526Y2005D1*
X11497Y1979D1*
X11695D1*
Y841D1*
X10557D1*
Y1979D1*
X10754Y1980D1*
X10725Y2007D1*
X9828Y2006D1*
X9779Y2009D1*
X9729Y2018D1*
X9682Y2034D1*
X9636Y2055D1*
X9594Y2081D1*
X9543Y2124D1*
X9316Y2351D1*
Y1572D1*
X8630D1*
X8161Y1101D1*
X7710Y650D1*
X7673Y617D1*
X7631Y589D1*
X7587Y566D1*
X7540Y549D1*
X7491Y538D1*
X7424Y532D1*
X3695D1*
X3694Y421D1*
X3327D1*
X3273Y404D1*
X3174Y388D1*
X3074D1*
X2976Y405D1*
X2923Y421D1*
X2556D1*
Y788D1*
X2539Y844D1*
X2523Y943D1*
X2524Y1042D1*
X2540Y1141D1*
X2557Y1193D1*
X2556Y1559D1*
X2753Y1560D1*
X2683Y1632D1*
X2627Y1715D1*
X2587Y1806D1*
X2563Y1903D1*
X2557Y2003D1*
X2567Y2102D1*
X2596Y2198D1*
X2640Y2287D1*
X2700Y2367D1*
X2772Y2436D1*
X2855Y2491D1*
X2947Y2530D1*
X3044Y2553D1*
X3144Y2559D1*
X3243Y2547D1*
X3339Y2517D1*
X3386Y2496D1*
Y2647D1*
X3123Y2911D1*
X2369D1*
X2319Y2914D1*
X2270Y2924D1*
X2223Y2939D1*
X2177Y2960D1*
X2135Y2986D1*
X2084Y3030D1*
X1517Y3597D1*
X1427Y3596D1*
X1389Y3558D1*
X1310Y3500D1*
X1351Y3473D1*
X1426Y3406D1*
X1489Y3329D1*
X1537Y3241D1*
X1570Y3147D1*
X1587Y3049D1*
Y2950D1*
X1570Y2852D1*
X1536Y2757D1*
X1488Y2670D1*
X1425Y2593D1*
X1422Y2589D1*
X1589D1*
Y1411D1*
X411D1*
Y2589D1*
X579D1*
X512Y2671D1*
X463Y2758D1*
X430Y2852D1*
X414Y2951D1*
Y3051D1*
X431Y3149D1*
X464Y3243D1*
X513Y3330D1*
X576Y3408D1*
X651Y3474D1*
X691Y3501D1*
X650Y3527D1*
X575Y3593D1*
X512Y3671D1*
X463Y3758D1*
X430Y3852D1*
X414Y3951D1*
Y4051D1*
X431Y4149D1*
X464Y4243D1*
X513Y4330D1*
X576Y4408D1*
X651Y4474D1*
X736Y4526D1*
X829Y4563D1*
X926Y4584D1*
X1026Y4588D1*
X1125Y4575D1*
X1221Y4546D1*
X1310Y4501D1*
X1390Y4441D1*
X1429Y4403D1*
X1685Y4404D1*
X1735Y4401D1*
X1784Y4392D1*
X1831Y4376D1*
X1877Y4355D1*
X1919Y4329D1*
X1970Y4286D1*
X2537Y3719D1*
X2937D1*
X2854Y3769D1*
X2779Y3834D1*
X2716Y3912D1*
X2668Y3999D1*
X2635Y4094D1*
X2620Y4193D1*
X2622Y4292D1*
X2642Y4390D1*
X2678Y4483D1*
X2731Y4569D1*
X2797Y4643D1*
X2817Y4661D1*
X2619D1*
Y5700D1*
X300D1*
Y300D1*
X15700D1*
Y5700D1*
X3758D1*
X3757Y4826D2*
Y4661D1*
X3558D1*
X3589Y4633D1*
X4290Y4634D1*
X4340Y4631D1*
X4389Y4622D1*
X4437Y4606D1*
X4482Y4585D1*
X4525Y4559D1*
X4563Y4528D1*
X4598Y4492D1*
X4628Y4452D1*
X4653Y4408D1*
X4672Y4362D1*
X4685Y4314D1*
X4694Y4249D1*
Y2828D1*
X4957Y2564D1*
X5207D1*
X5269Y2627D1*
X5308Y2660D1*
X5266Y2695D1*
X5197Y2768D1*
X5141Y2851D1*
X5099Y2942D1*
X5072Y3038D1*
X5061Y3137D1*
X5065Y3237D1*
X5085Y3335D1*
X5120Y3428D1*
X5170Y3515D1*
X5182Y3531D1*
X5060Y3532D1*
Y4218D1*
X4589Y4688D1*
X4451Y4826D1*
X3757D1*
X3589Y3827D2*
X3511Y3762D1*
X3424Y3712D1*
X3402Y3704D1*
X3481Y3672D1*
X3523Y3646D1*
X3576Y3601D1*
X3886Y3291D1*
Y3827D1*
X3589Y3826D1*
X8060Y2142D2*
Y2795D1*
X7962Y2796D1*
X6505Y1340D1*
X7256D1*
X8061Y2144D1*
X8207Y3603D2*
X8269Y3667D1*
X8309Y3700D1*
X8266Y3735D1*
X8209Y3795D1*
X7081Y3796D1*
X6817Y3533D1*
X6816Y2792D1*
X7508Y3486D1*
X7546Y3519D1*
X7587Y3547D1*
X7632Y3570D1*
X7678Y3587D1*
X7727Y3598D1*
X7794Y3604D1*
X8208D1*
X9068Y3700D2*
X9131Y3646D1*
X9193Y3574D1*
X9271Y3530D1*
X9324Y3486D1*
X9997Y2813D1*
X10428Y2814D1*
X10727D1*
X9745Y3796D1*
X9170D1*
X9091Y3718D1*
X9067Y3700D1*
D16*
X3188Y5230D3*
D17*
Y4230D3*
D16*
X3125Y990D3*
D17*
Y1990D3*
D16*
X11126Y4120D3*
D17*
Y5120D3*
D16*
Y1410D3*
D17*
Y2410D3*
D18*
X1000Y2000D3*
D19*
Y3000D3*
Y4000D3*
D18*
X15002D3*
D19*
Y3000D3*
Y2000D3*
D18*
X13564Y2540D3*
D19*
Y3540D3*
D20*
X5688Y4160D3*
D21*
Y3160D3*
Y2160D3*
D20*
X8688Y2200D3*
D21*
Y3200D3*
Y4200D3*
M02*
